<svg width="114" height="80" viewBox="0 0 114 80" fill="none" xmlns="http://www.w3.org/2000/svg">
<path d="M64.9864 14.1284C64.7509 14.1284 64.28 14.3639 64.28 14.8348V66.8744H76.5246V14.8348C76.5246 14.5993 76.2891 14.1284 75.8181 14.1284H64.9864ZM36.965 29.1987C36.7296 29.1987 36.2586 29.4342 36.2586 29.9051V66.8744H48.5032V29.9051C48.5032 29.6696 48.2678 29.1987 47.7968 29.1987H36.965ZM8.94372 43.3271C8.70825 43.3271 8.2373 43.5626 8.2373 44.0335V66.8744H20.4819V44.0335C20.4819 43.798 20.2464 43.3271 19.7755 43.3271H8.94372ZM93.2432 0C93.0077 0 92.5367 0.235474 92.5367 0.706421V66.8744H104.781V0.706421C104.781 0.470948 104.546 0 104.075 0H93.2432Z" fill="#006A4E"/>
<path d="M112.321 72.9355H0.70642C0.235473 72.9355 0 73.171 0 73.4065V79.2933C0 79.5288 0.235473 79.9997 0.70642 79.9997H112.556C112.792 79.9997 113.263 79.7643 113.263 79.2933V73.4065C113.027 73.171 112.792 72.9355 112.321 72.9355Z" fill="#93FFE2"/>
</svg>
