<svg width="90" height="80" viewBox="0 0 90 80" fill="none" xmlns="http://www.w3.org/2000/svg">
<path d="M0 4.99999C0 2.23857 2.23858 0 5 0H84.6861C87.4475 0 89.6861 2.23858 89.6861 5V73.4572H0V4.99999Z" fill="#93FFE2"/>
<path d="M34.166 38.2568V61.482L57.3913 49.8694L34.166 38.2568Z" fill="#006A4E"/>
<path d="M0 72.9798C0 76.8569 3.1431 80 7.02016 80H82.8379C86.715 80 89.8581 76.8569 89.8581 72.9798V19.0418H0V72.9797V72.9798ZM27.145 32.5769C27.1451 31.9786 27.298 31.3902 27.5894 30.8676C27.8807 30.3451 28.3008 29.9057 28.8098 29.5911C29.3187 29.2766 29.8996 29.0974 30.4973 29.0705C31.095 29.0436 31.6897 29.1699 32.2248 29.4375L66.8089 46.7295C67.3919 47.0211 67.8822 47.4693 68.2249 48.0238C68.5675 48.5783 68.749 49.2173 68.749 49.8691C68.749 50.521 68.5675 51.1599 68.2249 51.7144C67.8822 52.269 67.3919 52.7171 66.8089 53.0087L32.2248 70.3008C31.6897 70.5684 31.095 70.6948 30.4973 70.6679C29.8995 70.641 29.3186 70.4617 28.8097 70.147C28.3008 69.8324 27.8807 69.393 27.5893 68.8704C27.298 68.3478 27.1451 67.7595 27.145 67.1612V32.5771V32.5769ZM82.8379 0H70.6957L64.1708 11.9624H89.8579V7.02016C89.8579 3.1431 86.7148 0 82.8377 0H82.8379ZM62.6312 0H7.02016C3.1431 0 0 3.1431 0 7.02016V11.9624H56.1065L62.6314 0H62.6312Z" fill="#006A4E"/>
</svg>
