<svg width="124" height="130" viewBox="0 0 124 130" fill="none" xmlns="http://www.w3.org/2000/svg">
<path d="M33.4447 129.317C15.5464 129.317 0.984375 114.755 0.984375 96.8568C0.984375 78.9585 15.5464 64.3965 33.4447 64.3965C51.343 64.3965 32.1313 80.4596 32.1313 98.3579C32.1313 116.256 51.343 129.317 33.4447 129.317ZM33.4447 65.8077C16.3241 65.8077 2.39555 79.7362 2.39555 96.8568C2.39555 113.977 16.3241 127.906 33.4447 127.906C50.5653 127.906 32.1313 115.479 32.1313 98.3579C32.1313 81.2373 50.5653 65.8077 33.4447 65.8077Z" fill="#006A4E"/>
<path d="M20.4939 83.6856C15.731 83.6856 11.2767 81.503 8.27376 77.6988C8.19869 77.5987 8.14579 77.4427 8.12638 77.2641C8.10697 77.0855 8.12258 76.8985 8.16987 76.743C8.21716 76.5876 8.29239 76.476 8.37947 76.4322C8.46656 76.3884 8.55859 76.4158 8.63591 76.5085C11.5332 80.1798 15.8554 82.285 20.4939 82.285C25.1351 82.285 29.459 80.1798 32.3562 76.5085C32.4336 76.4121 32.5265 76.382 32.6147 76.4247C32.703 76.4675 32.7793 76.5796 32.8272 76.7367C32.875 76.8938 32.8904 77.0831 32.8701 77.2633C32.8498 77.4436 32.7954 77.6001 32.7187 77.6988C29.7157 81.5037 25.2595 83.6856 20.4939 83.6856ZM32.5371 117.309C32.4753 117.309 32.4128 117.275 32.3562 117.204C29.4587 113.532 25.1347 111.427 20.4939 111.427C15.8561 111.427 11.5335 113.532 8.63591 117.204C8.55854 117.3 8.46561 117.33 8.37739 117.288C8.28918 117.245 8.21283 117.133 8.16499 116.976C8.11715 116.818 8.1017 116.629 8.12201 116.449C8.14233 116.269 8.19675 116.112 8.27342 116.013C11.2774 112.209 15.7317 110.027 20.4939 110.027C25.2595 110.027 29.7151 112.21 32.7187 116.014C32.7821 116.095 32.8309 116.215 32.8577 116.357C32.8846 116.499 32.888 116.655 32.8675 116.802C32.847 116.948 32.8036 117.077 32.744 117.168C32.6844 117.26 32.6118 117.309 32.5371 117.309Z" fill="#006A4E"/>
<path d="M33.4451 129.317C24.3015 129.317 16.8623 114.755 16.8623 96.8568C16.8623 78.9585 24.3009 64.3965 33.4451 64.3965C34.5708 69.8378 31.0058 81.5854 31.0058 99.4837C31.0058 117.382 34.0079 124.064 33.4451 129.317ZM33.4451 65.8077C25.0792 65.8077 18.2735 79.7362 18.2735 96.8568C18.2735 113.977 25.0792 127.906 33.4451 127.906C33.4451 121.061 31.0058 116.604 31.0058 99.4837C31.0058 82.3631 34.1956 73.2152 33.4451 65.8077Z" fill="#006A4E"/>
<path d="M33.6485 97.421H1.34347C1.24823 97.421 1.15689 97.3617 1.08955 97.2561C1.02221 97.1505 0.984375 97.0074 0.984375 96.8581C0.984375 96.7088 1.02221 96.5656 1.08955 96.46C1.15689 96.3545 1.24823 96.2952 1.34347 96.2952H33.6485C33.7438 96.2952 33.8351 96.3545 33.9025 96.46C33.9698 96.5656 34.0076 96.7088 34.0076 96.8581C34.0076 97.0074 33.9698 97.1505 33.9025 97.2561C33.8351 97.3617 33.7438 97.421 33.6485 97.421Z" fill="#006A4E"/>
<path d="M33.4432 129.317C33.0537 129.317 32.7373 129.001 32.7373 128.611V65.1034C32.7373 64.9162 32.8117 64.7366 32.9441 64.6042C33.0765 64.4718 33.256 64.3975 33.4432 64.3975C33.6305 64.3975 33.81 64.4718 33.9424 64.6042C34.0748 64.7366 34.1492 64.9162 34.1492 65.1034V128.611C34.1492 129.001 33.8334 129.317 33.4432 129.317Z" fill="#006A4E"/>
<path d="M77.2532 46.9845C77.6576 46.9845 78.0454 46.8239 78.3313 46.5379C78.6173 46.252 78.7779 45.8642 78.7779 45.4598V40.3775C78.7779 39.9731 78.6173 39.5853 78.3313 39.2994C78.0454 39.0134 77.6576 38.8528 77.2532 38.8528C76.8488 38.8528 76.461 39.0134 76.1751 39.2994C75.8892 39.5853 75.7285 39.9731 75.7285 40.3775V45.4598C75.7285 45.8642 75.8892 46.252 76.1751 46.5379C76.461 46.8239 76.8488 46.9845 77.2532 46.9845Z" fill="#006A4E"/>
<path d="M87.4177 38.3439C88.5404 38.3439 89.4506 37.4338 89.4506 36.311C89.4506 35.1882 88.5404 34.2781 87.4177 34.2781C86.2949 34.2781 85.3848 35.1882 85.3848 36.311C85.3848 37.4338 86.2949 38.3439 87.4177 38.3439Z" fill="#006A4E"/>
<path d="M67.0866 38.3439C68.2094 38.3439 69.1196 37.4338 69.1196 36.311C69.1196 35.1882 68.2094 34.2781 67.0866 34.2781C65.9639 34.2781 65.0537 35.1882 65.0537 36.311C65.0537 37.4338 65.9639 38.3439 67.0866 38.3439Z" fill="#006A4E"/>
<path d="M81.2056 53.0565C81.475 52.7675 81.6216 52.3852 81.6146 51.9902C81.6077 51.5952 81.4476 51.2184 81.1683 50.939C80.8889 50.6597 80.5121 50.4996 80.1171 50.4927C79.7221 50.4857 79.3398 50.6323 79.0507 50.9016C78.5664 51.3635 77.9229 51.6211 77.2536 51.6211C76.5844 51.6211 75.9409 51.3635 75.4565 50.9016C75.1675 50.6323 74.7852 50.4857 74.3902 50.4927C73.9952 50.4996 73.6183 50.6597 73.339 50.939C73.0596 51.2184 72.8996 51.5952 72.8926 51.9902C72.8857 52.3852 73.0323 52.7675 73.3016 53.0565C73.8203 53.5761 74.4363 53.9882 75.1145 54.2694C75.7926 54.5507 76.5195 54.6954 77.2536 54.6954C77.9878 54.6954 78.7147 54.5507 79.3928 54.2694C80.0709 53.9882 80.687 53.5761 81.2056 53.0565ZM73.1878 111.021H80.7259L73.8973 122.971C73.7977 123.145 73.7335 123.336 73.7081 123.535C73.6828 123.734 73.6968 123.935 73.7495 124.128C73.8022 124.322 73.8925 124.502 74.0151 124.661C74.1378 124.819 74.2905 124.951 74.4645 125.051C74.6382 125.15 74.8299 125.214 75.0285 125.24C75.2271 125.265 75.4288 125.251 75.6219 125.198C75.8151 125.146 75.996 125.055 76.1542 124.933C76.3125 124.81 76.445 124.657 76.5441 124.483L84.6759 110.253C84.8083 110.021 84.8775 109.759 84.8766 109.492C84.8757 109.225 84.8047 108.962 84.6707 108.732C84.5367 108.501 84.3444 108.309 84.1131 108.176C83.8817 108.042 83.6194 107.972 83.3524 107.972H73.1878C72.7834 107.972 72.3956 108.133 72.1097 108.419C71.8237 108.705 71.6631 109.092 71.6631 109.497C71.6631 109.901 71.8237 110.289 72.1097 110.575C72.3956 110.861 72.7834 111.021 73.1878 111.021Z" fill="#006A4E"/>
<path d="M108.221 70.1333L88.9424 65.5979V60.8429C93.5786 57.8937 96.9374 53.3101 98.3528 48.0009H98.5988C100.35 47.9987 102.03 47.3019 103.268 46.0633C104.507 44.8247 105.204 43.1455 105.206 41.3938C105.201 40.4525 104.993 39.5233 104.596 38.6697C106.327 35.0805 107.23 31.1483 107.239 27.1634C107.231 20.0219 104.39 13.1752 99.3404 8.12545C94.2906 3.07566 87.4439 0.235149 80.3025 0.227078C74.0592 0.220329 67.8803 1.48834 62.1443 3.95343C58.6721 5.43416 54.8121 5.74387 51.1482 4.83572L49.1621 4.33766C48.9372 4.28182 48.7026 4.27789 48.4761 4.32615C48.2495 4.3744 48.0369 4.47359 47.8543 4.6162C47.6717 4.75881 47.524 4.94109 47.4223 5.14925C47.3206 5.3574 47.2676 5.58596 47.2674 5.81763V15.0227C47.2615 17.871 48.011 20.6699 49.4395 23.1341C50.868 25.5983 52.9244 27.6396 55.3991 29.0499V34.8417C53.6968 34.9687 52.1102 35.7513 50.9733 37.0246C49.8363 38.2979 49.2378 39.9627 49.3037 41.6685C49.3695 43.3742 50.0946 44.9879 51.3264 46.1698C52.5581 47.3517 54.2003 48.0095 55.9073 48.0049H56.2611C57.7218 53.2534 61.0242 57.8001 65.5637 60.8124V65.6121L46.2855 70.1476C41.9323 71.1575 38.0505 73.6144 35.2747 77.1166C32.4989 80.6188 30.9932 84.959 31.004 89.4278V127.793C31.004 128.198 31.1646 128.585 31.4505 128.871C31.7365 129.157 32.1243 129.318 32.5287 129.318H121.977C122.382 129.318 122.77 129.157 123.056 128.871C123.342 128.585 123.502 128.198 123.502 127.793V89.4278C123.516 84.9566 122.012 80.613 119.236 77.1079C116.46 73.6029 112.576 71.1439 108.221 70.1333ZM98.9566 44.925C99.0554 44.0904 99.1056 43.2508 99.107 42.4103V37.887C99.9652 38.0074 100.749 38.4385 101.311 39.0984C101.872 39.7584 102.172 40.6014 102.154 41.4678C102.135 42.3341 101.8 43.1636 101.21 43.7989C100.621 44.4342 99.8191 44.8313 98.9566 44.9149V44.925ZM50.3168 15.0227V7.76924L50.4083 7.79363C54.719 8.86089 59.26 8.49698 63.3458 6.75684C68.7021 4.45415 74.4722 3.26982 80.3025 3.27647C86.6355 3.28346 92.7072 5.80236 97.1853 10.2805C101.663 14.7586 104.182 20.8303 104.189 27.1634C104.185 30.207 103.589 33.2207 102.435 36.0371C101.457 35.3378 100.306 34.9195 99.107 34.8275V28.1798C99.107 27.7754 98.9464 27.3876 98.6605 27.1017C98.3745 26.8158 97.9867 26.6551 97.5823 26.6551H94.476C92.0279 26.6545 89.6282 25.9724 87.5458 24.6852C85.4633 23.398 83.7802 21.5566 82.685 19.3671C82.5769 19.1514 82.4192 18.9645 82.2247 18.8216C82.0303 18.6788 81.8047 18.5841 81.5666 18.5454C81.3285 18.5067 81.0845 18.5251 80.8549 18.599C80.6252 18.673 80.4164 18.8003 80.2455 18.9707C75.3239 23.8906 68.65 26.6546 61.691 26.6551H57.3304C55.2096 25.5426 53.4344 23.87 52.1979 21.8191C50.9613 19.7682 50.3107 17.4176 50.3168 15.0227ZM52.3497 41.3938C52.3523 40.5406 52.6618 39.7168 53.2217 39.0729C53.7816 38.429 54.5545 38.0081 55.3991 37.887V41.7699C55.4066 42.826 55.4875 43.8802 55.641 44.925C54.7484 44.8595 53.9134 44.4593 53.3032 43.8046C52.693 43.1498 52.3524 42.2889 52.3497 41.3938ZM58.4485 42.4103V29.7045H61.6869C68.7791 29.7246 75.634 27.1514 80.9611 22.4693C82.4368 24.7018 84.4448 26.5321 86.8041 27.7952C89.1634 29.0582 91.7999 29.7144 94.476 29.7045H96.0576V42.4103C96.0576 47.3976 94.0764 52.1806 90.5499 55.7071C87.0234 59.2337 82.2403 61.2149 77.2531 61.2149C72.2658 61.2149 67.4828 59.2337 63.9562 55.7071C60.4297 52.1806 58.4485 47.3976 58.4485 42.4103ZM64.5473 68.9705L67.4381 68.2895C67.7725 68.2107 68.0705 68.0212 68.2838 67.7519C68.4971 67.4825 68.6131 67.149 68.6131 66.8054V62.4387C70.6828 63.3651 72.8897 63.9481 75.1469 64.1647C78.8156 64.5136 82.5127 63.9268 85.893 62.459V66.8054C85.893 67.149 86.0091 67.4825 86.2223 67.7519C86.4356 68.0212 86.7336 68.2107 87.068 68.2895L89.9589 68.9705V72.9042C89.9589 76.274 88.6202 79.5058 86.2374 81.8886C83.8546 84.2714 80.6228 85.61 77.2531 85.61C73.8833 85.61 70.6515 84.2714 68.2687 81.8886C65.8859 79.5058 64.5473 76.274 64.5473 72.9042V68.9705ZM46.7591 89.6759C46.3548 89.6759 45.967 89.8365 45.681 90.1224C45.3951 90.4084 45.2345 90.7962 45.2345 91.2005V126.269H34.0534V89.4278C34.0432 85.6457 35.3166 81.9721 37.6652 79.0075C40.0138 76.043 43.2987 73.9629 46.9828 73.1075L51.3332 72.091V90.8834C51.3336 92.0501 51.0574 93.2002 50.5274 94.2394C49.9973 95.2787 49.2284 96.1776 48.2838 96.8622V91.2005C48.2838 90.7962 48.1232 90.4084 47.8373 90.1224C47.5513 89.8365 47.1635 89.6759 46.7591 89.6759ZM98.0906 126.269H56.4156V104.923H98.0906V126.269ZM106.222 126.269H101.14V103.398C101.14 102.994 100.979 102.606 100.693 102.32C100.407 102.034 100.02 101.873 99.6153 101.873H54.8909C54.4865 101.873 54.0987 102.034 53.8127 102.32C53.5268 102.606 53.3662 102.994 53.3662 103.398V126.269H48.2838V100.369C50.1045 99.5378 51.6475 98.2004 52.7289 96.5163C53.8103 94.8322 54.3844 92.8726 54.3826 90.8712V71.3551L61.4979 69.68V72.9042C61.4979 77.0827 63.1578 81.0901 66.1125 84.0448C69.0671 86.9995 73.0745 88.6594 77.2531 88.6594C81.4316 88.6594 85.439 86.9995 88.3937 84.0448C91.3483 81.0901 93.0082 77.0827 93.0082 72.9042V69.6861L100.123 71.3612V90.8773C100.122 92.8787 100.696 94.8383 101.777 96.5224C102.859 98.2065 104.402 99.5439 106.222 100.375V126.269ZM120.453 126.269H109.272V91.2005C109.272 90.7962 109.111 90.4084 108.825 90.1224C108.539 89.8365 108.151 89.6759 107.747 89.6759C107.343 89.6759 106.955 89.8365 106.669 90.1224C106.383 90.4084 106.222 90.7962 106.222 91.2005V96.8501C105.278 96.1654 104.509 95.2665 103.979 94.2272C103.449 93.188 103.173 92.0379 103.173 90.8712V72.0788L107.523 73.0953C111.208 73.951 114.494 76.0319 116.843 78.9977C119.192 81.9635 120.464 85.6386 120.453 89.4217V126.269Z" fill="#006A4E"/>
</svg>
