<svg width="115" height="80" viewBox="0 0 115 80" fill="none" xmlns="http://www.w3.org/2000/svg">
<path fill-rule="evenodd" clip-rule="evenodd" d="M31.332 34.5382C31.8527 34.5437 32.3503 34.7545 32.7166 35.1247C33.0829 35.495 33.2884 35.9948 33.2884 36.5156C33.2884 37.0364 33.0829 37.5362 32.7166 37.9064C32.3503 38.2767 31.8527 38.4875 31.332 38.493H1.99859C1.73714 38.4958 1.47773 38.4467 1.23538 38.3486C0.993024 38.2504 0.772536 38.1052 0.58667 37.9213C0.400805 37.7374 0.253253 37.5185 0.152552 37.2772C0.0518506 37.0359 0 36.7771 0 36.5156C0 36.2541 0.0518506 35.9953 0.152552 35.754C0.253253 35.5127 0.400805 35.2937 0.58667 35.1099C0.772536 34.926 0.993024 34.7807 1.23538 34.6826C1.47773 34.5845 1.73714 34.5354 1.99859 34.5382H31.332ZM43.2063 49.7297H17.2431C16.9816 49.7269 16.7222 49.776 16.4798 49.8741C16.2375 49.9722 16.017 50.1174 15.8311 50.3013C15.6453 50.4852 15.4977 50.7042 15.397 50.9454C15.2963 51.1867 15.2445 51.4456 15.2445 51.7071C15.2445 51.9685 15.2963 52.2274 15.397 52.4687C15.4977 52.71 15.6453 52.9289 15.8311 53.1128C16.017 53.2967 16.2375 53.4419 16.4798 53.54C16.7222 53.6382 16.9816 53.6873 17.2431 53.6845H43.2063C43.727 53.6789 44.2246 53.4682 44.5909 53.0979C44.9572 52.7277 45.1627 52.2279 45.1627 51.7071C45.1627 51.1863 44.9572 50.6865 44.5909 50.3162C44.2246 49.946 43.727 49.7352 43.2063 49.7297Z" fill="#93FFE2"/>
<path fill-rule="evenodd" clip-rule="evenodd" d="M68.4479 0L72.116 39.7131C72.1882 40.5166 72.5404 41.2693 73.1109 41.8396C73.6815 42.41 74.4343 42.7619 75.2378 42.8338L114.951 46.503C114.786 46.172 114.569 45.87 114.307 45.6088L69.3421 0.64413C69.0809 0.382435 68.7789 0.164894 68.4479 0ZM82.4048 47.4539L85.3585 79.4351C85.3861 79.4093 85.4135 79.3828 85.4404 79.3561L114.307 50.4895C114.334 50.4626 114.36 50.4352 114.386 50.4075L82.4048 47.4539ZM67.8657 36.5373L68.1919 40.0687C68.3381 41.7942 69.0899 43.4123 70.3144 44.6368C71.5388 45.8612 73.157 46.6131 74.8824 46.7592L78.4138 47.0854L81.4535 80C81.1226 79.835 80.8206 79.6174 80.5593 79.3559L35.5951 34.3912C35.3335 34.1298 35.1161 33.8279 34.9511 33.497L67.8657 36.5373ZM35.516 29.5925L67.4971 32.5462L64.5431 0.564876C64.5158 0.590695 64.4884 0.617188 64.4617 0.64413L35.5951 29.5105C35.5683 29.5374 35.5418 29.5648 35.516 29.5925ZM37.6489 12.56C38.1734 12.56 38.6764 12.7683 39.0472 13.1392C39.4181 13.51 39.6264 14.013 39.6264 14.5375C39.6264 15.0619 39.4181 15.5649 39.0472 15.9358C38.6764 16.3066 38.1734 16.515 37.6489 16.515H1.97752C1.45305 16.515 0.950057 16.3066 0.579201 15.9358C0.208345 15.5649 0 15.0619 0 14.5375C0 14.013 0.208345 13.51 0.579201 13.1392C0.950057 12.7683 1.45305 12.56 1.97752 12.56H37.6489ZM58.1876 70.3066H8.46416C8.20271 70.3038 7.94331 70.3529 7.70095 70.4511C7.4586 70.5492 7.23811 70.6944 7.05225 70.8783C6.86638 71.0622 6.71883 71.2811 6.61813 71.5224C6.51743 71.7637 6.46557 72.0226 6.46557 72.284C6.46557 72.5455 6.51743 72.8044 6.61813 73.0457C6.71883 73.287 6.86638 73.5059 7.05225 73.6898C7.23811 73.8737 7.4586 74.0189 7.70095 74.117C7.94331 74.2151 8.20271 74.2642 8.46416 74.2614H58.1876C58.7084 74.2559 59.206 74.0451 59.5723 73.6749C59.9386 73.3046 60.1441 72.8049 60.1441 72.284C60.1441 71.7632 59.9386 71.2634 59.5723 70.8932C59.206 70.523 58.7084 70.3122 58.1876 70.3066Z" fill="#006A4E"/>
</svg>
