<svg width="96" height="80" viewBox="0 0 96 80" fill="none" xmlns="http://www.w3.org/2000/svg">
<path d="M10.2715 5.13574H87.3074L85.5762 32.6909H55.2812V51.3573H10.2715V5.13574Z" fill="#93FFE2"/>
<path d="M74.2937 48.0503C68.9143 48.0503 64.5381 52.4267 64.5381 57.8059C64.5381 63.1851 68.9145 67.5615 74.2937 67.5615C79.6729 67.5615 84.0493 63.1851 84.0493 57.8059C84.0493 52.4267 79.6729 48.0503 74.2937 48.0503ZM74.2937 73.1465C72.1375 73.1477 70.0056 72.6915 68.0387 71.8079V79.9998L74.2937 77.9614L80.5487 79.9998V71.8079C78.5818 72.6914 76.4499 73.1477 74.2937 73.1465Z" fill="#93FFE2"/>
<path d="M0 0V72.2942H62.4534V67.5511C60.2672 64.8996 58.9527 61.5041 58.9527 57.8072C58.9527 49.3485 65.8345 42.4667 74.2933 42.4667C82.7521 42.4667 89.6338 49.3485 89.6338 57.8072C89.6338 61.5041 88.3191 64.8996 86.1332 67.5511V72.2942H95.3165V0H0ZM47.6583 46.4331H12.9079V40.8482H47.6583V46.4331ZM82.4086 31.8113H12.9079V26.2264H82.4086V31.8113ZM82.4086 17.1896H12.9079V11.6046H82.4086V17.1896Z" fill="#006A4E"/>
</svg>
