<svg width="192" height="143" viewBox="0 0 192 143" fill="none" xmlns="http://www.w3.org/2000/svg">
<path d="M95.997 117.339C68.9071 117.339 44.6498 105.081 29.0706 94.7985C12.2763 83.715 1.94626 72.7662 1.51457 72.3061C0.929865 71.6821 0.604492 70.8591 0.604492 70.004C0.604492 69.1489 0.929865 68.3258 1.51457 67.7018C1.94626 67.2417 12.2793 56.2929 29.0706 45.2095C44.6498 34.9265 68.9071 22.6685 95.997 22.6685C123.087 22.6685 147.344 34.9265 162.924 45.2095C179.715 56.2929 190.048 67.241 190.479 67.7018C191.063 68.3258 191.389 69.1489 191.389 70.004C191.389 70.8591 191.063 71.6821 190.479 72.3061C190.048 72.767 179.715 83.715 162.924 94.7985C147.344 105.081 123.087 117.339 95.997 117.339ZM8.74119 70.004C18.0013 78.9147 53.9055 110.606 95.997 110.606C138.146 110.606 174.005 78.9192 183.255 70.0055C173.997 61.1007 138.092 29.402 95.997 29.402C53.9025 29.402 18.0021 61.0925 8.74119 70.004Z" fill="#006A4E"/>
<path d="M95.9959 117.339C86.6339 117.339 77.4821 114.563 69.6979 109.362C61.9137 104.16 55.8467 96.7674 52.2641 88.118C48.6815 79.4685 47.7442 69.951 49.5708 60.7688C51.3973 51.5867 55.9056 43.1524 62.5257 36.5325C69.1457 29.9125 77.5801 25.4044 86.7622 23.578C95.9444 21.7516 105.462 22.689 114.111 26.2718C122.761 29.8545 130.153 35.9216 135.355 43.7059C140.556 51.4901 143.332 60.6419 143.332 70.004C143.318 82.5539 138.326 94.5857 129.452 103.46C120.578 112.334 108.546 117.325 95.9959 117.339ZM95.9959 29.4021C87.9656 29.4022 80.1157 31.7836 73.4389 36.2451C66.762 40.7066 61.5581 47.0478 58.4851 54.4668C55.4122 61.8859 54.6082 70.0495 56.175 77.9255C57.7417 85.8014 61.6087 93.0359 67.287 98.7142C72.9653 104.392 80.1999 108.259 88.0759 109.826C95.9519 111.392 104.116 110.588 111.535 107.515C118.954 104.442 125.295 99.2381 129.756 92.5611C134.217 85.8842 136.599 78.0343 136.599 70.004C136.586 59.2393 132.305 48.9191 124.693 41.3074C117.081 33.6957 106.761 29.4141 95.9959 29.4021Z" fill="#006A4E"/>
<path d="M61.1796 133.673C60.5887 133.673 60.0084 133.517 59.4969 133.221C58.9854 132.925 58.5608 132.5 58.2656 131.988C57.9705 131.477 57.8152 130.896 57.8154 130.305C57.8157 129.714 57.9714 129.134 58.2669 128.622L64.6264 117.602C64.8459 117.217 65.1395 116.878 65.4904 116.606C65.8413 116.334 66.2426 116.134 66.6711 116.017C67.0996 115.901 67.5469 115.871 67.9872 115.928C68.4275 115.985 68.8521 116.129 69.2366 116.351C69.6212 116.573 69.958 116.869 70.2277 117.221C70.4974 117.574 70.6947 117.977 70.8082 118.406C70.9216 118.835 70.9491 119.283 70.889 119.723C70.8288 120.163 70.6822 120.586 70.4577 120.969L64.0982 131.989C63.8025 132.502 63.3771 132.927 62.8647 133.223C62.3524 133.518 61.7711 133.674 61.1796 133.673ZM95.9974 143C95.1044 143 94.2481 142.645 93.6167 142.014C92.9853 141.383 92.6306 140.526 92.6306 139.633V126.909C92.6306 126.016 92.9853 125.16 93.6167 124.528C94.2481 123.897 95.1044 123.542 95.9974 123.542C96.8903 123.542 97.7466 123.897 98.378 124.528C99.0094 125.16 99.3642 126.016 99.3642 126.909V139.633C99.3642 140.526 99.0094 141.383 98.378 142.014C97.7466 142.645 96.8903 143 95.9974 143ZM130.815 133.673C130.224 133.674 129.643 133.518 129.13 133.222C128.618 132.927 128.193 132.501 127.897 131.989L121.538 120.969C121.091 120.196 120.97 119.277 121.202 118.414C121.433 117.552 121.997 116.816 122.77 116.37C123.544 115.923 124.463 115.802 125.325 116.034C126.188 116.265 126.923 116.829 127.37 117.602L133.729 128.622C134.025 129.134 134.181 129.714 134.181 130.305C134.181 130.896 134.026 131.477 133.73 131.989C133.435 132.501 133.01 132.926 132.499 133.221C131.987 133.517 131.406 133.673 130.815 133.673ZM121.504 68.6285C120.611 68.6285 119.755 68.2738 119.123 67.6424C118.492 67.011 118.137 66.1546 118.137 65.2617V57.6408H110.512C109.619 57.6408 108.763 57.2861 108.131 56.6547C107.5 56.0233 107.145 55.1669 107.145 54.274C107.145 53.3811 107.5 52.5247 108.131 51.8933C108.763 51.2619 109.619 50.9072 110.512 50.9072H121.501C122.394 50.9072 123.25 51.2619 123.882 51.8933C124.513 52.5247 124.868 53.3811 124.868 54.274V65.2617C124.868 66.1541 124.514 67.01 123.883 67.6413C123.252 68.2726 122.397 68.6277 121.504 68.6285Z" fill="#006A4E"/>
<path d="M70.4889 89.1027C69.823 89.1027 69.1721 88.9052 68.6184 88.5353C68.0647 88.1653 67.6332 87.6395 67.3784 87.0243C67.1235 86.4091 67.0569 85.7322 67.1868 85.0791C67.3167 84.426 67.6373 83.8261 68.1082 83.3552L88.3044 63.159C88.6171 62.8463 88.9882 62.5984 89.3967 62.4292C89.8052 62.26 90.243 62.1729 90.6851 62.1729C91.1272 62.1729 91.5651 62.26 91.9735 62.4292C92.382 62.5984 92.7532 62.8463 93.0658 63.159L100.46 70.5539L119.121 51.893C119.752 51.2617 120.609 50.9071 121.502 50.9072C122.395 50.9074 123.251 51.2622 123.882 51.8937C124.514 52.5252 124.868 53.3816 124.868 54.2746C124.868 55.1675 124.513 56.0238 123.882 56.6551L102.84 77.696C102.209 78.3272 101.353 78.6819 100.46 78.6821C100.018 78.6821 99.5801 78.595 99.1716 78.4258C98.7631 78.2566 98.392 78.0087 98.0793 77.696L90.6829 70.3033L72.8696 88.1166C72.5573 88.4297 72.1862 88.678 71.7777 88.8473C71.3691 89.0165 70.9311 89.1033 70.4889 89.1027Z" fill="#006A4E"/>
<path d="M74.7919 12.083V10.267L79.0608 6.33832C79.4239 5.9891 79.7284 5.6748 79.9743 5.39543C80.2242 5.11605 80.4135 4.8425 80.5424 4.57476C80.6712 4.30315 80.7356 4.01019 80.7356 3.6959C80.7356 3.34668 80.6556 3.04596 80.4955 2.79375C80.3354 2.53766 80.1168 2.34171 79.8397 2.2059C79.5625 2.06621 79.2482 1.99637 78.8969 1.99637C78.5299 1.99637 78.2098 2.07009 77.9365 2.21754C77.6632 2.36499 77.4524 2.57646 77.3041 2.85195C77.1557 3.12745 77.0816 3.45532 77.0816 3.83558H74.6748C74.6748 3.05566 74.8524 2.37857 75.2077 1.8043C75.5629 1.23003 76.0607 0.785742 76.7009 0.471445C77.3412 0.157148 78.079 0 78.9144 0C79.7733 0 80.5209 0.151328 81.1572 0.453984C81.7975 0.75276 82.2952 1.16794 82.6505 1.69953C83.0057 2.23112 83.1833 2.84031 83.1833 3.52711C83.1833 3.97721 83.0935 4.4215 82.914 4.85996C82.7383 5.29842 82.424 5.78539 81.9712 6.32086C81.5183 6.85245 80.88 7.49074 80.0563 8.23574L78.3054 9.94109V10.0226H83.3414V12.083H74.7919Z" fill="#006A4E"/>
<path d="M89.8809 12.3449C88.8737 12.341 88.0071 12.0946 87.281 11.6057C86.5587 11.1168 86.0024 10.4087 85.612 9.48129C85.2256 8.55392 85.0343 7.43836 85.0382 6.13461C85.0382 4.83474 85.2314 3.72694 85.6179 2.81121C86.0083 1.89548 86.5646 1.19898 87.2868 0.721719C88.0129 0.240573 88.8776 0 89.8809 0C90.8842 0 91.747 0.240573 92.4692 0.721719C93.1953 1.20286 93.7536 1.9013 94.144 2.81703C94.5344 3.72888 94.7276 4.83474 94.7237 6.13461C94.7237 7.44224 94.5285 8.55974 94.1381 9.48711C93.7516 10.4145 93.1973 11.1226 92.4751 11.6115C91.7529 12.1004 90.8881 12.3449 89.8809 12.3449ZM89.8809 10.2554C90.568 10.2554 91.1165 9.91199 91.5264 9.22519C91.9363 8.5384 92.1393 7.5082 92.1354 6.13461C92.1354 5.23052 92.0417 4.47776 91.8544 3.87633C91.6709 3.27489 91.4093 2.82285 91.0697 2.52019C90.7339 2.21754 90.3377 2.06621 89.8809 2.06621C89.1978 2.06621 88.6512 2.40573 88.2413 3.08477C87.8314 3.7638 87.6245 4.78042 87.6206 6.13461C87.6206 7.05034 87.7123 7.81474 87.8958 8.42781C88.0832 9.037 88.3467 9.49487 88.6864 9.8014C89.026 10.1041 89.4242 10.2554 89.8809 10.2554Z" fill="#006A4E"/>
<path d="M100.965 12.2459C100.09 12.2459 99.3113 12.0965 98.6281 11.7978C97.9488 11.4951 97.412 11.0799 97.0177 10.5522C96.6274 10.0206 96.4263 9.40756 96.4146 8.71301H98.9677C98.9833 9.00402 99.079 9.26011 99.2547 9.48129C99.4342 9.69858 99.6724 9.86737 99.9691 9.98765C100.266 10.1079 100.6 10.1681 100.97 10.1681C101.357 10.1681 101.699 10.1002 101.995 9.96437C102.292 9.82857 102.524 9.64038 102.692 9.3998C102.86 9.15923 102.944 8.88179 102.944 8.5675C102.944 8.24932 102.854 7.96801 102.674 7.72355C102.499 7.47522 102.245 7.28121 101.913 7.14152C101.585 7.00183 101.195 6.93199 100.742 6.93199H99.6236V5.08113H100.742C101.125 5.08113 101.462 5.01517 101.755 4.88324C102.052 4.75131 102.282 4.56894 102.446 4.33613C102.61 4.09944 102.692 3.82394 102.692 3.50965C102.692 3.21087 102.62 2.94896 102.475 2.72391C102.335 2.49497 102.136 2.31648 101.878 2.18844C101.624 2.06039 101.328 1.99637 100.988 1.99637C100.644 1.99637 100.33 2.05845 100.045 2.18262C99.7602 2.3029 99.5318 2.47557 99.3601 2.70062C99.1883 2.92568 99.0966 3.18953 99.0849 3.49219H96.6547C96.6664 2.80539 96.8635 2.20008 97.2461 1.67625C97.6287 1.15242 98.144 0.74306 98.7921 0.448164C99.444 0.149388 100.18 0 101 0C101.827 0 102.552 0.149388 103.172 0.448164C103.793 0.74694 104.275 1.15048 104.619 1.65879C104.966 2.16322 105.138 2.72973 105.134 3.35832C105.138 4.02572 104.929 4.58252 104.507 5.02875C104.09 5.47497 103.545 5.75823 102.874 5.87851V5.97164C103.756 6.08416 104.427 6.38876 104.888 6.88543C105.353 7.37821 105.583 7.99517 105.579 8.73629C105.583 9.41532 105.386 10.0187 104.988 10.5464C104.593 11.0741 104.049 11.4893 103.354 11.7919C102.659 12.0946 101.862 12.2459 100.965 12.2459Z" fill="#006A4E"/>
<path d="M112.104 12.3449C111.097 12.341 110.23 12.0946 109.504 11.6057C108.782 11.1168 108.225 10.4087 107.835 9.48129C107.448 8.55392 107.257 7.43836 107.261 6.13461C107.261 4.83474 107.454 3.72694 107.841 2.81121C108.231 1.89548 108.787 1.19898 109.51 0.721719C110.236 0.240573 111.101 0 112.104 0C113.107 0 113.97 0.240573 114.692 0.721719C115.418 1.20286 115.976 1.9013 116.367 2.81703C116.757 3.72888 116.951 4.83474 116.947 6.13461C116.947 7.44224 116.751 8.55974 116.361 9.48711C115.975 10.4145 115.42 11.1226 114.698 11.6115C113.976 12.1004 113.111 12.3449 112.104 12.3449ZM112.104 10.2554C112.791 10.2554 113.339 9.91199 113.749 9.22519C114.159 8.5384 114.362 7.5082 114.358 6.13461C114.358 5.23052 114.265 4.47776 114.077 3.87633C113.894 3.27489 113.632 2.82285 113.293 2.52019C112.957 2.21754 112.561 2.06621 112.104 2.06621C111.421 2.06621 110.874 2.40573 110.464 3.08477C110.054 3.7638 109.847 4.78042 109.843 6.13461C109.843 7.05034 109.935 7.81474 110.119 8.42781C110.306 9.037 110.57 9.49487 110.909 9.8014C111.249 10.1041 111.647 10.2554 112.104 10.2554Z" fill="#006A4E"/>
</svg>
