<svg width="75" height="80" viewBox="0 0 75 80" fill="none" xmlns="http://www.w3.org/2000/svg">
<ellipse cx="36.915" cy="40.0615" rx="24.7187" ry="24.7187" fill="#93FFE2"/>
<path d="M74.5862 14.7289C74.4144 12.1524 72.0097 10.263 69.4332 10.6065C55.5201 12.496 45.2142 5.45357 40.4047 1.15942C38.6871 -0.386473 36.1106 -0.386473 34.5647 1.15942C29.7553 5.2818 19.4493 12.496 5.53626 10.6065C2.95977 10.263 0.555043 12.1524 0.383277 14.7289C-0.303787 28.8137 0.726808 68.3199 37.4847 80C74.2426 68.3199 75.445 28.8137 74.5862 14.7289ZM37.4847 60.934C25.8046 60.934 16.5293 51.4868 16.5293 39.9785C16.5293 28.4702 25.8046 19.0231 37.4847 19.0231C49.1648 19.0231 58.4402 28.2984 58.4402 39.9785C58.4402 51.6586 49.1648 60.934 37.4847 60.934Z" fill="#006A4E"/>
<path d="M33.3632 34.6538C33.3632 33.2797 34.0502 32.2491 34.9091 31.3902C35.5961 30.8749 36.4549 30.5314 37.3138 30.5314C39.2032 30.5314 41.4362 32.0773 41.4362 34.6538V37.9173H33.1914V34.6538H33.3632ZM45.9021 39.4632C45.5585 38.9479 45.215 38.6044 44.6997 38.2609C44.3562 38.0891 44.0126 37.9173 43.6691 37.9173V34.6538C43.6691 31.7338 41.2644 28.4702 37.4855 28.4702C34.0502 28.4702 31.302 31.2185 31.302 34.6538V37.9173C30.9584 37.9173 30.6149 38.0891 30.2714 38.2609C29.7561 38.6044 29.2408 38.9479 28.8972 39.4632C28.5537 39.9785 28.5537 40.4938 28.5537 41.0091V48.2233C28.5537 50.1127 30.0996 51.3151 31.6455 51.3151H43.3256C44.0126 51.3151 44.5279 51.1433 45.0432 50.7998C45.5585 50.4563 45.9021 50.2845 46.0738 49.7692C46.4174 49.2539 46.5891 48.7386 46.5891 48.0515V40.8374C46.4174 40.4938 46.2456 39.9785 45.9021 39.4632ZM38.3444 44.788L38.5161 46.1621C38.5161 46.6774 38.1726 47.0209 37.6573 47.0209H37.142C36.6267 47.0209 36.2832 46.6774 36.2832 46.1621L36.4549 44.788C35.9396 44.4444 35.7679 43.9292 35.7679 43.4139C35.7679 42.555 36.4549 41.868 37.3138 41.868C38.1726 41.868 38.8597 42.555 38.8597 43.4139C39.0314 43.9292 38.8597 44.4444 38.3444 44.788Z" fill="#006A4E"/>
</svg>
