<svg width="56" height="80" viewBox="0 0 56 80" fill="none" xmlns="http://www.w3.org/2000/svg">
<path d="M0 1.51922V37.6563H8.26406V0H1.51922C0.680156 0 0 0.680156 0 1.51922ZM53.7245 0H46.9797V37.6563H55.2437V1.51922C55.2437 0.680156 54.5636 0 53.7245 0ZM0 78.4808C0 79.3198 0.680156 80 1.51922 80H8.26406V42.3438H0V78.4808ZM46.9797 80H53.7245C54.5636 80 55.2437 79.3198 55.2437 78.4808V42.3438H46.9797V80ZM12.9516 0H42.2922V12.2969H12.9516V0ZM12.9516 67.7H42.2922V80H12.9516V67.7Z" fill="#006A4E"/>
<path d="M24.2416 17.1371C24.2416 17.098 24.2432 17.059 24.2447 17.0215H11.915V37.6934H24.2416V17.1371ZM28.9291 17.1371V37.6934H41.2557V17.0215H28.926C28.9275 17.059 28.9291 17.098 28.9291 17.1371ZM11.915 42.3809H24.2416V63.0496H11.915V42.3809ZM28.9291 42.3809H41.2557V63.0496H28.9291V42.3809Z" fill="#93FFE2"/>
</svg>
