<svg width="69" height="80" viewBox="0 0 69 80" fill="none" xmlns="http://www.w3.org/2000/svg">
<path d="M3.4043 6C3.4043 2.68629 6.09059 0 9.4043 0H62.0855C65.3992 0 68.0855 2.68629 68.0855 6V64.6812H3.4043V6Z" fill="#93FFE2"/>
<path d="M53.1553 16.0522H67.3677L52.4092 1.36035V15.3071C52.4092 15.7177 52.7437 16.0522 53.1553 16.0522Z" fill="#006A4E"/>
<path d="M53.1529 20.7397C50.1573 20.7397 47.7198 18.3028 47.7198 15.3071V0H8.74513C3.92288 0 0 3.92287 0 8.745V71.255C0 76.0771 3.92288 80 8.74513 80H60.0049C64.8276 80 68.75 76.0771 68.75 71.255V20.7396L53.1529 20.7397ZM47.7954 60.625H17.6074C16.313 60.625 15.2636 59.5756 15.2636 58.2812C15.2636 56.9869 16.313 55.9375 17.6074 55.9375H47.7954C49.0904 55.9375 50.1391 56.9869 50.1391 58.2812C50.1391 59.5756 49.0904 60.625 47.7954 60.625ZM15.2636 48.9062C15.2636 47.6119 16.313 46.5625 17.6074 46.5625H44.546C45.841 46.5625 46.8898 47.6119 46.8898 48.9062C46.8898 50.2006 45.8399 51.25 44.546 51.25H17.6074C16.313 51.25 15.2636 50.2006 15.2636 48.9062ZM50.6455 41.875H17.6074C16.313 41.875 15.2636 40.8256 15.2636 39.5312C15.2636 38.2369 16.313 37.1875 17.6074 37.1875H50.6455C51.94 37.1875 52.9893 38.2369 52.9893 39.5312C52.9893 40.8256 51.94 41.875 50.6455 41.875Z" fill="#006A4E"/>
</svg>
