<svg width="193" height="143" viewBox="0 0 193 143" fill="none" xmlns="http://www.w3.org/2000/svg">
<path d="M184.094 73.9205C180.342 73.9205 177.164 76.4209 176.135 79.8423H153.062C152.081 70.5031 145.441 62.6712 136.565 60.0432L157.034 39.5742C158.21 40.2123 159.554 40.5712 160.981 40.5712C165.567 40.5712 169.296 36.8426 169.296 32.2567C169.296 27.6709 165.567 23.9423 160.981 23.9423C156.396 23.9423 152.667 27.6709 152.667 32.2567C152.667 33.6764 153.026 35.0163 153.656 36.1847L133.406 56.4344C132.377 52.1834 130.18 48.2954 126.986 45.165C122.552 40.8184 116.686 38.4218 110.473 38.4218C105.955 38.4218 101.632 39.6899 97.9036 42.0466V16.2739C101.325 15.2451 103.825 12.0669 103.825 8.31442C103.825 3.72853 100.097 0 95.5109 0C90.925 0 87.1965 3.72853 87.1965 8.31442C87.1965 12.0669 89.6968 15.2451 93.1183 16.2739V40.1804C89.31 36.7748 84.3373 34.8049 79.0615 34.8049C67.7603 34.8049 58.5088 43.7414 57.9944 54.919L37.7168 34.6414C38.1793 33.6086 38.4425 32.4641 38.4425 31.2598C38.4425 26.6739 34.714 22.9454 30.1281 22.9454C25.5422 22.9454 21.8137 26.6739 21.8137 31.2598C21.8137 35.8457 25.5422 39.5742 30.1281 39.5742C31.7671 39.5742 33.2904 39.0917 34.5784 38.2702L56.2757 59.9675C47.2674 62.5117 40.5281 70.3755 39.5471 79.8423H16.4741C15.4453 76.4209 12.2671 73.9205 8.51461 73.9205C3.92872 73.9205 0.200195 77.6491 0.200195 82.235C0.200195 86.8209 3.92872 90.5494 8.51461 90.5494C12.2671 90.5494 15.4453 88.0491 16.4741 84.6276H39.5431C40.7434 96.2638 50.6051 105.368 62.5523 105.368H62.652V126.371H51.4425C50.4137 122.95 47.2355 120.449 43.483 120.449C38.8971 120.449 35.1686 124.178 35.1686 128.764C35.1686 133.35 38.8971 137.078 43.483 137.078C47.2355 137.078 50.4137 134.578 51.4425 131.156H65.0447C66.3646 131.156 67.4373 130.084 67.4373 128.764V105.368H78.2799V121.279C78.2799 122.599 79.3526 123.671 80.6726 123.671C81.9925 123.671 83.0652 122.599 83.0652 121.279V105.368H93.9118V126.726C90.4904 127.755 87.9901 130.933 87.9901 134.686C87.9901 139.271 91.7186 143 96.3045 143C100.89 143 104.619 139.271 104.619 134.686C104.619 130.933 102.119 127.755 98.6971 126.726V105.368H109.54V121.279C109.54 122.599 110.612 123.671 111.932 123.671C113.252 123.671 114.325 122.599 114.325 121.279V105.368H125.168V128.764C125.168 130.084 126.24 131.156 127.56 131.156H141.162C142.191 134.578 145.37 137.078 149.122 137.078C153.708 137.078 157.436 133.35 157.436 128.764C157.436 124.178 153.708 120.449 149.122 120.449C145.37 120.449 142.191 122.95 141.162 126.371H129.953V105.368H130.053C142 105.368 151.862 96.2638 153.062 84.6276H176.131C177.16 88.0491 180.338 90.5494 184.09 90.5494C188.676 90.5494 192.405 86.8209 192.405 82.235C192.409 77.6491 188.68 73.9205 184.094 73.9205ZM8.51461 85.7641C6.5686 85.7641 4.98547 84.181 4.98547 82.235C4.98547 80.289 6.5686 78.7058 8.51461 78.7058C10.4606 78.7058 12.0438 80.289 12.0438 82.235C12.0438 84.181 10.4606 85.7641 8.51461 85.7641ZM43.487 132.297C41.541 132.297 39.9579 130.714 39.9579 128.768C39.9579 126.822 41.541 125.239 43.487 125.239C45.433 125.239 47.0161 126.822 47.0161 128.768C47.0161 130.714 45.433 132.297 43.487 132.297ZM99.8336 134.69C99.8336 136.636 98.2505 138.219 96.3045 138.219C94.3585 138.219 92.7753 136.636 92.7753 134.69C92.7753 132.744 94.3585 131.16 96.3045 131.16C98.2505 131.16 99.8336 132.744 99.8336 134.69ZM149.122 125.239C151.068 125.239 152.651 126.822 152.651 128.768C152.651 130.714 151.068 132.297 149.122 132.297C147.176 132.297 145.593 130.714 145.593 128.768C145.593 126.822 147.176 125.239 149.122 125.239ZM160.977 28.7316C162.923 28.7316 164.507 30.3147 164.507 32.2607C164.507 34.2067 162.923 35.7899 160.977 35.7899C159.031 35.7899 157.448 34.2067 157.448 32.2607C157.448 30.3147 159.031 28.7316 160.977 28.7316ZM91.9818 8.3184C91.9818 6.37239 93.5649 4.78926 95.5109 4.78926C97.4569 4.78926 99.0401 6.37239 99.0401 8.3184C99.0401 10.2644 97.4569 11.8475 95.5109 11.8475C93.5649 11.8475 91.9818 10.2644 91.9818 8.3184ZM30.1241 34.789C28.1781 34.789 26.595 33.2058 26.595 31.2598C26.595 29.3138 28.1781 27.7307 30.1241 27.7307C32.0701 27.7307 33.6533 29.3138 33.6533 31.2598C33.6533 33.2058 32.0701 34.789 30.1241 34.789ZM130.057 100.583H129.957V77.1865C129.957 75.8666 128.884 74.7939 127.564 74.7939H119.533C118.504 71.3724 115.326 68.8721 111.574 68.8721C106.988 68.8721 103.259 72.6006 103.259 77.1865C103.259 81.7724 106.988 85.5009 111.574 85.5009C115.326 85.5009 118.504 83.0006 119.533 79.5791H125.172V100.583H67.4373V79.5791H73.076C74.1048 83.0006 77.283 85.5009 81.0355 85.5009C85.6214 85.5009 89.3499 81.7724 89.3499 77.1865C89.3499 72.6006 85.6214 68.8721 81.0355 68.8721C77.283 68.8721 74.1048 71.3724 73.076 74.7939H65.0447C63.7247 74.7939 62.652 75.8666 62.652 77.1865V100.583H62.5523C52.4355 100.583 44.2048 92.3518 44.2048 82.235C44.2048 72.5847 51.7496 64.5414 61.3799 63.9233C62.1137 63.8755 62.7876 63.4926 63.2023 62.8865C63.6171 62.2804 63.7327 61.5147 63.5094 60.8129C63.0073 59.2223 62.7531 57.5639 62.7557 55.896C62.7557 46.9037 70.0692 39.5902 79.0615 39.5902C85.0511 39.5902 90.5502 42.8641 93.4094 48.1399C93.7683 48.8018 94.4183 49.2564 95.168 49.3681C95.9137 49.4798 96.6674 49.2285 97.2017 48.6942C100.751 45.1571 105.464 43.211 110.477 43.211C120.626 43.211 129.064 51.4656 129.279 61.6064C129.292 62.1993 129.525 62.7662 129.933 63.1972C130.34 63.6282 130.893 63.8926 131.484 63.9393C140.971 64.681 148.404 72.7163 148.404 82.235C148.404 92.3518 140.174 100.583 130.057 100.583ZM115.103 77.1865C115.103 79.1325 113.52 80.7156 111.574 80.7156C109.627 80.7156 108.044 79.1325 108.044 77.1865C108.044 75.2405 109.627 73.6574 111.574 73.6574C113.52 73.6574 115.103 75.2405 115.103 77.1865ZM77.5063 77.1865C77.5063 75.2405 79.0895 73.6574 81.0355 73.6574C82.9815 73.6574 84.5646 75.2405 84.5646 77.1865C84.5646 79.1325 82.9815 80.7156 81.0355 80.7156C79.0895 80.7156 77.5063 79.1325 77.5063 77.1865ZM184.094 85.7641C182.148 85.7641 180.565 84.181 180.565 82.235C180.565 80.289 182.148 78.7058 184.094 78.7058C186.04 78.7058 187.623 80.289 187.623 82.235C187.623 84.181 186.04 85.7641 184.094 85.7641Z" fill="#006A4E"/>
</svg>
