<svg width="61" height="80" viewBox="0 0 61 80" fill="none" xmlns="http://www.w3.org/2000/svg">
<path d="M30.4693 23.2583C45.6101 23.2583 60.9386 19.2321 60.9386 11.5393C60.9386 -3.84644 0 -3.84644 0 11.5393C0 19.2321 15.3286 23.2583 30.4693 23.2583ZM60.8447 55.2964C60.8768 55.2818 60.9066 55.2647 60.9386 55.25V41.3422C43.1478 48.5433 19.0579 49.0853 0 41.3663V55.2025C0.0320318 55.2165 0.0618764 55.2354 0.0939083 55.2493C18.3477 63.3765 43.2421 63.0039 60.8447 55.2964Z" fill="#006A4E"/>
<path d="M30.4693 79.9997C45.6101 79.9997 60.9386 75.9735 60.9386 68.2807V60.2051C41.4326 68.0857 17.7142 67.4425 0 60.2726V68.2807C0 75.9737 15.3286 79.9997 30.4693 79.9997ZM60.8447 36.2489C60.8764 36.2362 60.9068 36.2194 60.9386 36.2069V20.5317C54.3098 25.8621 41.7405 27.9456 30.4693 27.9456C19.1982 27.9456 6.62887 25.8621 0 20.5317V36.2956C0.0320318 36.3097 0.0618764 36.3286 0.0939083 36.3425C17.8792 44.3069 43.1755 44.2925 60.8447 36.2489Z" fill="#93FFE2"/>
</svg>
