<svg width="85" height="80" viewBox="0 0 85 80" fill="none" xmlns="http://www.w3.org/2000/svg">
<rect x="5.36914" y="5.10645" width="74.8936" height="51.0638" fill="#93FFE2"/>
<path d="M10.042 66.0295H29.2515L27.5052 73.0148H19.8214C17.7258 73.0148 16.3288 74.4118 16.3288 76.5074C16.3288 78.2537 17.7258 80 19.8214 80H64.527C66.6226 80 68.0196 78.2537 68.0196 76.5074C68.0196 74.4118 66.6226 73.0148 64.527 73.0148H57.1925L55.4462 66.0295H74.6556C79.8945 66.0295 84.4349 61.4891 84.4349 56.2502V9.79825C84.4349 4.55932 79.8945 0.0189059 74.6556 0.0189059H10.042C4.80311 -0.330356 0.262695 4.21006 0.262695 9.44899V55.9009C0.262695 61.4891 4.45384 66.0295 10.042 66.0295ZM7.24794 9.44899C7.24794 8.05194 8.64499 6.65489 10.042 6.65489H74.3063C75.7034 6.65489 77.1004 8.05194 77.1004 9.44899V45.0738H7.24794V9.44899Z" fill="#006A4E"/>
<path d="M63.1268 32.5004C61.3805 32.5004 60.3327 31.4527 59.6341 30.4049C58.9356 29.0078 59.2849 27.6108 60.3327 26.563L60.6819 26.2137C62.079 24.8167 62.079 22.7211 60.6819 21.3241L58.2371 18.8792C56.84 17.4822 54.7445 17.4822 53.3474 18.8792L52.9982 19.2285C52.2996 20.6255 50.9026 20.6255 49.5055 20.2763H49.1563C47.7592 19.927 47.0607 18.53 47.0607 17.1329V16.7836C47.0607 15.0373 45.6636 13.291 43.5681 13.291H40.4247C38.6784 13.291 36.9321 14.6881 36.9321 16.7836V17.1329C36.9321 18.53 36.2336 19.927 34.8365 20.2763H34.4873C33.4395 20.6255 32.0424 20.6255 30.9946 19.5777V19.2285C29.5976 17.8314 27.502 17.8314 26.105 19.2285L23.6601 21.6733C22.2631 23.0704 22.2631 25.1659 23.6601 26.563L24.0094 26.9123C25.0572 27.6108 25.4064 29.0078 24.7079 30.4049C24.0094 31.8019 22.9616 32.5004 21.5645 32.5004H21.2153C19.469 32.5004 17.7227 33.8975 17.7227 35.9931V38.0886H31.6932V37.7394C31.6932 31.8019 36.2336 27.2615 42.171 27.2615C48.1085 27.2615 52.6489 31.8019 52.6489 37.7394V38.0886H66.6194V35.9931C66.6194 34.2468 64.8731 32.5004 63.1268 32.5004Z" fill="#006A4E"/>
</svg>
