<svg width="143" height="143" viewBox="0 0 143 143" fill="none" xmlns="http://www.w3.org/2000/svg">
<path d="M71.4985 24.5261C45.5988 24.5261 24.5261 45.5988 24.5261 71.4985C24.5261 97.3982 45.5988 118.471 71.4985 118.471C97.3982 118.471 118.471 97.4012 118.471 71.4985C118.471 45.5959 97.3982 24.5261 71.4985 24.5261ZM71.4985 114.911C47.5599 114.911 28.0862 95.4372 28.0862 71.4985C28.0862 47.5599 47.5599 28.0862 71.4985 28.0862C95.4342 28.0862 114.911 47.5599 114.911 71.4985C114.911 95.4342 95.4372 114.911 71.4985 114.911ZM142.997 59.326C142.997 58.4597 142.374 57.721 141.523 57.5726L129.899 55.5434C128.559 50.6303 126.601 45.9071 124.072 41.4869L130.86 31.8272C131.102 31.4847 131.214 31.0677 131.178 30.6502C131.142 30.2326 130.959 29.8414 130.661 29.5458L113.448 12.3357C113.152 12.0398 112.761 11.8577 112.344 11.8214C111.927 11.785 111.51 11.8968 111.167 12.1369L101.507 18.9249C97.0872 16.3953 92.364 14.4374 87.4507 13.0982L85.4214 1.47447C85.2731 0.623016 84.5314 0 83.6681 0H59.326C58.4597 0 57.721 0.623016 57.5726 1.47447L55.5434 13.0982C50.6304 14.4382 45.9072 16.396 41.4869 18.9249L31.8302 12.1369C31.4874 11.896 31.0706 11.7838 30.6532 11.8202C30.2358 11.8566 29.8447 12.0391 29.5488 12.3357L12.3357 29.5488C12.0398 29.8451 11.8577 30.2361 11.8214 30.6533C11.785 31.0705 11.8968 31.4872 12.1369 31.8302L18.9249 41.4869C16.3956 45.9073 14.4368 50.6304 13.0952 55.5434L1.47447 57.5726C0.623016 57.721 0 58.4626 0 59.326V83.6711C0 84.5374 0.623016 85.2761 1.47447 85.4244L13.0982 87.4537C14.4374 92.3669 16.3953 97.0902 18.9249 101.51L12.1369 111.17C11.8953 111.512 11.7827 111.929 11.8191 112.347C11.8555 112.764 12.0385 113.156 12.3357 113.451L29.5488 130.664C29.8451 130.96 30.2361 131.142 30.6533 131.179C31.0705 131.215 31.4872 131.103 31.8302 130.863L41.4899 124.075C45.9098 126.605 50.6331 128.563 55.5463 129.902L57.5756 141.526C57.7239 142.377 58.4656 143 59.3289 143H83.674C84.5403 143 85.279 142.377 85.4274 141.526L87.4566 129.902C92.3699 128.563 97.0932 126.605 101.513 124.075L111.17 130.863C111.513 131.104 111.929 131.216 112.347 131.18C112.764 131.143 113.155 130.961 113.451 130.664L130.664 113.451C130.96 113.155 131.142 112.764 131.179 112.347C131.215 111.929 131.103 111.513 130.863 111.17L124.075 101.513C126.605 97.0929 128.564 92.3698 129.905 87.4566L141.526 85.4274C142.377 85.279 143 84.5374 143 83.674V71.5015L142.997 59.326ZM139.437 82.1729L128.163 84.1398C127.825 84.1993 127.511 84.3552 127.259 84.5889C127.006 84.8225 126.827 85.124 126.742 85.457C125.391 90.8117 123.264 95.9401 120.429 100.679C120.252 100.975 120.165 101.315 120.178 101.659C120.19 102.002 120.302 102.335 120.5 102.617L127.083 111.986L111.986 127.083L102.617 120.5C102.335 120.302 102.002 120.19 101.659 120.178C101.315 120.165 100.975 120.252 100.679 120.429C95.9401 123.263 90.8117 125.389 85.457 126.739C84.7747 126.911 84.2585 127.466 84.1398 128.16L82.1729 139.434L71.4985 139.437H60.8242L58.8572 128.163C58.7977 127.825 58.6418 127.511 58.4082 127.259C58.1745 127.006 57.873 126.827 57.54 126.742C52.1853 125.392 47.0569 123.266 42.3176 120.432C42.0222 120.256 41.6822 120.169 41.3385 120.182C40.9948 120.194 40.6621 120.306 40.3803 120.503L31.0114 127.086L15.9136 111.989L22.4968 102.62C22.9003 102.044 22.93 101.285 22.568 100.682C19.7331 95.9433 17.6072 90.8148 16.2578 85.46C16.1742 85.1262 15.9954 84.824 15.7431 84.5901C15.4908 84.3562 15.1758 84.2008 14.8367 84.1428L3.56306 82.1758L3.56009 71.4985V60.8242L14.8337 58.8572C15.1722 58.7977 15.4864 58.6418 15.7385 58.4082C15.9906 58.1745 16.1698 57.873 16.2548 57.54C17.6047 52.188 19.7288 47.0674 22.568 42.3176C22.7447 42.0224 22.8321 41.6823 22.8194 41.3384C22.8068 40.9946 22.6947 40.6618 22.4968 40.3803L15.9136 31.0114L31.0114 15.9136L40.3803 22.4968C40.6618 22.6947 40.9946 22.8068 41.3384 22.8194C41.6823 22.8321 42.0224 22.7447 42.3176 22.568C47.0564 19.7326 52.185 17.6066 57.54 16.2578C58.2223 16.0857 58.7386 15.5309 58.8572 14.8367L60.8242 3.56306L71.4985 3.56009H82.1729L84.1398 14.8337C84.1993 15.1722 84.3552 15.4864 84.5889 15.7385C84.8225 15.9906 85.124 16.1698 85.457 16.2548C90.8061 17.6017 95.9267 19.7259 100.679 22.565C100.975 22.7411 101.315 22.828 101.659 22.8153C102.002 22.8027 102.335 22.6911 102.617 22.4938L111.986 15.9106L127.083 31.0084L120.5 40.3774C120.302 40.6588 120.19 40.9916 120.178 41.3355C120.165 41.6793 120.252 42.0194 120.429 42.3147C123.263 47.054 125.389 52.1824 126.739 57.537C126.911 58.2194 127.466 58.7356 128.16 58.8543L139.434 60.8212V71.4956L139.437 82.1729ZM96.9621 44.6584L92.3577 46.6046C91.0019 47.1772 90.3492 48.7258 90.8684 50.0905C87.2193 51.1763 83.7838 50.3605 80.4462 49.5713C76.9751 48.7495 73.6939 47.9722 70.6441 49.5209C70.5877 49.5505 70.5314 49.5832 70.475 49.6188C69.1103 50.5118 67.9592 51.3988 66.9653 52.2236C65.6481 51.6718 64.0223 51.8201 62.4381 51.9684C60.0825 52.188 57.4569 52.4283 54.8788 50.9598C55.4929 49.7019 55.0568 48.1562 53.8345 47.4204L49.5535 44.8364C49.246 44.6502 48.9047 44.5269 48.5493 44.4734C48.1939 44.4199 47.8314 44.4374 47.4827 44.5249C47.1339 44.6101 46.8054 44.7636 46.5162 44.9765C46.227 45.1893 45.9828 45.4573 45.7976 45.765L32.9427 67.0514C32.756 67.3586 32.6323 67.6999 32.5788 68.0554C32.5253 68.411 32.5431 68.7736 32.6312 69.1222C32.7165 69.471 32.87 69.7995 33.0828 70.0887C33.2956 70.3779 33.5636 70.6221 33.8713 70.8073L38.1523 73.3913C38.5944 73.6583 39.0809 73.7829 39.5615 73.7829C40.4871 73.7829 41.395 73.3112 41.9082 72.4627L42.5372 71.4184C44.3765 71.899 45.7027 72.7327 46.3939 73.3646L44.8542 75.1179C43.9019 76.2008 43.4272 77.5952 43.5221 79.0429C43.6171 80.4907 44.2638 81.8109 45.3496 82.7632C46.3761 83.6651 47.6518 84.1101 48.9216 84.1101C48.9928 84.1101 49.061 84.1012 49.1293 84.0983C49.3013 85.4007 49.9214 86.5814 50.9152 87.4507C51.9417 88.3526 53.2174 88.7976 54.4872 88.7976C54.5198 88.7976 54.5525 88.7946 54.5821 88.7917C54.7334 90.1356 55.3594 91.3579 56.38 92.2539C57.4065 93.1557 58.6822 93.6008 59.952 93.6008C59.9965 93.6008 60.038 93.5948 60.0825 93.5948C60.2338 94.8765 60.836 96.1077 61.8774 97.0244C62.8712 97.8996 64.1262 98.3683 65.4434 98.3683C66.5176 98.3704 67.568 98.0523 68.4606 97.4546C69.4633 98.1903 70.6293 98.5552 71.7804 98.5552C73.2845 98.5552 74.759 97.9411 75.8151 96.7396C76.4055 96.0661 76.7971 95.2859 76.9989 94.467C77.5277 94.5949 78.0728 94.6419 78.6157 94.6065C80.0635 94.5145 81.3837 93.8648 82.336 92.779C82.9383 92.0937 83.3358 91.2926 83.5316 90.456C83.9173 90.542 84.3089 90.5865 84.6976 90.5865C86.2017 90.5865 87.7029 89.9635 88.7709 88.7472C89.4325 87.9936 89.8419 87.1066 90.0169 86.1869C90.2721 86.2225 90.5272 86.2462 90.7823 86.2462C92.2865 86.2462 93.7877 85.6232 94.8557 84.4068C96.4014 82.6475 96.5942 80.1644 95.5262 78.2212C97.5228 77.0137 98.2615 75.8418 98.8756 74.8539C99.3088 74.1597 99.641 73.6316 100.593 73.1184C100.806 73.6069 101.157 74.0227 101.603 74.3146C102.049 74.6066 102.57 74.7621 103.103 74.7619C103.468 74.7623 103.83 74.6886 104.165 74.5454L108.77 72.5992C110.158 72.0118 110.811 70.4038 110.223 69.0154L100.54 46.1091C99.9585 44.7237 98.3505 44.071 96.9621 44.6584ZM39.2856 69.9172L36.4168 68.1847L48.4173 48.3104L51.2861 50.043L39.2856 69.9172ZM47.6993 80.0902C47.3285 79.7639 47.1089 79.3129 47.0763 78.8145C47.0436 78.3161 47.2068 77.8384 47.5302 77.4676L51.3959 73.0679C51.5703 72.8691 51.7852 72.7098 52.0262 72.6008C52.2672 72.4918 52.5287 72.4356 52.7932 72.436C53.2293 72.436 53.6654 72.5873 54.0185 72.8958C54.7869 73.5723 54.864 74.7501 54.1876 75.5184L50.4228 79.8054L50.3219 79.9181C49.6455 80.6895 48.4677 80.7666 47.6993 80.0902ZM53.2649 84.7777C52.8941 84.4543 52.6745 84.0004 52.6419 83.502C52.6093 83.0035 52.7695 82.5289 53.0928 82.158L56.8606 77.8711C56.8932 77.8325 56.9229 77.791 56.9555 77.7524L56.9615 77.7583C57.6379 76.99 58.8157 76.9128 59.5841 77.5892C60.3525 78.2657 60.4296 79.4435 59.7532 80.2118L58.5546 81.5765L55.8875 84.6115C55.2111 85.3799 54.0363 85.4541 53.2649 84.7777ZM58.7326 89.5808C58.3618 89.2545 58.1422 88.8035 58.1096 88.3051C58.077 87.8067 58.2401 87.3291 58.5635 86.9582L61.2306 83.9232C61.5565 83.5538 62.0154 83.3286 62.507 83.2969C62.9985 83.2652 63.4826 83.4296 63.8532 83.7541C64.2241 84.0805 64.4436 84.5314 64.4762 85.0298C64.5089 85.5282 64.3457 86.0059 64.0223 86.3767L61.8002 88.9044L61.7973 88.9074L61.5154 89.2307L61.3582 89.4117C60.6788 90.1831 59.501 90.2572 58.7326 89.5808ZM65.5769 94.8023C65.0785 94.8379 64.6008 94.6747 64.23 94.3484C63.4616 93.672 63.3845 92.4942 64.0609 91.7258L64.0846 91.6991L64.4703 91.26C64.6449 91.0623 64.8595 90.904 65.0999 90.7956C65.3403 90.6872 65.601 90.6311 65.8647 90.631C66.3008 90.631 66.7369 90.7823 67.0899 91.0939C67.8583 91.7703 67.9355 92.9481 67.259 93.7165L66.8496 94.1852C66.6886 94.3669 66.4933 94.515 66.2749 94.6209C66.0565 94.7268 65.8192 94.7884 65.5769 94.8023ZM73.1451 94.3899C72.5665 95.0485 71.5935 95.1731 70.7954 94.7341C71.1765 93.8917 71.3365 92.966 71.2602 92.0445C71.1839 91.1231 70.8738 90.2363 70.3593 89.4681L72.976 91.7673L72.9789 91.7703C73.7443 92.4467 73.8185 93.6215 73.1451 94.3899ZM92.1856 82.0601C91.5092 82.8285 90.3314 82.9056 89.563 82.2292L88.2843 81.1078L88.2814 81.1048C88.2814 81.1048 88.2784 81.1048 88.2784 81.1019L79.3604 73.2637C78.6217 72.614 77.4973 72.6882 76.8476 73.4269C76.1978 74.1656 76.272 75.29 77.0107 75.9397L85.9347 83.7808C86.7031 84.4572 86.7772 85.6321 86.1008 86.4005C85.4244 87.1689 84.2496 87.246 83.4782 86.5696L74.2724 78.4793C73.5337 77.8295 72.4093 77.9037 71.7596 78.6424C71.1099 79.3811 71.184 80.5055 71.9228 81.1553L79.5087 87.8215C80.2652 88.498 80.3335 89.6698 79.663 90.4323C79.5021 90.6154 79.3066 90.7647 79.0876 90.8716C78.8686 90.9786 78.6306 91.041 78.3873 91.0553C77.8889 91.085 77.4112 90.9248 77.0404 90.6014L72.2343 86.3767C71.9321 86.1114 71.5491 85.9562 71.1475 85.9364C70.7459 85.9166 70.3495 86.0333 70.0227 86.2676C69.6959 86.5018 69.458 86.8398 69.3478 87.2265C69.2377 87.6132 69.2616 88.0258 69.4159 88.3971C68.8785 87.9276 68.2533 87.5697 67.5765 87.3439C68.508 85.2375 68.0185 82.6802 66.1999 81.0811C65.4642 80.4343 64.5979 80.0279 63.6989 79.8469C63.9838 78.0699 63.3845 76.1889 61.9337 74.9132C60.8509 73.9609 59.4921 73.5248 58.1541 73.5752C57.988 72.3233 57.3887 71.1217 56.3681 70.2228C54.1312 68.2559 50.7165 68.4724 48.7406 70.6945C47.6993 69.7452 46.2248 68.867 44.4388 68.2677L53.0483 54.0125C55.3802 55.3565 57.7299 55.6858 59.7769 55.6858C60.8776 55.6858 61.8922 55.5908 62.7704 55.5107C62.8772 55.5018 62.9958 55.49 63.1145 55.4781C59.1836 58.6258 59.7057 62.1028 60.13 64.9094C60.4355 66.9357 60.6996 68.6831 59.5514 70.472C59.2548 70.9319 59.1865 71.5044 59.3675 72.0236C59.5485 72.5428 59.9579 72.9463 60.4771 73.1213C62.6606 73.86 65.12 73.3498 67.2294 71.727C69.5909 69.9083 71.006 67.0988 70.834 64.5652C70.7865 63.8473 71.2196 62.6754 71.7952 62.3372C71.8901 62.2808 72.1304 62.1384 72.7386 62.5004L92.0135 79.4375C92.1973 79.5983 92.3475 79.7937 92.4556 80.0126C92.5637 80.2315 92.6275 80.4695 92.6435 80.7131C92.6595 80.9567 92.6273 81.2011 92.5487 81.4322C92.4701 81.6634 92.3468 81.8767 92.1856 82.0601ZM95.8614 72.973C95.3096 73.8571 94.8171 74.6403 93.0015 75.563L74.9815 59.7294C74.9132 59.6701 74.842 59.6167 74.7679 59.5692C72.5665 58.1571 70.828 58.7771 69.9884 59.2755C68.066 60.4118 67.1611 62.9721 67.2857 64.8085C67.3747 66.1465 66.461 67.8316 65.0607 68.9115C64.7937 69.1192 64.3101 69.4455 63.7138 69.668C64.1618 67.7456 63.8859 65.9359 63.6515 64.3843C63.2569 61.7676 62.9958 60.038 65.5265 58.1155C66.1821 57.6201 66.8526 57.0297 67.5616 56.4097C68.864 55.2675 70.3385 53.9769 72.3351 52.6627C74.2131 51.7608 76.7259 52.3541 79.6244 53.0424C83.1934 53.8879 87.5397 54.9174 92.2539 53.3925L99.2079 69.8401C97.3834 70.739 96.609 71.7715 95.8614 72.973ZM103.542 70.9497L94.5026 49.5654L97.5881 48.26L106.628 69.6443L103.542 70.9497Z" fill="#006A4E"/>
</svg>
