<svg width="80" height="80" viewBox="0 0 80 80" fill="none" xmlns="http://www.w3.org/2000/svg">
<rect x="5.10645" y="20.4253" width="68.0851" height="49.3617" fill="#93FFE2"/>
<path d="M71.4286 11.4286H67.1429V2.85714C67.1429 2.09938 66.8418 1.37266 66.306 0.836838C65.7702 0.301019 65.0435 0 64.2857 0C63.528 0 62.8012 0.301019 62.2654 0.836838C61.7296 1.37266 61.4286 2.09938 61.4286 2.85714V11.4286H18.5714V2.85714C18.5714 2.09938 18.2704 1.37266 17.7346 0.836838C17.1988 0.301019 16.472 0 15.7143 0C14.9565 0 14.2298 0.301019 13.694 0.836838C13.1582 1.37266 12.8571 2.09938 12.8571 2.85714V11.4286H8.57143C3.84571 11.4286 0 15.2743 0 20V71.4286C0 76.1543 3.84571 80 8.57143 80H71.4286C76.1543 80 80 76.1543 80 71.4286V20C80 15.2743 76.1543 11.4286 71.4286 11.4286ZM24.2857 65.7143H12.8571C12.0994 65.7143 11.3727 65.4133 10.8368 64.8775C10.301 64.3416 10 63.6149 10 62.8571C10 62.0994 10.301 61.3727 10.8368 60.8368C11.3727 60.301 12.0994 60 12.8571 60H24.2857C25.0435 60 25.7702 60.301 26.306 60.8368C26.8418 61.3727 27.1429 62.0994 27.1429 62.8571C27.1429 63.6149 26.8418 64.3416 26.306 64.8775C25.7702 65.4133 25.0435 65.7143 24.2857 65.7143ZM24.2857 48.5714H12.8571C12.0994 48.5714 11.3727 48.2704 10.8368 47.7346C10.301 47.1988 10 46.472 10 45.7143C10 44.9565 10.301 44.2298 10.8368 43.694C11.3727 43.1582 12.0994 42.8571 12.8571 42.8571H24.2857C25.0435 42.8571 25.7702 43.1582 26.306 43.694C26.8418 44.2298 27.1429 44.9565 27.1429 45.7143C27.1429 46.472 26.8418 47.1988 26.306 47.7346C25.7702 48.2704 25.0435 48.5714 24.2857 48.5714ZM24.2857 31.4286H12.8571C12.0994 31.4286 11.3727 31.1276 10.8368 30.5917C10.301 30.0559 10 29.3292 10 28.5714C10 27.8137 10.301 27.0869 10.8368 26.5511C11.3727 26.0153 12.0994 25.7143 12.8571 25.7143H24.2857C25.0435 25.7143 25.7702 26.0153 26.306 26.5511C26.8418 27.0869 27.1429 27.8137 27.1429 28.5714C27.1429 29.3292 26.8418 30.0559 26.306 30.5917C25.7702 31.1276 25.0435 31.4286 24.2857 31.4286ZM45.7143 65.7143H34.2857C33.528 65.7143 32.8012 65.4133 32.2654 64.8775C31.7296 64.3416 31.4286 63.6149 31.4286 62.8571C31.4286 62.0994 31.7296 61.3727 32.2654 60.8368C32.8012 60.301 33.528 60 34.2857 60H45.7143C46.472 60 47.1988 60.301 47.7346 60.8368C48.2704 61.3727 48.5714 62.0994 48.5714 62.8571C48.5714 63.6149 48.2704 64.3416 47.7346 64.8775C47.1988 65.4133 46.472 65.7143 45.7143 65.7143ZM45.7143 48.5714H34.2857C33.528 48.5714 32.8012 48.2704 32.2654 47.7346C31.7296 47.1988 31.4286 46.472 31.4286 45.7143C31.4286 44.9565 31.7296 44.2298 32.2654 43.694C32.8012 43.1582 33.528 42.8571 34.2857 42.8571H45.7143C46.472 42.8571 47.1988 43.1582 47.7346 43.694C48.2704 44.2298 48.5714 44.9565 48.5714 45.7143C48.5714 46.472 48.2704 47.1988 47.7346 47.7346C47.1988 48.2704 46.472 48.5714 45.7143 48.5714ZM45.7143 31.4286H34.2857C33.528 31.4286 32.8012 31.1276 32.2654 30.5917C31.7296 30.0559 31.4286 29.3292 31.4286 28.5714C31.4286 27.8137 31.7296 27.0869 32.2654 26.5511C32.8012 26.0153 33.528 25.7143 34.2857 25.7143H45.7143C46.472 25.7143 47.1988 26.0153 47.7346 26.5511C48.2704 27.0869 48.5714 27.8137 48.5714 28.5714C48.5714 29.3292 48.2704 30.0559 47.7346 30.5917C47.1988 31.1276 46.472 31.4286 45.7143 31.4286ZM67.1429 65.7143H55.7143C54.9565 65.7143 54.2298 65.4133 53.694 64.8775C53.1582 64.3416 52.8571 63.6149 52.8571 62.8571C52.8571 62.0994 53.1582 61.3727 53.694 60.8368C54.2298 60.301 54.9565 60 55.7143 60H67.1429C67.9006 60 68.6274 60.301 69.1632 60.8368C69.699 61.3727 70 62.0994 70 62.8571C70 63.6149 69.699 64.3416 69.1632 64.8775C68.6274 65.4133 67.9006 65.7143 67.1429 65.7143ZM67.1429 48.5714H55.7143C54.9565 48.5714 54.2298 48.2704 53.694 47.7346C53.1582 47.1988 52.8571 46.472 52.8571 45.7143C52.8571 44.9565 53.1582 44.2298 53.694 43.694C54.2298 43.1582 54.9565 42.8571 55.7143 42.8571H67.1429C67.9006 42.8571 68.6274 43.1582 69.1632 43.694C69.699 44.2298 70 44.9565 70 45.7143C70 46.472 69.699 47.1988 69.1632 47.7346C68.6274 48.2704 67.9006 48.5714 67.1429 48.5714ZM67.1429 31.4286H55.7143C54.9565 31.4286 54.2298 31.1276 53.694 30.5917C53.1582 30.0559 52.8571 29.3292 52.8571 28.5714C52.8571 27.8137 53.1582 27.0869 53.694 26.5511C54.2298 26.0153 54.9565 25.7143 55.7143 25.7143H67.1429C67.9006 25.7143 68.6274 26.0153 69.1632 26.5511C69.699 27.0869 70 27.8137 70 28.5714C70 29.3292 69.699 30.0559 69.1632 30.5917C68.6274 31.1276 67.9006 31.4286 67.1429 31.4286Z" fill="#006A4E"/>
</svg>
