<svg width="69" height="80" viewBox="0 0 69 80" fill="none" xmlns="http://www.w3.org/2000/svg">
<rect x="13.7217" y="8.57617" width="49.7427" height="24.0137" fill="#93FFE2"/>
<path d="M62.1512 0H14.8426C13.1216 0.009863 11.4738 0.697923 10.2569 1.91491C9.03987 3.1319 8.35181 4.77965 8.34194 6.5007V15.0305H1.39032C1.0561 15.0853 0.75222 15.2571 0.53295 15.5152C0.31368 15.7733 0.193297 16.101 0.193297 16.4396C0.193297 16.7783 0.31368 17.106 0.53295 17.3641C0.75222 17.6222 1.0561 17.794 1.39032 17.8488H8.34194V30.775H1.39032C1.02159 30.775 0.667952 30.9215 0.407216 31.1822C0.14648 31.443 8.57449e-08 31.7966 8.57449e-08 32.1653C-0.000128842 32.5376 0.145141 32.8952 0.404851 33.162C0.66456 33.4287 1.01817 33.5834 1.39032 33.5932H8.34194V46.4819H1.39032C1.01817 46.4917 0.66456 46.6465 0.404851 46.9132C0.145141 47.1799 -0.000128842 47.5375 8.57449e-08 47.9098C8.57449e-08 48.2785 0.14648 48.6322 0.407216 48.8929C0.667952 49.1537 1.02159 49.3001 1.39032 49.3001H8.34194V62.2264H1.39032C1.0561 62.2812 0.75222 62.4529 0.53295 62.7111C0.31368 62.9692 0.193297 63.2968 0.193297 63.6355C0.193297 63.9742 0.31368 64.3018 0.53295 64.56C0.75222 64.8181 1.0561 64.9899 1.39032 65.0446H8.34194V73.5745C8.37137 75.2824 9.06805 76.911 10.2829 78.1119C11.4978 79.3127 13.1345 79.9904 14.8426 80H62.1512C63.8753 80 65.5288 79.3151 66.7479 78.096C67.9671 76.8769 68.6519 75.2234 68.6519 73.4993V6.5007C68.6519 4.77661 67.9671 3.12313 66.7479 1.90401C65.5288 0.684894 63.8753 0 62.1512 0ZM58.3936 25.7022C58.3986 25.8879 58.3664 26.0728 58.2988 26.2458C58.2311 26.4189 58.1295 26.5766 57.9999 26.7097C57.8703 26.8428 57.7153 26.9486 57.5442 27.0208C57.373 27.093 57.1891 27.1302 57.0033 27.1301H19.953C19.5743 27.1301 19.2111 26.9797 18.9434 26.7119C18.6756 26.4441 18.5251 26.0809 18.5251 25.7022V14.0535C18.5251 13.6748 18.6756 13.3116 18.9434 13.0439C19.2111 12.7761 19.5743 12.6256 19.953 12.6256H57.0784C57.2642 12.6256 57.4481 12.6627 57.6193 12.735C57.7905 12.8072 57.9455 12.9129 58.0751 13.0461C58.2047 13.1792 58.3063 13.3369 58.3739 13.5099C58.4415 13.683 58.4738 13.8678 58.4688 14.0535L58.3936 25.7022Z" fill="#006A4E"/>
<path d="M21.3438 15.4434H55.6509V24.3114H21.3438V15.4434Z" fill="#006A4E"/>
</svg>
