<svg width="80" height="80" viewBox="0 0 80 80" fill="none" xmlns="http://www.w3.org/2000/svg">
<circle cx="40.0001" cy="40.0001" r="34.8936" fill="#93FFE2"/>
<path d="M40 0C17.9094 0 0 17.9094 0 40C0 62.0906 17.9094 80 40 80C62.0906 80 80 62.0922 80 40C80 17.9078 62.0906 0 40 0ZM30.9531 29.8047C32.3992 29.8047 33.8127 30.2335 35.015 31.0369C36.2173 31.8403 37.1544 32.9822 37.7077 34.3182C38.261 35.6542 38.4057 37.1243 38.1235 38.5425C37.8412 39.9607 37.1448 41.2634 36.1222 42.2858C35.0996 43.3082 33.7967 44.0044 32.3785 44.2863C30.9602 44.5682 29.4901 44.4232 28.1543 43.8696C26.8184 43.316 25.6767 42.3787 24.8735 41.1762C24.0704 39.9737 23.6419 38.5601 23.6422 37.1141C23.6447 35.176 24.4158 33.318 25.7863 31.9477C27.1569 30.5775 29.015 29.8068 30.9531 29.8047ZM42.8953 62.6734C42.2897 62.673 41.7091 62.4322 41.281 62.0038C40.853 61.5754 40.6125 60.9946 40.6125 60.3891C40.6125 57.8272 39.5948 55.3703 37.7833 53.5589C35.9719 51.7474 33.515 50.7297 30.9531 50.7297C28.3913 50.7297 25.9344 51.7474 24.1229 53.5589C22.3114 55.3703 21.2937 57.8272 21.2937 60.3891C21.3017 60.694 21.2486 60.9974 21.1374 61.2814C21.0262 61.5655 20.8593 61.8244 20.6464 62.0428C20.4336 62.2613 20.1792 62.435 19.8981 62.5535C19.6171 62.6721 19.3152 62.7332 19.0102 62.7332C18.7051 62.7332 18.4032 62.6721 18.1222 62.5535C17.8412 62.435 17.5867 62.2613 17.3739 62.0428C17.161 61.8244 16.9941 61.5655 16.8829 61.2814C16.7718 60.9974 16.7186 60.694 16.7266 60.3891C16.7266 56.6161 18.2253 52.9978 20.8932 50.3299C23.561 47.6621 27.1794 46.1633 30.9523 46.1633C34.7253 46.1633 38.3436 47.6621 41.0115 50.3299C43.6793 52.9978 45.1781 56.6161 45.1781 60.3891C45.1781 60.9946 44.9377 61.5754 44.5096 62.0038C44.0815 62.4322 43.5009 62.673 42.8953 62.6734ZM59.8313 38.2141H60.9891C61.292 38.2138 61.5919 38.2739 61.8713 38.3908C62.1507 38.5077 62.4041 38.679 62.6166 38.8949C62.8291 39.1107 62.9965 39.3667 63.109 39.6479C63.2215 39.9292 63.2769 40.23 63.2719 40.5328L63.1547 48.125C63.1453 48.7243 62.9006 49.296 62.4736 49.7166C62.0465 50.1372 61.4713 50.3731 60.8719 50.3734H58.3938C54.0403 50.3311 49.8796 48.572 46.8161 45.4786C43.7526 42.3852 42.0341 38.2075 42.0341 33.8539C42.0341 29.5003 43.7526 25.3226 46.8161 22.2292C49.8796 19.1358 54.0403 17.3767 58.3938 17.3344H60.8719C61.4713 17.3347 62.0465 17.5706 62.4736 17.9912C62.9006 18.4119 63.1453 18.9835 63.1547 19.5828L63.2719 27.1672C63.2769 27.47 63.2215 27.7708 63.109 28.0521C62.9965 28.3333 62.8291 28.5893 62.6166 28.8051C62.4041 29.021 62.1507 29.1923 61.8713 29.3092C61.5919 29.4261 61.292 29.4862 60.9891 29.4859H59.8313C58.7156 29.5493 57.6666 30.037 56.8991 30.8493C56.1317 31.6615 55.7042 32.7365 55.7042 33.8539C55.7042 34.9713 56.1317 36.0464 56.8991 36.8586C57.6666 37.6708 58.7156 38.1585 59.8313 38.2219V38.2141Z" fill="#006A4E"/>
<path d="M58.6725 24.9863L58.624 21.8926H58.3943C55.2242 21.8926 52.1838 23.1519 49.9422 25.3936C47.7006 27.6352 46.4412 30.6755 46.4412 33.8457C46.4412 37.0159 47.7006 40.0562 49.9422 42.2978C52.1838 44.5395 55.2242 45.7988 58.3943 45.7988H58.624L58.6725 42.7066C56.5212 42.4261 54.5455 41.3725 53.1141 39.7423C51.6827 38.1121 50.8933 36.0167 50.8933 33.8473C50.8933 31.6778 51.6827 29.5825 53.1141 27.9523C54.5455 26.3221 56.5212 25.2684 58.6725 24.9879V24.9863ZM30.9537 39.8566C31.4964 39.8566 32.0269 39.6957 32.4781 39.3942C32.9293 39.0927 33.2809 38.6642 33.4886 38.1629C33.6963 37.6615 33.7506 37.1098 33.6447 36.5776C33.5389 36.0454 33.2776 35.5565 32.8938 35.1728C32.5101 34.789 32.0212 34.5277 31.489 34.4219C30.9568 34.316 30.4051 34.3703 29.9037 34.578C29.4024 34.7857 28.9739 35.1373 28.6724 35.5885C28.3709 36.0398 28.21 36.5702 28.21 37.1129C28.2108 37.8403 28.5001 38.5377 29.0145 39.0521C29.5289 39.5665 30.2263 39.8558 30.9537 39.8566Z" fill="#006A4E"/>
</svg>
