<svg width="76" height="80" viewBox="0 0 76 80" fill="none" xmlns="http://www.w3.org/2000/svg">
<path d="M57.3301 44.8647C53.2978 44.8647 50.0173 48.1451 50.0173 52.1773C50.0173 56.2096 53.2977 59.4901 57.3301 59.4901H75.0703V44.8647H57.3301ZM54.8925 54.6147V49.7399H59.7676V54.6147H54.8925ZM0 24.3549H75.0705V39.9901H0V24.3549ZM0 64.3649H75.0705V80H0V64.3649ZM12.1874 4.87476V0H0V12.1875H4.87476V8.3217L16.619 20.066L20.066 16.619L8.3217 4.87476H12.1874Z" fill="#006A4E"/>
<path d="M45.1427 51.9104C45.1427 49.1689 46.0527 46.6361 47.5863 44.5977H0V59.2231H47.5861C46.0525 57.1848 45.1427 54.6518 45.1427 51.9104Z" fill="#93FFE2"/>
</svg>
