<svg width="114" height="80" viewBox="0 0 114 80" fill="none" xmlns="http://www.w3.org/2000/svg">
<path d="M66.3123 16.8428H105.933C107.905 16.8369 109.845 17.3294 111.575 18.2744V6.31648C111.575 5.19978 111.132 4.12882 110.342 3.33919C109.553 2.54957 108.482 2.10596 107.365 2.10596H48.9229L61.765 14.9481C62.9699 16.1572 64.6054 16.8386 66.3123 16.8428Z" fill="#93FFE2"/>
<path d="M105.937 21.0526H66.3158C64.9225 21.0551 63.5426 20.781 62.256 20.2462C60.9695 19.7113 59.8019 18.9264 58.8211 17.9368L45.2211 4.33684C42.4378 1.56099 38.6677 0.00149443 34.7368 0H7.74737C5.69537 0.00886405 3.72994 0.827948 2.27895 2.27894C0.827949 3.72994 0.00886405 5.69537 0 7.74737V72.2526C0.00886405 74.3046 0.827949 76.2701 2.27895 77.7211C3.72994 79.1721 5.69537 79.9911 7.74737 80H105.937C107.989 79.9911 109.954 79.1721 111.405 77.7211C112.856 76.2701 113.675 74.3046 113.684 72.2526V28.8C113.675 26.748 112.856 24.7826 111.405 23.3316C109.954 21.8806 107.989 21.0615 105.937 21.0526Z" fill="#006A4E"/>
</svg>
