<svg width="113" height="80" viewBox="0 0 113 80" fill="none" xmlns="http://www.w3.org/2000/svg">
<rect x="23.8301" y="22.1274" width="62.9787" height="37.4468" fill="#93FFE2"/>
<path d="M4.46437 0.215218C21.7214 6.74327 38.9512 10.0022 56.1702 10.0022C73.3892 10.0022 90.619 6.74327 107.876 0.215218C110.036 -0.601864 112.34 1.00892 112.34 3.33614V76.6639C112.34 78.9911 110.036 80.6019 107.876 79.7848C90.619 73.2567 73.3892 69.9978 56.1702 69.9978C38.9512 69.9978 21.7214 73.2567 4.46437 79.7848C2.30423 80.6019 0 78.9911 0 76.6639V3.33614C0 1.00892 2.30423 -0.601864 4.46437 0.215218ZM46.2577 28.3342C45.6872 28.3342 45.1263 28.4833 44.6298 28.7669C44.1333 29.0505 43.718 29.4589 43.4245 29.9525L33.5122 46.6179C32.1908 48.8395 33.7772 51.666 36.3454 51.666H75.995C78.5633 51.666 80.1497 48.8397 78.8283 46.6179L68.916 29.9525C68.6224 29.4589 68.2072 29.0505 67.7106 28.7669C67.2141 28.4833 66.6533 28.3342 66.0827 28.3342H46.2577ZM48.1286 35.0003H64.2118L70.1591 44.9995H42.1811L48.1286 35.0003Z" fill="#006A4E"/>
</svg>
