<svg width="80" height="80" viewBox="0 0 80 80" fill="none" xmlns="http://www.w3.org/2000/svg">
<circle cx="40" cy="39.9995" r="40" fill="#93FFE2"/>
<path d="M42.3574 11.7983C46.35 12.3719 49.4287 15.8153 49.4287 19.9642C49.4287 24.1132 46.35 27.5564 42.3574 28.1301V37.6424H56.5V41.1781C56.5 43.1275 58.0861 44.7137 60.0356 44.7137C61.9851 44.7137 63.5712 43.1275 63.5712 41.1781V37.6424H80.0003C78.8331 17.3875 62.6303 1.16784 42.3574 -0.000488281V11.7983Z" fill="#006A4E"/>
<path d="M11.7988 37.6424C12.3724 33.6498 15.8158 30.5711 19.9647 30.5711C24.1137 30.5711 27.5569 33.6498 28.1306 37.6424H37.6429V23.4999H41.1785C43.128 23.4999 44.7142 21.9137 44.7142 19.9642C44.7142 18.0148 43.128 16.4286 41.1785 16.4286H37.6429V-0.000488281C17.3872 1.16674 1.16833 17.3702 0 37.6424H11.7988Z" fill="#006A4E"/>
<path d="M37.6429 68.201C33.6502 67.6275 30.5716 64.1839 30.5716 60.0351C30.5716 55.8863 33.6502 52.4429 37.6429 51.8692V42.3569H23.5004V38.8213C23.5004 36.8718 21.9144 35.2856 19.9647 35.2856C18.0151 35.2856 16.4291 36.8718 16.4291 38.8213V42.3569H0C1.16723 62.612 17.37 78.8315 37.6429 79.9998V68.201Z" fill="#006A4E"/>
<path d="M68.2015 42.3564C67.6279 46.349 64.1844 49.4277 60.0356 49.4277C55.8868 49.4277 52.4434 46.349 51.8697 42.3564H42.3574V56.499H38.8218C36.8721 56.499 35.2861 58.0852 35.2861 60.0346C35.2861 61.9841 36.8721 63.5703 38.8218 63.5703H42.3574V79.9994C62.6124 78.8321 78.832 62.6292 80.0003 42.3564H68.2015Z" fill="#006A4E"/>
</svg>
