<svg width="80" height="80" viewBox="0 0 80 80" fill="none" xmlns="http://www.w3.org/2000/svg">
<path fill-rule="evenodd" clip-rule="evenodd" d="M41.8023 26.0067C38.13 26.0053 34.5718 27.282 31.7381 29.6177C28.9044 31.9535 26.9719 35.2025 26.2722 38.8075C25.5725 42.4125 26.1493 46.1486 27.9034 49.3747C29.6576 52.6009 32.4799 55.116 35.886 56.4885C36.5724 56.7663 37.1202 57.3054 37.4091 57.9871C37.698 58.6689 37.7043 59.4375 37.4265 60.1239C37.1487 60.8102 36.6096 61.3581 35.9278 61.647C35.2461 61.9359 34.4775 61.9421 33.7911 61.6643C29.1908 59.8003 25.3814 56.3954 23.0149 52.0322C20.6485 47.6691 19.872 42.6191 20.8186 37.7466C21.7651 32.8741 24.3758 28.4821 28.2037 25.3223C32.0316 22.1625 36.8387 20.4314 41.8023 20.4253C46.0669 20.4253 50.2344 21.6994 53.77 24.0841C57.3056 26.4688 60.0482 29.8554 61.646 33.8095C61.7964 34.1514 61.8767 34.5201 61.882 34.8936C61.8873 35.2672 61.8175 35.638 61.6769 35.9841C61.5362 36.3301 61.3275 36.6445 61.0631 36.9084C60.7987 37.1723 60.484 37.3805 60.1376 37.5205C59.7913 37.6605 59.4203 37.7296 59.0468 37.7236C58.6733 37.7176 58.3047 37.6367 57.9631 37.4856C57.6214 37.3345 57.3135 37.1164 57.0577 36.8442C56.8019 36.5719 56.6034 36.251 56.4739 35.9006C55.2926 32.9773 53.2648 30.4735 50.6507 28.7106C48.0365 26.9478 44.9553 26.0062 41.8023 26.0067Z" fill="#93FFE2"/>
<path fill-rule="evenodd" clip-rule="evenodd" d="M5.58139 40C5.5429 30.8716 9.13222 22.1018 15.5597 15.6199C21.9873 9.1379 30.7265 5.47476 39.8548 5.43627C48.9832 5.39779 57.753 8.98711 64.2349 15.4146C70.7169 21.8421 74.38 30.5814 74.4185 39.7097C74.4217 40.0762 74.497 40.4385 74.6402 40.7758C74.7834 41.1132 74.9916 41.4191 75.253 41.676C75.5144 41.9329 75.8238 42.1357 76.1636 42.2731C76.5034 42.4104 76.8669 42.4794 77.2334 42.4762C77.5999 42.4731 77.9621 42.3977 78.2995 42.2545C78.6369 42.1114 78.9427 41.9031 79.1996 41.6418C79.4565 41.3804 79.6594 41.0709 79.7967 40.7311C79.934 40.3913 80.0031 40.0278 79.9999 39.6614C79.8139 17.7265 61.9795 0 39.9999 0C17.9088 0 0 17.9088 0 40C0 61.9795 17.7265 79.8139 39.6651 79.9999C40.4052 80.0058 41.1174 79.7175 41.6449 79.1983C42.1725 78.6792 42.4722 77.9717 42.4781 77.2315C42.484 76.4914 42.1957 75.7792 41.6765 75.2517C41.1573 74.7241 40.4499 74.4244 39.7097 74.4185C30.6317 74.342 21.9516 70.682 15.5595 64.2355C9.16743 57.7891 5.58107 49.0783 5.58139 40ZM49.9348 74.4595L40.212 45.2986C39.9752 44.5904 39.9404 43.8303 40.1115 43.1034C40.2826 42.3766 40.6528 41.7118 41.1806 41.1836C41.7084 40.6554 42.3729 40.2847 43.0996 40.1131C43.8263 39.9415 44.5865 39.9758 45.2948 40.2121L74.4594 49.9348C78.1245 51.1553 78.1245 56.3385 74.4594 57.5627L63.6911 61.1497C63.0993 61.347 62.5615 61.6793 62.1204 62.1205C61.6793 62.5616 61.347 63.0993 61.1497 63.6911L57.559 74.4595C56.3385 78.1246 51.159 78.1246 49.9311 74.4595H49.9348Z" fill="#006A4E"/>
</svg>
