<svg width="80" height="80" viewBox="0 0 80 80" fill="none" xmlns="http://www.w3.org/2000/svg">
<path d="M0 58.1818H21.8182V80H10.9091C8.01582 80 5.24105 78.8507 3.1952 76.8048C1.14935 74.759 0 71.9842 0 69.0909V58.1818ZM29.0909 80H69.0909C71.9842 80 74.759 78.8507 76.8048 76.8048C78.8507 74.759 80 71.9842 80 69.0909V58.1818H29.0909V80ZM0 10.9091V21.8182H21.8182V0H10.9091C8.01582 0 5.24105 1.14935 3.1952 3.1952C1.14935 5.24105 0 8.01582 0 10.9091ZM69.0909 0H29.0909V21.8182H80V10.9091C80 8.01582 78.8507 5.24105 76.8048 3.1952C74.759 1.14935 71.9842 0 69.0909 0Z" fill="#006A4E"/>
<path d="M29.0909 50.7542H80V28.936H29.0909V50.7542ZM0 50.7542H21.8182V28.936H0V50.7542Z" fill="#93FFE2"/>
</svg>
