<svg width="1433" height="302" viewBox="0 0 1433 302" fill="none" xmlns="http://www.w3.org/2000/svg">
<g clip-path="url(#clip0_142_4876)">
<path d="M136.743 0V40.9714C88.4862 62.1909 26.6812 115.617 -5 164.934V0H136.743Z" fill="#DFF5FE"/>
<path d="M10.5264 301.939C30.5532 229.053 76.2867 164.598 140.869 121.53L140.911 121.572C188.032 91.8816 241.886 74.6459 297.296 71.333V203.473C234.692 211.105 185.298 249.183 159.844 301.939H10.5264Z" fill="#DFF5FE"/>
<path d="M676.127 166.142C590.532 153.517 529.977 84.8956 520.761 0H373.139V302H519.499V250.702C565.957 279.979 618.685 297.47 673.139 302H676.127V166.142Z" fill="#DFF5FE"/>
<path d="M893.722 0V40.9714C845.464 62.1909 783.66 115.617 751.979 164.934V0H893.722Z" fill="#DFF5FE"/>
<path d="M897.848 121.53C833.266 164.598 787.532 229.053 767.505 301.939H916.823C942.277 249.183 991.671 211.105 1054.28 203.473V71.333C998.865 74.6459 945.011 91.8816 897.89 121.572L897.848 121.53Z" fill="#DFF5FE"/>
<path d="M1277.63 0C1286.85 84.8956 1347.4 153.475 1433 166.142V302H1430.01C1375.56 297.47 1322.83 279.979 1276.37 250.702V302H1130.01V0H1277.63Z" fill="#DFF5FE"/>
</g>
<defs>
<clipPath id="clip0_142_4876">
<rect width="1438" height="302" fill="white" transform="translate(-5)"/>
</clipPath>
</defs>
</svg>
