<svg width="101" height="80" viewBox="0 0 101 80" fill="none" xmlns="http://www.w3.org/2000/svg">
<path d="M88.3862 36.051H100.106V41.9109H88.3862V36.051ZM82.156 54.4916L86.2986 50.3491L94.5836 58.6342L90.4411 62.7767L82.156 54.4916ZM82.1599 23.4789L90.445 15.1938L94.5875 19.3364L86.3025 27.6214L82.1599 23.4789ZM17.6772 62.4204H35.2568V80H17.6772V62.4204ZM11.8174 21.4014H35.2568V56.5606H11.8174V21.4014Z" fill="#93FFE2"/>
<path d="M76.5688 0L71.8075 3.80832C62.6612 11.1283 52.0274 16.6779 41.019 20.5574V56.0957C52.0274 59.9751 62.6612 65.525 71.8075 72.8447L76.5688 76.6532V0ZM0 26.6069H5.85986V50.0463H0V26.6069Z" fill="#006A4E"/>
</svg>
