<svg width="70" height="80" viewBox="0 0 70 80" fill="none" xmlns="http://www.w3.org/2000/svg">
<path d="M65.7572 42.6996C65.7572 62.3414 50.3741 75.1512 32.4516 75.1512C14.5178 76.0052 0 60.6222 0 42.6996C0 24.7771 15.3718 12.81 32.4516 10.248C50.3741 10.248 67.4652 24.7659 65.7572 42.6996Z" fill="#93FFE2"/>
<path d="M48.9335 38.7198C37.5516 38.7198 28.293 47.9782 28.293 59.3603C28.293 70.7414 37.5525 80 48.9335 80C60.3143 80 69.5732 70.7411 69.5732 59.3603C69.5732 47.9789 60.3152 38.7198 48.9335 38.7198ZM57.9558 61.9974H48.9337C47.4776 61.9974 46.2974 60.8162 46.2974 59.3604V47.4508C46.2974 45.9949 47.4776 44.8145 48.9337 44.8145C50.3887 44.8145 51.5697 45.9956 51.5697 47.4508V56.7242H57.9558C59.4124 56.7242 60.5928 57.9034 60.5928 59.3604C60.5928 60.8162 59.4117 61.9974 57.9558 61.9974ZM52.2871 7.6895H46.4935V2.89698C46.4935 1.29803 47.7897 0 49.3903 0C50.9893 0 52.2871 1.29785 52.2871 2.89698V7.6895ZM19.4447 7.6895H13.6502V2.89698C13.6502 1.29803 14.949 0 16.547 0C18.1476 0 19.4447 1.29785 19.4447 2.89698V7.6895ZM23.1798 62.2294L23.1541 61.9974H14.454C12.9979 61.9974 11.8179 60.8162 11.8179 59.3604C11.8179 57.9036 12.9971 56.7242 14.454 56.7242H23.1543L23.1798 56.4921C23.6296 52.4175 25.0448 48.5232 27.305 45.104L27.5724 44.6995H14.4541C12.9973 44.6995 11.8181 43.5203 11.8181 42.0635C11.8181 40.6066 12.9973 39.4272 14.4541 39.4272H32.3915L32.4638 39.3676C37.1147 35.5295 42.9023 33.4466 48.9338 33.4466C55.0135 33.4466 60.8433 35.5648 65.5098 39.4594L65.9375 39.8163V17.3774C65.9375 12.8103 62.2232 9.09381 57.6558 9.09381H52.0267V11.757C52.0267 13.213 50.8466 14.394 49.3905 14.394C47.9337 14.394 46.7544 13.2137 46.7544 11.757V9.09417H19.184V11.7574C19.184 13.2142 18.0038 14.3944 16.547 14.3944C15.0915 14.3944 13.9109 13.2128 13.9109 11.7574V9.09417H8.28175C3.71411 9.09417 0 12.8105 0 17.3777V66.7496C0 71.3167 3.71429 75.0331 8.28175 75.0331H28.307L28.0039 74.6185C25.3399 70.9764 23.6761 66.7152 23.1798 62.2294ZM14.454 22.1308H51.4834C52.9393 22.1308 54.1196 23.3111 54.1196 24.7669C54.1196 26.2237 52.9402 27.4031 51.4834 27.4031H14.454C12.9971 27.4031 11.8179 26.2237 11.8179 24.7669C11.8179 23.3109 12.9979 22.1308 14.454 22.1308Z" fill="#006A4E"/>
</svg>
