<svg width="99" height="80" viewBox="0 0 99 80" fill="none" xmlns="http://www.w3.org/2000/svg">
<path d="M63.909 79.2898C62.9341 79.7482 61.8493 80 60.7065 80H7.60606C3.40917 80 0 76.5973 0 72.394C0 63.6903 3.53185 55.813 9.23317 50.1052C14.9345 44.3975 22.8182 40.8721 31.5219 40.8721H36.7906C39.9674 40.8721 43.0408 41.3434 45.9334 42.2151L45.9076 42.2603C45.0036 43.8293 44.7647 45.6565 45.2296 47.4063C45.701 49.1561 46.8244 50.6218 48.3934 51.5257L49.1166 51.9454C49.0327 52.7848 48.9875 53.6306 48.9875 54.4765C48.9875 55.3223 49.0327 56.1681 49.1166 57.0075L48.3934 57.4272C46.8244 58.3312 45.701 59.7968 45.2296 61.5466C44.7647 63.2964 45.0036 65.1237 45.9076 66.6927L49.4523 72.8266C50.6598 74.9186 52.9132 76.2228 55.328 76.2228C56.516 76.2228 57.6847 75.9065 58.7178 75.3124L59.4409 74.8927C60.8162 75.8806 62.2884 76.7329 63.8315 77.4238V78.2632C63.8315 78.6118 63.8574 78.9541 63.909 79.2898Z" fill="#006A4E"/>
<path d="M34.1553 34.1563C43.5873 34.1563 51.2334 26.5101 51.2334 17.0781C51.2334 7.64614 43.5873 0 34.1553 0C24.7233 0 17.0771 7.64614 17.0771 17.0781C17.0771 26.5101 24.7233 34.1563 34.1553 34.1563Z" fill="#006A4E"/>
<path d="M97.3362 61.9019L93.4686 59.6678C93.9141 58.0084 94.153 56.2716 94.153 54.4766C94.153 52.6816 93.9141 50.9383 93.4686 49.2853L97.3362 47.0513C98.111 46.6058 98.3757 45.6179 97.9302 44.8431L94.3854 38.7092C94.2795 38.5251 94.1384 38.3637 93.9701 38.2342C93.8017 38.1047 93.6095 38.0097 93.4045 37.9545C93.1994 37.8993 92.9854 37.8851 92.7749 37.9127C92.5643 37.9403 92.3612 38.0091 92.1772 38.1151L88.3096 40.3492C85.8561 37.8956 82.7697 36.0748 79.3154 35.1515V30.6899C79.3154 30.2618 79.1453 29.8512 78.8426 29.5485C78.5399 29.2457 78.1293 29.0757 77.7012 29.0757H70.6181C70.19 29.0757 69.7794 29.2457 69.4767 29.5485C69.174 29.8512 69.0039 30.2618 69.0039 30.6899V35.1515C65.599 36.0583 62.4954 37.8519 60.0096 40.3492L56.142 38.1151C55.3672 37.6696 54.3793 37.9344 53.9338 38.7092L50.3891 44.8431C49.9436 45.6179 50.2083 46.6058 50.9831 47.0513L54.8507 49.2853C54.4052 50.9447 54.1663 52.6816 54.1663 54.4766C54.1663 56.2716 54.4052 58.0149 54.8507 59.6678L50.9831 61.9019C50.2083 62.3474 49.9436 63.3353 50.3891 64.1101L53.9338 70.244C54.3793 71.0188 55.3672 71.2835 56.142 70.838L60.0096 68.604C62.4632 71.0575 65.5495 72.8784 69.0039 73.8017V78.2633C69.0039 78.6914 69.174 79.102 69.4767 79.4047C69.7794 79.7074 70.19 79.8775 70.6181 79.8775H77.7012C78.1293 79.8775 78.5399 79.7074 78.8426 79.4047C79.1453 79.102 79.3154 78.6914 79.3154 78.2633V73.8017C82.7203 72.8948 85.8238 71.1013 88.3096 68.604L92.1772 70.838C92.952 71.2835 93.9399 71.0188 94.3854 70.244L97.9302 64.1101C98.3757 63.3353 98.111 62.3474 97.3362 61.9019ZM74.1564 62.6315C69.6496 62.6315 66.0015 58.9769 66.0015 54.4766C66.0015 49.9698 69.6561 46.3217 74.1564 46.3217C78.6568 46.3217 82.3113 49.9762 82.3113 54.4766C82.3113 58.9769 78.6632 62.6315 74.1564 62.6315Z" fill="#006A4E"/>
<circle cx="74.8933" cy="54.4675" r="11.9148" fill="#93FFE2"/>
</svg>
