<svg width="128" height="80" viewBox="0 0 128 80" fill="none" xmlns="http://www.w3.org/2000/svg">
<rect x="28.8086" y="16.9463" width="54.2281" height="47.4496" fill="#93FFE2"/>
<path d="M126.809 2.6452C126.441 2.05917 125.855 1.64335 125.18 1.48915C124.505 1.33496 123.797 1.45501 123.211 1.82293L98.5991 17.2895V9.36698C98.5968 6.88416 97.6098 4.50363 95.8546 2.7476C94.0993 0.991577 91.7193 0.00345529 89.2365 0H9.36698C6.88411 0.00460004 4.50426 0.992952 2.74861 2.7486C0.992952 4.50426 0.00460004 6.88411 0 9.36698V70.633C0.00460004 73.1159 0.992952 75.4957 2.74861 77.2514C4.50426 79.007 6.88411 79.9954 9.36698 80H89.2365C91.7193 79.9965 94.0993 79.0084 95.8546 77.2524C97.6098 75.4964 98.5968 73.1158 98.5991 70.633V62.7105L123.211 78.1771C123.606 78.425 124.06 78.5626 124.526 78.5756C124.992 78.5885 125.453 78.4764 125.862 78.2508C126.27 78.0252 126.61 77.6943 126.847 77.2927C127.084 76.8911 127.209 76.4333 127.209 75.9669V4.03306C127.209 3.542 127.07 3.06097 126.809 2.6452ZM70.0152 41.2225C69.7798 41.6357 69.441 41.9806 69.032 42.2232H69.0146L54.9358 50.3372L40.8614 58.4555C40.4501 58.692 39.9837 58.8162 39.5092 58.8155C39.0347 58.8149 38.5687 58.6896 38.158 58.452C37.7472 58.2145 37.4061 57.8731 37.1689 57.4621C36.9317 57.0511 36.8068 56.585 36.8066 56.1105V23.611C36.8061 23.1369 36.9306 22.671 37.1676 22.2603C37.4045 21.8496 37.7455 21.5086 38.1563 21.2717C38.567 21.0348 39.0329 20.9103 39.5071 20.9108C39.9812 20.9114 40.4469 21.0369 40.8571 21.2747L54.9228 29.4061L68.9928 37.5419C69.302 37.7161 69.5738 37.9495 69.7925 38.2289C70.0113 38.5083 70.1728 38.8281 70.2678 39.17C70.3628 39.5119 70.3894 39.8692 70.346 40.2215C70.3027 40.5737 70.1903 40.9138 70.0152 41.2225Z" fill="#006A4E"/>
</svg>
