<svg width="132" height="130" viewBox="0 0 132 130" fill="none" xmlns="http://www.w3.org/2000/svg">
<path d="M131.503 77.6491L116.349 40.2086C115.884 39.0569 115.015 38.1679 113.863 37.683C112.712 37.2183 111.439 37.2385 110.307 37.7436L98.5073 42.997C96.507 43.8456 95.4361 46.0278 95.8604 48.1089L92.7286 49.8668C91.6779 50.4729 90.405 50.6952 89.1725 50.5336L67.4114 47.3209C65.5299 47.0538 63.6123 47.2169 61.803 47.7979C59.9936 48.3788 58.3395 49.3625 56.9652 50.675L55.369 52.2106H43.2863C42.7407 52.2106 42.1952 52.0085 41.7911 51.6448L40.7202 50.7356C41.4678 48.8969 40.9626 46.7552 39.3462 45.4822L30.2134 38.2689C29.2436 37.5011 28.0313 37.1576 26.7987 37.3395C25.5864 37.5011 24.4751 38.1679 23.7477 39.1378L1.74418 68.9608C0.289401 70.9207 0.632891 73.6686 2.5726 75.2244L11.6852 82.4175C12.1649 82.7971 12.7167 83.0752 13.3072 83.235C13.8977 83.3948 14.5144 83.4329 15.1201 83.3469C15.7228 83.2672 16.3027 83.0647 16.824 82.7519C17.3453 82.4391 17.7969 82.0227 18.1509 81.5285L18.2317 81.4274L19.545 82.4175C20.3128 82.963 20.7574 83.8925 20.7574 84.8623V90.2976L17.3629 94.6619C14.3321 98.6019 15.0191 104.28 18.9389 107.31C20.5351 108.563 22.4748 109.23 24.4751 109.23C24.8388 109.23 25.2227 109.21 25.5864 109.169C25.9905 109.109 26.3744 109.008 26.7583 108.907C26.7583 109.028 26.7381 109.129 26.7381 109.25C26.7381 111.836 27.91 114.261 29.9306 115.918C31.5066 117.171 33.4059 117.797 35.285 117.797C36.4569 117.797 37.6288 117.534 38.7199 117.07V117.171C39.0027 119.292 40.114 121.171 41.7304 122.363L42.0941 122.646C43.7752 123.894 45.8823 124.424 47.9537 124.121C48.8225 124 49.6105 123.697 50.3783 123.313C50.8026 125.475 52.0351 127.334 53.8738 128.506L54.1365 128.688C55.0167 129.271 56.0049 129.671 57.0426 129.865C58.0803 130.06 59.1464 130.044 60.1779 129.819C62.2994 129.375 64.0977 128.122 65.2898 126.303L65.6333 125.778C67.0679 126.869 68.7853 127.435 70.624 127.435C72.786 127.435 74.9075 126.546 76.4431 125.03C77.3283 124.145 78.0009 123.071 78.4104 121.888C78.8199 120.705 78.9556 119.444 78.8071 118.201C80.0408 118.381 81.2996 118.262 82.4782 117.856C83.6568 117.449 84.7208 116.766 85.5813 115.864C86.4419 114.962 87.0739 113.867 87.4245 112.671C87.7751 111.474 87.834 110.211 87.5964 108.987C90.2838 109.149 92.9306 108.078 94.7491 105.916C95.5785 104.937 96.1793 103.785 96.5078 102.544C96.8363 101.303 96.8844 100.005 96.6484 98.7434C99.0933 99.0061 101.579 98.1574 103.397 96.3794C105.397 94.379 106.145 91.5503 105.599 88.8832C105.7 88.863 105.801 88.8832 105.902 88.863L112.409 87.9538C113.237 88.7014 114.348 89.1257 115.46 89.1257C116.086 89.1257 116.712 89.0044 117.298 88.7216L129.139 83.4884C131.361 82.5185 132.412 79.9323 131.503 77.6491ZM14.6352 79.9121C14.4924 79.9333 14.3468 79.9245 14.2076 79.8863C14.0684 79.848 13.9388 79.7811 13.8269 79.6898L4.75477 72.5169C4.53808 72.3441 4.39622 72.0945 4.3586 71.8198C4.32098 71.5452 4.39049 71.2667 4.55272 71.0419L26.5361 41.1583C26.7583 40.8552 27.0614 40.7744 27.2433 40.7542H27.3847C27.5665 40.7542 27.809 40.7946 28.0313 40.9764L37.1843 48.1897C37.6288 48.5332 37.7096 49.1798 37.3863 49.6041L37.1034 49.988L37.0428 50.0486L24.3943 67.1827L24.3539 67.2231L21.9495 70.4964L16.4334 77.9723C16.4132 77.9925 16.4132 78.0127 16.4132 78.0127L15.3221 79.5079C15.1201 79.7908 14.8372 79.8918 14.6352 79.9121ZM25.1823 105.714C24.461 105.804 23.7291 105.75 23.0287 105.556C22.3282 105.362 21.6731 105.031 21.1008 104.583C18.7166 102.724 18.2721 99.2283 20.1512 96.8037L26.6573 88.4185C27.7484 87.0041 29.385 86.2767 31.0418 86.2767C32.2138 86.2767 33.4059 86.6606 34.4161 87.4284C35.7699 88.4993 36.5579 90.0955 36.5579 91.813C36.5579 93.0455 36.1538 94.2174 35.386 95.2277L28.8799 103.613C27.9504 104.785 26.6371 105.532 25.1823 105.714ZM32.1329 113.21C30.9206 112.22 30.2336 110.786 30.2336 109.25C30.2336 108.139 30.6175 107.048 31.3651 106.098L37.851 97.7331C38.6794 96.642 39.8918 95.9753 41.2455 95.8136C41.4476 95.7732 41.6496 95.7732 41.8315 95.7732C42.9832 95.7732 44.1147 96.1773 45.1653 97.0259C47.3475 98.7838 47.691 101.996 45.9331 104.179L39.2856 112.463C38.4264 113.496 37.1976 114.152 35.8614 114.292C34.5251 114.431 33.1871 114.043 32.1329 113.21ZM47.4283 120.666C46.2564 120.828 45.1047 120.545 44.2763 119.939L43.9328 119.656C43.4576 119.308 43.0584 118.867 42.7596 118.36C42.4608 117.853 42.2687 117.29 42.1952 116.706C42.1165 116.113 42.1583 115.51 42.318 114.934C42.4777 114.358 42.752 113.82 43.1246 113.352L48.0547 107.25C48.4675 106.737 48.9907 106.323 49.5854 106.039C50.18 105.756 50.8309 105.61 51.4896 105.613C52.3988 105.613 53.3283 105.896 54.0961 106.482C55.2074 107.31 55.8539 108.604 55.8539 109.998C55.8539 110.907 55.5913 111.756 55.0861 112.483C55.0457 112.523 55.0255 112.584 54.9851 112.645C54.9649 112.665 54.9649 112.685 54.9447 112.685L54.8639 112.806L50.2773 118.949C49.6307 119.898 48.6002 120.504 47.4283 120.666ZM64.6634 120.808L62.3398 124.424C61.6731 125.455 60.6426 126.162 59.4303 126.425C58.2382 126.667 57.0258 126.445 56.0358 125.798L55.7731 125.616C54.7022 124.929 53.9951 123.859 53.7728 122.626C53.5505 121.394 53.8132 120.161 54.5608 119.131C55.7731 117.534 57.1471 115.756 57.6926 115.089C57.7936 114.988 57.8947 114.867 57.9957 114.786C58.0159 114.786 58.0159 114.766 58.0159 114.766C58.0361 114.746 58.0765 114.726 58.0967 114.706C58.1978 114.625 58.2786 114.544 58.4402 114.443C59.9556 113.534 61.8549 113.534 63.3299 114.483C64.623 115.312 65.411 116.766 65.411 118.343C65.3908 119.232 65.1484 120.08 64.6634 120.808ZM100.932 93.9143C99.2751 95.5509 96.5878 95.753 94.7289 94.3992L83.1109 85.812L78.5849 82.4579C78.2108 82.1866 77.7453 82.0727 77.2882 82.1407C76.8312 82.2087 76.4189 82.4532 76.14 82.8216C75.5743 83.5894 75.7359 84.6805 76.5037 85.2665L84.4242 91.126L91.1324 96.0965C92.3043 96.9653 93.0519 98.2382 93.2337 99.693C93.4156 101.148 92.9913 102.562 92.0416 103.694C91.1934 104.688 90.0047 105.33 88.708 105.495C87.4113 105.659 86.0999 105.334 85.0304 104.583L71.1089 94.6215C70.924 94.4867 70.714 94.3901 70.4913 94.3373C70.2685 94.2846 70.0375 94.2769 69.8118 94.3145C69.586 94.3521 69.37 94.4344 69.1764 94.5565C68.9828 94.6786 68.8155 94.8381 68.6843 95.0256C68.1186 95.8136 68.3004 96.9047 69.0884 97.4502L82.4037 106.967C83.4342 107.715 84.0807 108.866 84.202 110.119C84.303 111.392 83.8585 112.624 82.9492 113.534C81.4338 115.069 78.989 115.211 77.2715 113.918L64.1381 103.694C63.9579 103.552 63.7516 103.448 63.531 103.387C63.3104 103.326 63.0799 103.309 62.8527 103.337C62.6255 103.365 62.4061 103.438 62.2072 103.551C62.0082 103.664 61.8335 103.816 61.6933 103.997C61.1073 104.744 61.2285 105.856 61.9761 106.442L73.4527 115.413C74.5438 116.261 75.2308 117.534 75.3116 118.908C75.4127 120.302 74.9075 121.616 73.9175 122.606C72.301 124.222 69.5733 124.404 67.7549 123.091C67.7549 123.091 67.6538 122.97 67.5124 122.828L67.5528 122.767C68.4014 121.474 68.8459 119.959 68.8459 118.363C68.8459 115.595 67.472 113.069 65.1686 111.574C63.4107 110.442 61.3094 110.099 59.309 110.462C59.309 110.321 59.3293 110.18 59.3293 110.038C59.3293 107.512 58.1775 105.209 56.1772 103.714C54.4396 102.421 52.3584 101.936 50.3783 102.219C50.7824 99.3091 49.7115 96.2581 47.1859 94.2174C46.3016 93.4936 45.2803 92.9559 44.1831 92.6365C43.0859 92.3171 41.9356 92.2225 40.801 92.3585C40.4979 92.3989 40.215 92.4797 39.9322 92.5404C39.9524 92.2979 39.9928 92.0756 39.9928 91.8332C39.9928 89.0246 38.7401 86.4384 36.5175 84.7007C33.1836 82.1144 28.597 82.2559 25.4046 84.7613C25.4046 84.7411 25.4046 84.7411 25.4248 84.7209C25.3844 84.7613 25.344 84.8017 25.3035 84.8219C25.1015 84.9836 24.8994 85.1856 24.7176 85.3675C24.556 85.5291 24.3741 85.6706 24.2125 85.8524V84.8826C24.2125 82.7812 23.2224 80.8213 21.5858 79.6292L20.2522 78.6391L22.7981 75.184L26.0107 70.8197L27.021 69.4659C27.0816 69.4053 27.122 69.3447 27.1826 69.2841L38.7199 53.625L39.4675 54.2513C40.4979 55.1606 41.8517 55.6657 43.2458 55.6657H51.6917L46.8424 60.3129C45.7109 61.404 45.0845 62.879 45.0845 64.455C45.0845 66.718 46.3373 68.7183 48.378 69.668C50.8418 70.8417 53.5451 71.4254 56.2736 71.3728C59.0022 71.3202 61.681 70.6327 64.0977 69.3649L66.199 68.2738C68.1792 67.2231 70.6038 67.4656 72.3617 68.88L92.87 85.3069C94.0621 86.2363 95.3149 87.0041 96.608 87.5699C97.0323 87.7517 97.497 87.9335 97.9011 88.075C98.2648 88.2164 98.6487 88.3377 98.972 88.4185C99.4165 88.5599 99.8611 88.6609 100.245 88.7216C100.77 88.8226 101.275 88.9034 101.7 88.9236C101.902 88.9438 102.084 88.9438 102.286 88.964L102.063 89.0246C102.629 90.7017 102.225 92.6212 100.932 93.9143ZM105.418 85.4281C104.751 85.5089 104.023 85.5493 103.195 85.5291C102.851 85.5291 102.528 85.5089 102.063 85.4483C101.659 85.4281 101.296 85.3473 100.851 85.2665C100.535 85.2218 100.224 85.1474 99.9217 85.0442C99.6388 84.9836 99.3761 84.8826 99.1135 84.7815C98.7498 84.6603 98.3659 84.4986 98.0224 84.3572C97.0121 83.9127 96.0018 83.3065 95.0522 82.5589L75.5945 66.9605L74.5438 66.132C72.887 64.7985 70.8665 64.1115 68.8257 64.1115C67.371 64.1115 65.9162 64.455 64.6028 65.1622L62.5015 66.2533C60.5675 67.2724 58.422 67.8251 56.2363 67.8672C54.0506 67.9093 51.8854 67.4396 49.9136 66.4957C48.9639 66.0512 48.6204 65.142 48.6204 64.4348C48.6204 64.0105 48.7417 63.3639 49.3074 62.8184L59.3899 53.1602C61.37 51.2609 64.1785 50.3517 66.9062 50.7558L88.6875 53.9685C90.6879 54.2513 92.7488 53.8674 94.446 52.8976L97.1131 51.4024L101.397 61.99L110.61 84.7007L105.418 85.4281ZM127.724 80.3364L115.864 85.5695C115.399 85.7716 114.833 85.6099 114.49 85.024L101.882 53.8876L100.245 49.887L99.3155 47.5836C99.0933 47.0582 99.3357 46.4521 99.8813 46.2096L111.722 40.9562C111.984 40.835 112.287 40.835 112.55 40.936C112.813 41.0371 113.015 41.2391 113.116 41.522L128.27 78.9826C128.472 79.4877 128.229 80.0939 127.724 80.3364Z" fill="#006A4E"/>
<path d="M66.342 42.4715C77.7984 42.4715 87.1131 33.1568 87.1131 21.7004C87.1131 10.244 77.7984 0.90918 66.342 0.90918C54.8856 0.90918 45.5508 10.2238 45.5508 21.7004C45.571 33.1568 54.8856 42.4715 66.342 42.4715ZM66.342 4.40469C75.8789 4.40469 83.6175 12.1635 83.6175 21.7004C83.6175 31.2373 75.8587 38.9759 66.342 38.9759C56.8051 38.9759 49.0463 31.2171 49.0463 21.7004C49.0463 12.1635 56.8051 4.40469 66.342 4.40469Z" fill="#006A4E"/>
<path d="M74.3055 15.405H57.8851C57.8045 15.405 57.7271 15.4371 57.6701 15.4941C57.6131 15.5511 57.5811 15.6285 57.5811 15.7091V18.3798C57.5835 19.7605 58.0344 21.103 58.8658 22.2053C59.6972 23.3076 60.8641 24.1101 62.1909 24.4919C62.9114 25.3117 63.8368 25.9254 64.8723 26.2701C64.8388 26.8317 64.6709 27.377 64.3829 27.8602C64.0948 28.3434 63.6949 28.7504 63.2169 29.047L62.6632 29.3927H62.1423C61.9003 29.3927 61.6683 29.4888 61.4972 29.6599C61.3261 29.831 61.23 30.063 61.23 30.305V30.9131C61.23 30.9938 61.2621 31.0711 61.3191 31.1282C61.3761 31.1852 61.4535 31.2172 61.5341 31.2172H70.6565C70.7372 31.2172 70.8145 31.1852 70.8715 31.1282C70.9286 31.0711 70.9606 30.9938 70.9606 30.9131V30.305C70.9606 30.063 70.8645 29.831 70.6934 29.6599C70.5223 29.4888 70.2903 29.3927 70.0484 29.3927H69.5275L68.9737 29.0467C68.4958 28.7501 68.096 28.3432 67.8079 27.86C67.5198 27.3769 67.3519 26.8316 67.3183 26.2701C68.3551 25.9263 69.2813 25.3122 70.0015 24.491C71.3278 24.1088 72.4942 23.3064 73.3252 22.2043C74.1562 21.1022 74.6069 19.7601 74.6096 18.3798V15.7091C74.6096 15.6285 74.5775 15.5511 74.5205 15.4941C74.4635 15.4371 74.3861 15.405 74.3055 15.405ZM60.7584 21.5998C60.33 21.18 59.9897 20.6791 59.7574 20.1262C59.5251 19.5733 59.4055 18.9796 59.4055 18.3798V17.2295H60.6383V20.4224C60.6398 20.8178 60.6801 21.2121 60.7584 21.5998ZM58.1892 18.3798V16.0132H60.6383V16.6214H59.1015C59.0208 16.6214 58.9435 16.6534 58.8864 16.7104C58.8294 16.7674 58.7974 16.8448 58.7974 16.9254V18.3798C58.7977 19.2184 59.0038 20.0441 59.3975 20.7845C59.7913 21.5248 60.3607 22.1573 61.0558 22.6263C61.1863 22.9656 61.3464 23.2927 61.5341 23.604C60.5368 23.1423 59.6922 22.4054 59.0996 21.4799C58.507 20.5543 58.1911 19.4788 58.1892 18.3798ZM66.9261 25.755C66.8621 25.7728 66.8057 25.8111 66.7655 25.864C66.7253 25.9168 66.7035 25.9814 66.7035 26.0478C66.7025 26.7012 66.8572 27.3454 67.1547 27.9271C67.4523 28.5088 67.8841 29.0112 68.4145 29.3927H66.0953C66.0147 29.3927 65.9373 29.4248 65.8803 29.4818C65.8233 29.5388 65.7912 29.6162 65.7912 29.6968C65.7912 29.7775 65.8233 29.8548 65.8803 29.9118C65.9373 29.9689 66.0147 30.0009 66.0953 30.0009H70.0484C70.129 30.0009 70.2063 30.0329 70.2634 30.09C70.3204 30.147 70.3524 30.2243 70.3524 30.305V30.6091H61.8382V30.305C61.8382 30.2243 61.8702 30.147 61.9272 30.09C61.9843 30.0329 62.0616 30.0009 62.1423 30.0009H64.879C64.9596 30.0009 65.037 29.9689 65.094 29.9118C65.151 29.8548 65.1831 29.7775 65.1831 29.6968C65.1831 29.6162 65.151 29.5388 65.094 29.4818C65.037 29.4248 64.9596 29.3927 64.879 29.3927H63.7761C64.3065 29.0112 64.7383 28.5088 65.0359 27.9271C65.3335 27.3454 65.4881 26.7012 65.4871 26.0478C65.4856 25.9809 65.4626 25.9162 65.4216 25.8633C65.3806 25.8103 65.3238 25.7718 65.2594 25.7535C64.105 25.4165 63.0905 24.7153 62.3673 23.7545C61.6441 22.7938 61.2509 21.6249 61.2464 20.4224V16.0132H70.9442V20.4224C70.9394 21.6258 70.5455 22.7953 69.8213 23.7564C69.0971 24.7175 68.0815 25.4186 66.9261 25.755ZM74.0014 18.3798C73.9995 19.4788 73.6836 20.5543 73.091 21.4797C72.4984 22.4052 71.6538 23.1421 70.6565 23.6036C70.8448 23.2921 71.0051 22.9644 71.1354 22.6245C72.0468 22.0028 72.7363 21.107 73.1041 20.0669C73.118 20.029 73.1243 19.9888 73.1225 19.9485C73.1208 19.9082 73.111 19.8687 73.0938 19.8322C73.0767 19.7957 73.0524 19.763 73.0224 19.736C72.9925 19.7089 72.9575 19.6881 72.9194 19.6748C72.8813 19.6614 72.841 19.6558 72.8007 19.6582C72.7605 19.6606 72.7211 19.6709 72.6849 19.6887C72.6487 19.7065 72.6163 19.7312 72.5898 19.7616C72.5633 19.792 72.543 19.8273 72.5303 19.8656C72.3 20.516 71.9258 21.106 71.4356 21.5915C71.5128 21.2061 71.5524 20.814 71.5539 20.4208V17.2295H72.7851V18.3798C72.7844 18.5912 72.7691 18.8022 72.7392 19.0114C72.7279 19.0913 72.7488 19.1723 72.7972 19.2367C72.8457 19.3012 72.9178 19.3437 72.9976 19.355C73.0118 19.3571 73.0262 19.3581 73.0405 19.3581C73.1137 19.358 73.1844 19.3315 73.2397 19.2835C73.2949 19.2354 73.331 19.1691 73.3412 19.0966C73.3751 18.8592 73.3925 18.6197 73.3932 18.3798V16.9254C73.3932 16.8448 73.3612 16.7674 73.3042 16.7104C73.2472 16.6534 73.1698 16.6214 73.0892 16.6214H71.5523V16.0132H74.0014V18.3798Z" fill="#006A4E"/>
</svg>
