<svg width="71" height="80" viewBox="0 0 71 80" fill="none" xmlns="http://www.w3.org/2000/svg">
<rect x="44.2578" y="44.2573" width="22.1287" height="15.3199" fill="#93FFE2"/>
<path fill-rule="evenodd" clip-rule="evenodd" d="M70.07 50.0005C70.07 48.0114 69.2798 46.1037 67.8733 44.6972C66.4668 43.2907 64.5591 42.5005 62.57 42.5005H52.5699C51.5848 42.5002 50.6092 42.6939 49.699 43.0707C48.7888 43.4474 47.9617 43.9998 47.265 44.6963C46.5683 45.3928 46.0156 46.2197 45.6385 47.1298C45.2615 48.0399 45.0674 49.0154 45.0674 50.0005V55.0005C45.0674 56.9897 45.8576 58.8973 47.2641 60.3039C48.6706 61.7104 50.5783 62.5006 52.5674 62.5006H62.5675C63.5526 62.5009 64.5281 62.3072 65.4384 61.9304C66.3486 61.5536 67.1757 61.0012 67.8724 60.3048C68.5691 59.6083 69.1218 58.7814 69.4988 57.8713C69.8759 56.9611 70.07 55.9857 70.07 55.0005V50.0005ZM65.07 50.0005C65.07 49.3375 64.8066 48.7016 64.3377 48.2327C63.8689 47.7639 63.233 47.5005 62.57 47.5005H52.5699C51.9069 47.5005 51.271 47.7639 50.8021 48.2327C50.3333 48.7016 50.0699 49.3375 50.0699 50.0005V55.0005C50.0699 55.6636 50.3333 56.2995 50.8021 56.7683C51.271 57.2372 51.9069 57.5006 52.5699 57.5006H62.57C63.233 57.5006 63.8689 57.2372 64.3377 56.7683C64.8066 56.2995 65.07 55.6636 65.07 55.0005V50.0005Z" fill="#006A4E"/>
<path fill-rule="evenodd" clip-rule="evenodd" d="M62.5003 59.9997C62.5003 59.3366 62.2369 58.7007 61.768 58.2319C61.2992 57.763 60.6633 57.4997 60.0003 57.4997H52.5002C51.8372 57.4997 51.2013 57.2363 50.7325 56.7674C50.2636 56.2986 50.0002 55.6627 50.0002 54.9996V49.9996C50.0002 49.3366 50.2636 48.7007 50.7325 48.2318C51.2013 47.763 51.8372 47.4996 52.5002 47.4996H60.0003C60.6633 47.4996 61.2992 47.2362 61.768 46.7674C62.2369 46.2985 62.5003 45.6626 62.5003 44.9996V32.4995C62.5003 30.5095 61.7103 28.602 60.3028 27.197C59.6068 26.5001 58.7802 25.9473 57.8704 25.5702C56.9605 25.1931 55.9852 24.9992 55.0002 24.9995H7.50003C5.51002 24.9995 3.60252 25.7895 2.19751 27.197C1.50058 27.893 0.947746 28.7196 0.570667 29.6294C0.193589 30.5393 -0.000333917 31.5146 4.31609e-07 32.4995V72.4997C4.31609e-07 74.4897 0.790004 76.3972 2.19751 77.8022C2.89346 78.4992 3.72004 79.052 4.62992 79.4291C5.5398 79.8062 6.51511 80.0001 7.50003 79.9998H55.0002C56.9903 79.9998 58.8978 79.2098 60.3028 77.8022C60.9997 77.1063 61.5525 76.2797 61.9296 75.3698C62.3067 74.46 62.5006 73.4846 62.5003 72.4997V59.9997Z" fill="#006A4E"/>
<path fill-rule="evenodd" clip-rule="evenodd" d="M62.5003 59.9999C62.5003 59.3369 62.2369 58.701 61.768 58.2321C61.2992 57.7633 60.6633 57.4999 60.0003 57.4999H52.5002C51.8372 57.4999 51.2013 57.2365 50.7325 56.7677C50.2636 56.2988 50.0002 55.6629 50.0002 54.9999V49.9999C50.0002 49.3368 50.2636 48.7009 50.7325 48.2321C51.2013 47.7632 51.8372 47.4999 52.5002 47.4999H60.0003C60.6633 47.4999 61.2992 47.2365 61.768 46.7676C62.2369 46.2988 62.5003 45.6629 62.5003 44.9998V32.4998C62.5003 30.5098 61.7103 28.6023 60.3028 27.1973C59.6068 26.5003 58.7802 25.9475 57.8704 25.5704C56.9605 25.1933 55.9852 24.9994 55.0002 24.9998H7.50003C5.51002 24.9998 3.60252 25.7898 2.19751 27.1973C1.50058 27.8932 0.947746 28.7198 0.570667 29.6297C0.193589 30.5396 -0.000333917 31.5149 4.31609e-07 32.4998V72.5C4.31609e-07 74.49 0.790004 76.3975 2.19751 77.8025C2.89346 78.4994 3.72004 79.0523 4.62992 79.4293C5.5398 79.8064 6.51511 80.0003 7.50003 80H55.0002C56.9903 80 58.8978 79.21 60.3028 77.8025C60.9997 77.1065 61.5525 76.28 61.9296 75.3701C62.3067 74.4602 62.5006 73.4849 62.5003 72.5V59.9999ZM45.6427 6.74968L56.9977 18.1072C57.7003 18.8097 58.2478 19.6347 58.6228 20.5347C57.448 20.1797 56.2275 19.9994 55.0002 19.9997H32.3926L45.6427 6.74968ZM25.3226 19.9997H12.6776L30.4801 2.19716C31.1766 1.50058 32.0034 0.948019 32.9135 0.571028C33.8235 0.194036 34.7989 0 35.7839 0C36.7689 0 37.7443 0.194036 38.6543 0.571028C39.5644 0.948019 40.3912 1.50058 41.0877 2.19716L42.1052 3.21466L25.3226 19.9997Z" fill="#006A4E"/>
</svg>
