<svg width="59" height="80" viewBox="0 0 59 80" fill="none" xmlns="http://www.w3.org/2000/svg">
<rect x="13.6172" y="57.8726" width="30.6383" height="6.80851" fill="#93FFE2"/>
<rect x="25.5322" y="69.7871" width="30.6383" height="6.80851" fill="#006A4E"/>
<path d="M29.2103 37.4131C29.2451 37.4128 29.2796 37.4117 29.3145 37.4117C29.3493 37.4117 29.3839 37.4128 29.4187 37.4131C31.3714 37.3578 32.9431 35.7557 32.9431 33.7931C32.9431 31.7956 31.3153 30.1704 29.3145 30.1704C27.3137 30.1704 25.6859 31.7956 25.6859 33.7931C25.6859 35.7556 27.2576 37.3576 29.2103 37.4131ZM29.399 42.0934C29.3707 42.0937 29.3428 42.0956 29.3145 42.0956C29.2862 42.0956 29.2582 42.0937 29.23 42.0934C24.7814 42.132 21.045 45.2049 20.0029 49.3367H38.6262C37.5842 45.2049 33.8476 42.132 29.399 42.0934Z" fill="#93FFE2"/>
<path d="M41.7828 8.86621V19.8134H16.7828V8.86621H0V79.9995H58.5656V8.86621H41.7828ZM15.0262 51.676C15.0262 46.1431 18.198 41.3357 22.8216 38.971C21.6822 37.5501 20.9986 35.7499 20.9986 33.7926C20.9986 29.2146 24.7292 25.4903 29.3147 25.4903C33.9001 25.4903 37.6308 29.2148 37.6308 33.7926C37.6308 35.7501 36.9472 37.5501 35.8078 38.971C40.4314 41.3359 43.6031 46.1431 43.6031 51.676V54.0159H15.0262V51.676ZM14.9625 58.6957H43.6022V63.3756H14.9625V58.6957ZM53.8781 75.312H39.8156V70.6321H53.8781V75.312Z" fill="#006A4E"/>
<path d="M21.4697 0H37.0947V15.1262H21.4697V0Z" fill="#93FFE2"/>
</svg>
