<svg width="102" height="80" viewBox="0 0 102 80" fill="none" xmlns="http://www.w3.org/2000/svg">
<path d="M0.262695 6C0.262695 2.68629 2.94899 0 6.2627 0H94.6882C98.0019 0 100.688 2.68629 100.688 6V69.5957C100.688 73.4617 97.5542 76.5957 93.6882 76.5957H6.2627C2.94899 76.5957 0.262695 73.9094 0.262695 70.5957V6Z" fill="#93FFE2"/>
<path d="M92.3205 0H9.28797C6.89549 0.00381881 4.60209 0.955919 2.91035 2.64766C1.21861 4.3394 0.266514 6.63279 0.262695 9.02527V15.7581H101.346V9.02527C101.342 6.63279 100.39 4.3394 98.6981 2.64766C97.0063 0.955919 94.7129 0.00381881 92.3205 0ZM47.9161 9.67509H11.7067C11.228 9.67509 10.7689 9.48491 10.4304 9.1464C10.0919 8.80789 9.90169 8.34877 9.90169 7.87004C9.90169 7.39131 10.0919 6.93218 10.4304 6.59367C10.7689 6.25516 11.228 6.06498 11.7067 6.06498H47.9161C48.3949 6.06498 48.854 6.25516 49.1925 6.59367C49.531 6.93218 49.7212 7.39131 49.7212 7.87004C49.7212 8.34877 49.531 8.80789 49.1925 9.1464C48.854 9.48491 48.3949 9.67509 47.9161 9.67509ZM0.262695 19.3682V70.9747C0.266514 73.3672 1.21861 75.6606 2.91035 77.3523C4.60209 79.0441 6.89549 79.9962 9.28797 80H92.3205C94.7129 79.9962 97.0063 79.0441 98.6981 77.3523C100.39 75.6606 101.342 73.3672 101.346 70.9747V19.3682H0.262695ZM50.8042 25.0361C72.6995 24.9856 83.6165 51.8881 68.223 67.0939C53.0172 82.4874 26.1111 71.5686 26.1652 49.6751C26.1705 43.142 28.7681 36.8781 33.3876 32.2585C38.0072 27.6389 44.2712 25.0414 50.8042 25.0361Z" fill="#006A4E"/>
<path d="M66.8874 63.2138C69.6854 59.9023 71.3826 55.8014 71.7429 51.481H55.1545L66.8874 63.2138ZM52.6094 28.7373V47.8709H71.7429C71.3154 42.9399 69.1622 38.3177 65.6624 34.8179C62.1625 31.3181 57.5404 29.1649 52.6094 28.7373Z" fill="#006A4E"/>
<path d="M50.8055 70.7048C55.76 70.7032 60.5547 68.9515 64.3434 65.759L49.5239 50.9575C49.1885 50.6152 49.0006 50.1551 49.0005 49.6759V28.7373C22.4806 31.9142 24.0005 69.7644 50.8055 70.7048Z" fill="#006A4E"/>
</svg>
