<svg width="80" height="80" viewBox="0 0 80 80" fill="none" xmlns="http://www.w3.org/2000/svg">
<path d="M80.0001 36.9577V49.0789C80.0001 49.7456 79.4547 50.291 78.788 50.291H49.6971V35.7456H78.788C79.4547 35.7456 80.0001 36.2911 80.0001 36.9577ZM23.0305 50.291H47.2729V35.7456H23.0305C22.3638 35.7456 21.8184 36.2911 21.8184 36.9577V49.0789C21.8184 49.7456 22.3638 50.291 23.0305 50.291Z" fill="#93FFE2"/>
<path d="M14.9091 40.8818C13.3333 42.203 11.3091 42.9909 9.0909 42.9909C6.87272 42.9909 4.84848 42.1909 3.27272 40.8818C1.32121 42.0334 0 44.1546 0 46.5909V49.0515C0 49.7182 0.545454 50.2637 1.21212 50.2637H16.9697C17.6364 50.2637 18.1818 49.7182 18.1818 49.0515V46.5909C18.1818 44.1546 16.8606 42.0334 14.9091 40.8818Z" fill="#93FFE2"/>
<path d="M9.09147 40.5672C12.7734 40.5672 15.7581 37.5824 15.7581 33.9005C15.7581 30.2187 12.7734 27.2339 9.09147 27.2339C5.40957 27.2339 2.4248 30.2187 2.4248 33.9005C2.4248 37.5824 5.40957 40.5672 9.09147 40.5672Z" fill="#93FFE2"/>
<path d="M78.7878 4.24268H69.6969V18.7881H78.7878C79.4545 18.7881 79.9999 18.2427 79.9999 17.576V5.4548C79.9999 4.78813 79.4545 4.24268 78.7878 4.24268ZM67.2727 4.24268V18.7881H23.0303C22.3636 18.7881 21.8182 18.2427 21.8182 17.576V5.4548C21.8182 4.78813 22.3636 4.24268 23.0303 4.24268H67.2727ZM78.7878 61.2123H61.2121V75.7578H78.7878C79.4545 75.7578 79.9999 75.2123 79.9999 74.5457V62.4245C79.9999 61.7578 79.4545 61.2123 78.7878 61.2123ZM58.7878 61.2123V75.7578H23.0303C22.3636 75.7578 21.8182 75.2123 21.8182 74.5457V62.4245C21.8182 61.7578 22.3636 61.2123 23.0303 61.2123H58.7878ZM14.9091 13.6487C13.3333 14.9578 11.297 15.7578 9.0909 15.7578C6.88484 15.7578 4.84848 14.9578 3.27272 13.6487C1.32121 14.8002 0 16.9215 0 19.3578V21.8184C0 22.4851 0.545454 23.0305 1.21212 23.0305H16.9697C17.6364 23.0305 18.1818 22.4851 18.1818 21.8184V19.3578C18.1818 16.9215 16.8606 14.8002 14.9091 13.6487Z" fill="#006A4E"/>
<path d="M9.09147 13.3333C12.7734 13.3333 15.7581 10.3486 15.7581 6.66666C15.7581 2.98477 12.7734 0 9.09147 0C5.40957 0 2.4248 2.98477 2.4248 6.66666C2.4248 10.3486 5.40957 13.3333 9.09147 13.3333Z" fill="#006A4E"/>
<path d="M14.9091 70.6182C13.3333 71.9273 11.297 72.7273 9.0909 72.7273C6.88484 72.7273 4.84848 71.9273 3.27272 70.6182C1.32121 71.7697 0 73.8909 0 76.3273V78.7879C0 79.4545 0.545454 80 1.21212 80H16.9697C17.6364 80 18.1818 79.4545 18.1818 78.7879V76.3273C18.1818 73.8909 16.8606 71.7697 14.9091 70.6182Z" fill="#006A4E"/>
<path d="M9.09147 70.3021C12.7734 70.3021 15.7581 67.3173 15.7581 63.6354C15.7581 59.9535 12.7734 56.9688 9.09147 56.9688C5.40957 56.9688 2.4248 59.9535 2.4248 63.6354C2.4248 67.3173 5.40957 70.3021 9.09147 70.3021Z" fill="#006A4E"/>
</svg>
