<svg width="80" height="80" viewBox="0 0 80 80" fill="none" xmlns="http://www.w3.org/2000/svg">
<circle cx="40.0002" cy="40.0002" r="24.6809" fill="#93FFE2"/>
<path d="M40.0027 18.8364C28.3327 18.8364 18.8398 28.3307 18.8398 40.0007C18.8398 45.5864 20.9898 50.8493 24.8956 54.8221C26.8281 56.8048 29.134 58.3853 31.6802 59.4727C34.2264 60.5601 36.9627 61.1328 39.7313 61.1579L40.0027 61.165L40.1741 61.1621C45.897 61.0936 51.1641 58.8436 55.1084 54.8221C59.0038 50.8743 61.181 45.5468 61.1656 40.0007C61.1656 28.3307 51.6727 18.8364 40.0027 18.8364ZM45.6427 47.9607C45.4884 48.0673 45.3146 48.1425 45.1312 48.1818C44.9478 48.2211 44.7584 48.2239 44.574 48.1899C44.3895 48.156 44.2135 48.0859 44.0562 47.9838C43.8988 47.8817 43.7632 47.7496 43.657 47.595L38.827 40.5807C38.6628 40.343 38.5746 40.061 38.5741 39.7721V27.4121C38.5741 27.0333 38.7246 26.6699 38.9925 26.402C39.2605 26.1341 39.6238 25.9836 40.0027 25.9836C40.3816 25.9836 40.7449 26.1341 41.0129 26.402C41.2808 26.6699 41.4313 27.0333 41.4313 27.4121V39.3264L46.0084 45.975C46.1149 46.1295 46.1899 46.3034 46.2292 46.4869C46.2684 46.6704 46.2711 46.8598 46.2372 47.0443C46.2032 47.2289 46.1332 47.4049 46.0312 47.5624C45.9292 47.7198 45.7972 47.8557 45.6427 47.9621V47.9607Z" fill="#006A4E"/>
<path d="M70.9314 32.1886C70.1765 29.186 68.9847 26.3106 67.3943 23.6543C67.1004 23.1666 66.9779 22.5947 67.0462 22.0294C67.1146 21.4641 67.3698 20.9379 67.7714 20.5343L72.4371 15.8686L64.1314 7.56286L59.4657 12.2286C58.6371 13.0571 57.3529 13.21 56.3457 12.6057C53.6877 11.0153 50.8109 9.82311 47.8071 9.06714C47.2559 8.93127 46.766 8.61483 46.4154 8.16824C46.0649 7.72165 45.8739 7.17059 45.8729 6.60286V0H34.1286V6.59571C34.1286 7.76429 33.33 8.78143 32.1886 9.06714C29.1865 9.82415 26.3113 11.0163 23.6543 12.6057C23.167 12.9 22.5952 13.0227 22.03 12.9544C21.4649 12.886 20.9388 12.6305 20.5357 12.2286L15.87 7.56286L7.56429 15.8686L12.23 20.5343C13.0557 21.3614 13.2114 22.6443 12.6071 23.6543C11.017 26.3102 9.82531 29.1851 9.07 32.1871C8.93311 32.7397 8.61559 33.2306 8.16785 33.5821C7.7201 33.9335 7.16778 34.1254 6.59857 34.1271H0V45.8729H6.59571C7.76429 45.8729 8.78 46.67 9.06714 47.8114C9.82251 50.8141 11.0148 53.6895 12.6057 56.3457C12.8996 56.8334 13.0221 57.4053 12.9538 57.9706C12.8854 58.5359 12.6302 59.0621 12.2286 59.4657L7.56286 64.1314L15.8686 72.4371L20.5343 67.7714C20.9376 67.3694 21.4639 67.1138 22.0293 67.0455C22.5947 66.9771 23.1667 67.0999 23.6543 67.3943C26.3124 68.9845 29.1891 70.1767 32.1929 70.9329C33.3314 71.2186 34.1271 72.2329 34.1271 73.3971V80H45.8729V73.4029C45.8729 72.2343 46.6714 71.2186 47.8129 70.9314C50.8149 70.1749 53.6901 68.9832 56.3471 67.3943C56.8345 67.1 57.4062 66.9773 57.9714 67.0456C58.5366 67.114 59.0626 67.3695 59.4657 67.7714L64.1314 72.4371L72.4371 64.1314L67.7714 59.4657C67.3696 59.0622 67.1142 58.536 67.0459 57.9706C66.9775 57.4053 67.1002 56.8333 67.3943 56.3457C68.9844 53.6898 70.1761 50.8149 70.9314 47.8129C71.22 46.67 72.2357 45.8729 73.4029 45.8729H80V34.1286H73.4043C72.8353 34.1269 72.2831 33.9353 71.8354 33.5841C71.3877 33.2329 71.07 32.7422 70.9329 32.19L70.9314 32.1886ZM57.1443 56.8243C54.9506 59.0742 52.3334 60.8679 49.4435 62.1019C46.5535 63.3359 43.448 63.9858 40.3057 64.0143C40.2743 64.02 40.1314 64.0214 40 64.0214C39.8686 64.0214 39.7257 64.02 39.5943 64.0086C33.3114 63.9414 27.3314 61.3871 22.8543 56.8229C18.4329 52.342 15.9619 46.295 15.98 40C15.98 26.7543 26.7557 15.9786 40 15.9786C53.2443 15.9786 64.02 26.7543 64.02 40C64.02 46.3386 61.5786 52.3143 57.1443 56.8243Z" fill="#006A4E"/>
</svg>
