<svg width="70" height="80" viewBox="0 0 70 80" fill="none" xmlns="http://www.w3.org/2000/svg">
<path d="M36.8703 67.1818C36.8657 67.1773 36.8063 67.1178 36.8703 67.1818Z" fill="#006A4E"/>
<path d="M29.0123 57.2305C34.0636 59.2578 39.7205 59.2341 44.7149 57.2336L45.1493 58.8649C31.1409 72.9286 39.905 64.1419 36.8957 67.1513C36.8957 67.1513 36.8957 67.153 36.8942 67.153L36.8675 67.1797C36.8502 67.1608 36.1066 66.4205 28.5605 58.89C28.6261 58.6374 28.6427 58.5865 29.0123 57.2305Z" fill="#006A4E"/>
<path d="M36.8663 67.1786L36.8631 67.1818L36.8663 67.1786ZM53.3327 37.5701V35.2173H20.3936V37.5701C21.2242 59.3946 52.5099 59.3782 53.3327 37.5701Z" fill="#93FFE2"/>
<path d="M64.7739 66.3345L48.6756 62.0488L36.8753 73.893L24.4346 61.4788L18.6591 62.2251L10.9796 46.5524L12.1837 30.5651H61.4774V25.8595H52.9422L52.1888 17.0858C51.4017 10.7886 44.397 7.38658 38.9623 10.6474C38.3296 11.0279 37.6053 11.2289 36.867 11.2289C36.1287 11.2289 35.4044 11.0279 34.7717 10.6474C29.3308 7.38281 22.3309 10.7963 21.5449 17.0858L20.7925 25.8595L3.1151 25.8854L0 48.353L9.34532 79.9997H69.8044V73.0951C69.8042 69.9784 67.7595 67.2303 64.7739 66.3345Z" fill="#006A4E"/>
<path d="M12.8701 19.4951C13.1867 16.9729 13.1282 11.6837 9.41545 10.7487L10.6011 0.543026L5.92672 0L3.60059 21.1242H12.7826L12.8701 19.4951Z" fill="#93FFE2"/>
</svg>
