<svg width="138" height="130" viewBox="0 0 138 130" fill="none" xmlns="http://www.w3.org/2000/svg">
<path d="M68.7902 54.6775C60.4923 54.6775 53.7432 61.4266 53.7432 69.7244C53.7432 78.0223 60.4923 84.7714 68.7902 84.7714C77.088 84.7714 83.8371 78.0223 83.8371 69.7244C83.8371 61.4266 77.088 54.6775 68.7902 54.6775ZM68.7902 81.3641C62.3736 81.3641 57.1533 76.1439 57.1533 69.7273C57.1533 63.3106 62.3736 58.0904 68.7902 58.0904C75.2068 58.0904 80.4271 63.3106 80.4271 69.7273C80.4271 76.1439 75.2068 81.3641 68.7902 81.3641ZM111.8 63.9017C104.46 63.9017 98.4862 69.875 98.4862 77.2152C98.4862 84.5582 104.46 90.5287 111.8 90.5287C119.143 90.5287 125.113 84.5554 125.113 77.2152C125.116 69.875 119.143 63.9017 111.8 63.9017ZM111.8 87.1186C106.338 87.1186 101.896 82.6742 101.896 77.2152C101.896 71.7562 106.338 67.3118 111.8 67.3118C117.261 67.3118 121.703 71.7534 121.703 77.2152C121.703 82.677 117.261 87.1186 111.8 87.1186ZM111.8 95.5727C104.621 95.5727 97.7332 98.6816 92.9193 103.993C87.7075 96.2121 78.8357 91.0771 68.7873 91.0771C58.739 91.0771 49.8671 96.2093 44.6582 103.993C39.8444 98.6816 32.956 95.5727 25.7778 95.5727C11.7312 95.5727 0.301758 106.999 0.301758 121.049V122.274C0.301758 126.033 3.35945 129.091 7.11906 129.091H44.4309C44.9083 129.091 45.3829 129.04 45.8489 128.943C46.332 129.04 46.8322 129.091 47.3437 129.091H90.2282C90.7397 129.091 91.2398 129.04 91.7229 128.943C92.1861 129.043 92.6635 129.091 93.1409 129.091H130.456C134.215 129.091 137.273 126.033 137.273 122.274V121.049C137.276 106.999 125.849 95.5727 111.8 95.5727ZM3.71467 122.271V121.046C3.71467 108.881 13.6124 98.98 25.7807 98.98C32.3564 98.98 38.6565 101.998 42.8452 107.104C40.8174 111.136 39.7634 115.587 39.7676 120.1V121.506C39.7676 123.047 40.2308 124.482 41.0237 125.678H7.1219C5.24352 125.678 3.71467 124.149 3.71467 122.271ZM47.3494 125.678C45.0504 125.678 43.1777 123.808 43.1777 121.506V120.1C43.1777 105.976 54.6668 94.4872 68.7902 94.4872C82.9136 94.4872 94.4027 105.976 94.4027 120.1V121.506C94.4027 123.805 92.5328 125.678 90.231 125.678H47.3494ZM133.866 122.271C133.866 124.149 132.337 125.678 130.458 125.678H96.5595C97.3524 124.482 97.8156 123.047 97.8156 121.506V120.1C97.8156 115.431 96.7045 111.018 94.738 107.104C98.9267 102.001 105.227 98.98 111.803 98.98C123.968 98.98 133.869 108.878 133.869 121.043V122.271H133.866ZM25.7807 63.9017C18.4376 63.9017 12.4672 69.875 12.4672 77.2152C12.4672 84.5582 18.4405 90.5287 25.7807 90.5287C33.1208 90.5287 39.0941 84.5554 39.0941 77.2152C39.0941 69.875 33.1208 63.9017 25.7807 63.9017ZM25.7807 87.1186C20.3189 87.1186 15.8773 82.6742 15.8773 77.2152C15.8773 71.7562 20.3217 67.3118 25.7807 67.3118C31.2396 67.3118 35.6841 71.7534 35.6841 77.2152C35.6841 82.677 31.2425 87.1186 25.7807 87.1186ZM50.3076 15.7004L59.5176 23.0405L56.3804 34.3932C56.19 35.0781 56.4457 35.8084 57.0226 36.2262C57.3032 36.4301 57.6395 36.5435 57.9864 36.5512C58.3332 36.5588 58.6742 36.4603 58.9635 36.2688L68.7902 29.7754L78.6169 36.2659C78.901 36.4535 79.2307 36.5473 79.5575 36.5473C79.9099 36.5473 80.2622 36.4393 80.5606 36.2205C80.841 36.0162 81.0526 35.7315 81.1673 35.4041C81.282 35.0767 81.2944 34.7222 81.2028 34.3876L78.0656 23.0349L87.2756 15.6947C87.8326 15.2514 88.0542 14.5097 87.8354 13.8334C87.6166 13.157 87 12.6881 86.2895 12.6569L74.5248 12.134L70.3901 1.10527C70.2678 0.780511 70.0495 0.500739 69.7641 0.303265C69.4788 0.105791 69.14 0 68.793 0C68.446 0 68.1073 0.105791 67.8219 0.303265C67.5366 0.500739 67.3182 0.780511 67.196 1.10527L63.0613 12.134L51.2965 12.6569C50.5861 12.6881 49.9694 13.157 49.7506 13.8334C49.529 14.5154 49.7506 15.2571 50.3076 15.7004ZM64.3372 15.4958C65.0192 15.4645 65.6188 15.0297 65.8575 14.3903L68.7902 6.56707L71.7228 14.3903C71.8402 14.7032 72.0468 14.9748 72.317 15.1713C72.5873 15.3678 72.9094 15.4806 73.2432 15.4958L81.5893 15.868L75.0533 21.0741C74.7921 21.2824 74.5979 21.5629 74.4949 21.8807C74.3918 22.1985 74.3844 22.5396 74.4736 22.8615L76.6987 30.915L69.7279 26.3085C69.4491 26.1236 69.1219 26.025 68.7873 26.025C68.4528 26.025 68.1256 26.1236 67.8467 26.3085L60.876 30.915L63.101 22.8615C63.2829 22.2022 63.0556 21.5003 62.5213 21.0741L55.9854 15.868L64.3372 15.4958ZM97.3012 34.4387L104.289 40.0056L101.908 48.6189C101.717 49.3038 101.973 50.0341 102.55 50.4518C102.831 50.6558 103.167 50.7692 103.514 50.7768C103.861 50.7845 104.201 50.6859 104.491 50.4945L111.947 45.5697L119.404 50.4945C119.688 50.682 120.018 50.7758 120.345 50.7758C120.697 50.7758 121.05 50.6678 121.348 50.449C121.628 50.2447 121.84 49.96 121.955 49.6326C122.069 49.3052 122.082 48.9507 121.99 48.6161L119.609 40.0028L126.597 34.4359C127.154 33.9926 127.375 33.2509 127.156 32.5745C126.938 31.8982 126.321 31.4293 125.61 31.3981L116.685 31.0002L113.547 22.6342C113.425 22.3094 113.207 22.0297 112.921 21.8322C112.636 21.6347 112.297 21.5289 111.95 21.5289C111.603 21.5289 111.265 21.6347 110.979 21.8322C110.694 22.0297 110.476 22.3094 110.353 22.6342L107.216 31.0002L98.2901 31.3981C97.5797 31.4293 96.963 31.8982 96.7442 32.5745C96.5226 33.2537 96.7471 33.9954 97.3012 34.4387ZM108.492 34.3591C109.174 34.3279 109.774 33.8931 110.012 33.2537L111.947 28.0903L113.883 33.2537C114 33.5666 114.207 33.8382 114.477 34.0347C114.747 34.2312 115.069 34.344 115.403 34.3591L120.91 34.6035L116.599 38.0392C116.338 38.2475 116.144 38.528 116.041 38.8458C115.938 39.1636 115.93 39.5047 116.02 39.8266L117.489 45.1406L112.888 42.1C112.604 41.9124 112.274 41.8187 111.947 41.8187C111.621 41.8187 111.294 41.9124 111.007 42.1L106.406 45.1406L107.875 39.8266C108.057 39.1673 107.83 38.4654 107.296 38.0392L102.985 34.6035L108.492 34.3591ZM10.9866 34.4387L17.9744 40.0056L15.5931 48.6189C15.4027 49.3038 15.6584 50.0341 16.2353 50.4518C16.516 50.6558 16.8522 50.7692 17.1991 50.7768C17.546 50.7845 17.8869 50.6859 18.1762 50.4945L25.6329 45.5697L33.0896 50.4945C33.3738 50.682 33.7034 50.7758 34.0302 50.7758C34.3826 50.7758 34.7349 50.6678 35.0333 50.449C35.3137 50.2447 35.5253 49.96 35.6401 49.6326C35.7548 49.3052 35.7671 48.9507 35.6756 48.6161L33.2942 40.0028L40.282 34.4359C40.839 33.9926 41.0606 33.2509 40.8418 32.5745C40.623 31.8982 40.0063 31.4293 39.2959 31.3981L30.3701 31.0002L27.2328 22.6342C27.1105 22.3094 26.8922 22.0297 26.6068 21.8322C26.3215 21.6347 25.9827 21.5289 25.6357 21.5289C25.2887 21.5289 24.95 21.6347 24.6646 21.8322C24.3793 22.0297 24.1609 22.3094 24.0387 22.6342L20.9014 31.0002L11.9756 31.3981C11.2651 31.4293 10.6485 31.8982 10.4297 32.5745C10.208 33.2537 10.4297 33.9954 10.9866 34.4387ZM22.1774 34.3591C22.8594 34.3279 23.459 33.8931 23.6977 33.2537L25.6329 28.0903L27.5681 33.2537C27.6854 33.5666 27.892 33.8382 28.1623 34.0347C28.4326 34.2312 28.7546 34.344 29.0884 34.3591L34.5957 34.6035L30.2848 38.0392C30.0236 38.2475 29.8294 38.528 29.7263 38.8458C29.6233 39.1636 29.6159 39.5047 29.7051 39.8266L31.1743 45.1406L26.5735 42.1C26.2893 41.9124 25.9597 41.8187 25.6329 41.8187C25.3061 41.8187 24.9793 41.9124 24.6923 42.1L20.0915 45.1406L21.5607 39.8266C21.7426 39.1673 21.5152 38.4654 20.981 38.0392L16.6701 34.6035L22.1774 34.3591Z" fill="#006A4E"/>
</svg>
