<svg width="102" height="80" viewBox="0 0 102 80" fill="none" xmlns="http://www.w3.org/2000/svg">
<ellipse cx="50.211" cy="47.6576" rx="31.4883" ry="25.5311" fill="#93FFE2"/>
<path d="M83.5342 30.1379C82.2106 13.298 68.0833 -0.000138749 50.9089 -0.000138749C43.8399 -0.0329086 36.9529 2.23936 31.2914 6.47236C25.6299 10.7054 21.5025 16.6684 19.5345 23.4579C13.8338 25.4429 8.89131 29.1512 5.39144 34.0694C1.89156 38.9876 0.00744906 44.8724 0 50.9087C0 66.9487 13.0509 79.9995 29.0908 79.9995H76.3633C90.396 79.9995 101.818 68.5777 101.818 54.5451C101.832 49.0437 100.056 43.687 96.7575 39.284C93.4591 34.881 88.8177 31.6707 83.5342 30.1379ZM66.5197 57.116L59.247 49.8433C58.7386 49.3347 58.3924 48.6869 58.2522 47.9816C58.1119 47.2763 58.1839 46.5453 58.4591 45.8809C58.7343 45.2166 59.2002 44.6487 59.7981 44.2491C60.3959 43.8495 61.0988 43.6362 61.8179 43.636H64.9379C63.3125 37.3815 57.6688 32.727 50.9089 32.727C48.8798 32.727 46.9198 33.1343 45.0834 33.9379C44.2093 34.2733 43.2396 34.259 42.3758 33.8979C41.512 33.5369 40.8205 32.8569 40.445 31.9992C40.0696 31.1416 40.039 30.1722 40.3597 29.2926C40.6804 28.413 41.3277 27.6908 42.1671 27.2761C44.9232 26.0693 47.9001 25.4489 50.9089 25.4543C61.6979 25.4543 70.6579 33.3343 72.3997 43.636H76.3633C77.0824 43.6362 77.7853 43.8495 78.3831 44.2491C78.981 44.6487 79.447 45.2166 79.7221 45.8809C79.9973 46.5453 80.0693 47.2763 79.929 47.9816C79.7888 48.6869 79.4426 49.3347 78.9342 49.8433L71.6615 57.116C71.3246 57.4548 70.924 57.7237 70.4828 57.9072C70.0416 58.0907 69.5685 58.1852 69.0906 58.1852C68.6128 58.1852 68.1396 58.0907 67.6984 57.9072C67.2572 57.7237 66.8566 57.4548 66.5197 57.116ZM22.8835 44.7015L30.1562 37.4288C30.4936 37.0908 30.8944 36.8227 31.3355 36.6397C31.7767 36.4568 32.2496 36.3626 32.7271 36.3626C33.2047 36.3626 33.6776 36.4568 34.1187 36.6397C34.5599 36.8227 34.9606 37.0908 35.298 37.4288L42.5707 44.7015C43.0791 45.21 43.4253 45.8579 43.5656 46.5632C43.7058 47.2685 43.6338 47.9995 43.3586 48.6638C43.0835 49.3282 42.6175 49.8961 42.0197 50.2956C41.4218 50.6952 40.7189 50.9086 39.9998 50.9087H36.8798C38.5053 57.1669 44.1489 61.8178 50.9089 61.8178C52.9097 61.8216 54.8895 61.4105 56.7234 60.6105C57.1607 60.4187 57.6316 60.3152 58.109 60.3057C58.5864 60.2963 59.061 60.3811 59.5056 60.5554C59.9501 60.7297 60.3559 60.9901 60.6997 61.3215C61.0434 61.6529 61.3184 62.049 61.5088 62.4869C61.7006 62.9242 61.8042 63.395 61.8136 63.8725C61.8231 64.3499 61.7382 64.8245 61.5639 65.269C61.3896 65.7136 61.1292 66.1194 60.7978 66.4631C60.4664 66.8069 60.0704 67.0819 59.6325 67.2723C56.8761 68.4796 53.9379 69.0905 50.9089 69.0905C40.1198 69.0905 31.1599 61.2105 29.4181 50.9087H25.4544C24.7346 50.9103 24.0305 50.698 23.4315 50.2987C22.8325 49.8994 22.3656 49.3312 22.0902 48.6661C21.8147 48.001 21.7431 47.2691 21.8843 46.5632C22.0256 45.8573 22.3734 45.2093 22.8835 44.7015Z" fill="#006A4E"/>
</svg>
