<svg width="82" height="80" viewBox="0 0 82 80" fill="none" xmlns="http://www.w3.org/2000/svg">
<path d="M34.9935 52.576C33.7468 52.5694 32.5185 52.8686 31.4214 53.4463C30.3244 54.024 29.3939 54.8616 28.7155 55.8819C28.0371 56.9023 27.6326 58.0727 27.5393 59.2855C27.446 60.4983 27.6668 61.7145 28.1814 62.8223C28.696 63.93 29.4879 64.8937 30.4842 65.6247C31.4805 66.3557 32.6493 66.8306 33.883 67.0056C35.1167 67.1806 36.3757 67.0501 37.5442 66.6261C38.7126 66.2022 39.7531 65.4983 40.5697 64.5794V79.7715H81.4545V39.8857H65.882C67.027 40.8542 67.8413 42.1408 68.2158 43.5734C68.5903 45.0059 68.5071 46.5159 67.9773 47.901C67.4475 49.2861 66.4965 50.4802 65.2516 51.3233C64.0068 52.1664 62.5275 52.6182 61.0121 52.6182C59.4967 52.6182 58.0175 52.1664 56.7726 51.3233C55.5278 50.4802 54.5767 49.2861 54.047 47.901C53.5172 46.5159 53.434 45.0059 53.8085 43.5734C54.183 42.1408 54.9973 40.8542 56.1423 39.8857H40.5697V55.0778C39.8784 54.2952 39.0227 53.6668 38.0606 53.2351C37.0984 52.8035 36.0524 52.5787 34.9935 52.576Z" fill="#006A4E"/>
<path d="M39.9623 64.6792C38.9921 65.8057 37.7029 66.6069 36.2676 66.9753C34.8323 67.3437 33.3195 67.2619 31.9317 66.7407C30.5439 66.2195 29.3475 65.2838 28.5028 64.0591C27.6581 62.8344 27.2055 61.3791 27.2055 59.8881C27.2055 58.3972 27.6581 56.9419 28.5028 55.7172C29.3475 54.4924 30.5439 53.5568 31.9317 53.0356C33.3195 52.5144 34.8323 52.4325 36.2676 52.801C37.7029 53.1694 38.9921 53.9705 39.9623 55.097V39.7763H26.2397C26.8926 38.6695 27.2405 37.4075 27.2477 36.1204C27.2477 34.1806 26.4821 32.3202 25.1194 30.9486C23.7566 29.5769 21.9084 28.8064 19.9812 28.8064C18.054 28.8064 16.2057 29.5769 14.843 30.9486C13.4803 32.3202 12.7147 34.1806 12.7147 36.1204C12.7218 37.4075 13.0698 38.6695 13.7226 39.7763H0V80H39.9623V64.6792Z" fill="#93FFE2"/>
<path d="M12.7147 36.5678C12.7147 34.628 13.4803 32.7677 14.843 31.3961C16.2057 30.0244 18.054 29.2538 19.9812 29.2538C21.9084 29.2538 23.7566 30.0244 25.1194 31.3961C26.4821 32.7677 27.2477 34.628 27.2477 36.5678C27.2405 37.855 26.8926 39.117 26.2397 40.2237H39.9623V24.903C40.9326 26.0295 42.2218 26.8306 43.6571 27.199C45.0924 27.5675 46.6052 27.4856 47.993 26.9644C49.3808 26.4432 50.5772 25.5076 51.4219 24.2828C52.2666 23.0581 52.7192 21.6028 52.7192 20.1119C52.7192 18.6209 52.2666 17.1656 51.4219 15.9409C50.5772 14.7162 49.3808 13.7805 47.993 13.2593C46.6052 12.7381 45.0924 12.6563 43.6571 13.0247C42.2218 13.3931 40.9326 14.1943 39.9623 15.3208V0H0V40.2237H13.7226C13.0698 39.117 12.7218 37.855 12.7147 36.5678Z" fill="#006A4E"/>
</svg>
