<svg width="90" height="80" viewBox="0 0 90 80" fill="none" xmlns="http://www.w3.org/2000/svg">
<rect x="15.2158" y="16.9062" width="60.8622" height="27.0499" fill="#93FFE2"/>
<path d="M85.0033 0H5.0002C3.67406 0 2.40224 0.526806 1.46452 1.46452C0.526805 2.40224 0 3.67406 0 5.0002V55.0021C0 56.3283 0.526805 57.6001 1.46452 58.5378C2.40224 59.4755 3.67406 60.0023 5.0002 60.0023H15.0006V75.0029C15.0012 75.9447 15.2677 76.8672 15.7695 77.6641C16.2713 78.461 16.988 79.1001 17.837 79.5076C18.6861 79.9151 19.6329 80.0746 20.5686 79.9677C21.5043 79.8607 22.3907 79.4917 23.1259 78.9031L46.7518 60.0023H85.0033C86.3294 60.0023 87.6013 59.4755 88.539 58.5378C89.4767 57.6001 90.0035 56.3283 90.0035 55.0021V5.0002C90.0035 3.67406 89.4767 2.40224 88.539 1.46452C87.6013 0.526806 86.3294 0 85.0033 0ZM30.0012 35.0014H20.0008V25.001H30.0012V35.0014ZM50.002 35.0014H40.0016V25.001H50.002V35.0014ZM70.0027 35.0014H60.0023V25.001H70.0027V35.0014Z" fill="#006A4E"/>
</svg>
