<svg width="80" height="80" viewBox="0 0 80 80" fill="none" xmlns="http://www.w3.org/2000/svg">
<rect x="6.80859" y="8.51074" width="54.4681" height="45.9574" fill="#93FFE2"/>
<rect x="5.10645" y="61.2764" width="54.4681" height="10.2128" fill="#006A4E"/>
<path d="M45.7128 45.7137H41.9033V32.3804H45.7128C46.218 32.3804 46.7025 32.581 47.0597 32.9383C47.4169 33.2955 47.6176 33.78 47.6176 34.2851V43.8089C47.6176 44.3141 47.4169 44.7986 47.0597 45.1558C46.7025 45.513 46.218 45.7137 45.7128 45.7137Z" fill="#006A4E"/>
<path d="M45.7128 45.7137H41.9033V32.3804H45.7128C46.218 32.3804 46.7025 32.581 47.0597 32.9383C47.4169 33.2955 47.6176 33.78 47.6176 34.2851V43.8089C47.6176 44.3141 47.4169 44.7986 47.0597 45.1558C46.7025 45.513 46.218 45.7137 45.7128 45.7137Z" fill="#006A4E"/>
<path d="M22.8569 45.7137H19.0473C18.5422 45.7137 18.0577 45.513 17.7005 45.1558C17.3433 44.7986 17.1426 44.3141 17.1426 43.8089V34.2851C17.1426 33.78 17.3433 33.2955 17.7005 32.9383C18.0577 32.581 18.5422 32.3804 19.0473 32.3804H22.8569V45.7137Z" fill="#006A4E"/>
<path d="M22.8569 45.7137H19.0473C18.5422 45.7137 18.0577 45.513 17.7005 45.1558C17.3433 44.7986 17.1426 44.3141 17.1426 43.8089V34.2851C17.1426 33.78 17.3433 33.2955 17.7005 32.9383C18.0577 32.581 18.5422 32.3804 19.0473 32.3804H22.8569V45.7137Z" fill="#006A4E"/>
<path fill-rule="evenodd" clip-rule="evenodd" d="M65.7143 0H5.71429C4.19876 0 2.74531 0.602038 1.67367 1.67367C0.602038 2.74531 0 4.19876 0 5.71429V74.2857C0 75.8012 0.602038 77.2547 1.67367 78.3263C2.74531 79.398 4.19876 80 5.71429 80H65.7143V0ZM13.3333 13.3333C12.8282 13.3333 12.3437 13.534 11.9865 13.8912C11.6292 14.2484 11.4286 14.7329 11.4286 15.2381C11.4286 15.7433 11.6292 16.2278 11.9865 16.585C12.3437 16.9422 12.8282 17.1429 13.3333 17.1429H52.3809C52.8861 17.1429 53.3706 16.9422 53.7278 16.585C54.085 16.2278 54.2857 15.7433 54.2857 15.2381C54.2857 14.7329 54.085 14.2484 53.7278 13.8912C53.3706 13.534 52.8861 13.3333 52.3809 13.3333H13.3333ZM38.0952 45.7143C38.0952 46.7246 38.4966 47.6936 39.211 48.408C39.9254 49.1225 40.8944 49.5238 41.9048 49.5238H45.7143C47.2298 49.5238 48.6833 48.9218 49.7549 47.8501C50.8265 46.7785 51.4286 45.325 51.4286 43.8095V40.9524H52.3809C52.8861 40.9524 53.3706 40.7517 53.7278 40.3945C54.085 40.0373 54.2857 39.5528 54.2857 39.0476C54.2857 38.5424 54.085 38.058 53.7278 37.7007C53.3706 37.3435 52.8861 37.1429 52.3809 37.1429H51.4286V34.2857C51.4286 32.7702 50.8265 31.3167 49.7549 30.2451C48.6833 29.1735 47.2298 28.5714 45.7143 28.5714H41.9048C40.8944 28.5714 39.9254 28.9728 39.211 29.6872C38.4966 30.4016 38.0952 31.3706 38.0952 32.381V37.1429H26.6667V32.381C26.6667 31.3706 26.2653 30.4016 25.5509 29.6872C24.8365 28.9728 23.8675 28.5714 22.8571 28.5714H19.0476C17.5321 28.5714 16.0786 29.1735 15.007 30.2451C13.9354 31.3167 13.3333 32.7702 13.3333 34.2857V37.1429H12.381C11.8758 37.1429 11.3913 37.3435 11.0341 37.7007C10.6769 38.058 10.4762 38.5424 10.4762 39.0476C10.4762 39.5528 10.6769 40.0373 11.0341 40.3945C11.3913 40.7517 11.8758 40.9524 12.381 40.9524H13.3333V43.8095C13.3333 45.325 13.9354 46.7785 15.007 47.8501C16.0786 48.9218 17.5321 49.5238 19.0476 49.5238H22.8571C23.8675 49.5238 24.8365 49.1225 25.5509 48.408C26.2653 47.6936 26.6667 46.7246 26.6667 45.7143V40.9524H38.0952V45.7143ZM22.8571 62.8571C22.352 62.8571 21.8675 63.0578 21.5103 63.415C21.1531 63.7722 20.9524 64.2567 20.9524 64.7619C20.9524 65.2671 21.1531 65.7516 21.5103 66.1088C21.8675 66.466 22.352 66.6667 22.8571 66.6667H42.3809C42.8861 66.6667 43.3706 66.466 43.7278 66.1088C44.085 65.7516 44.2857 65.2671 44.2857 64.7619C44.2857 64.2567 44.085 63.7722 43.7278 63.415C43.3706 63.0578 42.8861 62.8571 42.3809 62.8571H22.8571Z" fill="#006A4E"/>
<path fill-rule="evenodd" clip-rule="evenodd" d="M65.7143 0H5.71429C4.19876 0 2.74531 0.602038 1.67367 1.67367C0.602038 2.74531 0 4.19876 0 5.71429V74.2857C0 75.8012 0.602038 77.2547 1.67367 78.3263C2.74531 79.398 4.19876 80 5.71429 80H65.7143V0ZM13.3333 13.3333C12.8282 13.3333 12.3437 13.534 11.9865 13.8912C11.6292 14.2484 11.4286 14.7329 11.4286 15.2381C11.4286 15.7433 11.6292 16.2278 11.9865 16.585C12.3437 16.9422 12.8282 17.1429 13.3333 17.1429H52.3809C52.8861 17.1429 53.3706 16.9422 53.7278 16.585C54.085 16.2278 54.2857 15.7433 54.2857 15.2381C54.2857 14.7329 54.085 14.2484 53.7278 13.8912C53.3706 13.534 52.8861 13.3333 52.3809 13.3333H13.3333ZM38.0952 45.7143C38.0952 46.7246 38.4966 47.6936 39.211 48.408C39.9254 49.1225 40.8944 49.5238 41.9048 49.5238H45.7143C47.2298 49.5238 48.6833 48.9218 49.7549 47.8501C50.8265 46.7785 51.4286 45.325 51.4286 43.8095V40.9524H52.3809C52.8861 40.9524 53.3706 40.7517 53.7278 40.3945C54.085 40.0373 54.2857 39.5528 54.2857 39.0476C54.2857 38.5424 54.085 38.058 53.7278 37.7007C53.3706 37.3435 52.8861 37.1429 52.3809 37.1429H51.4286V34.2857C51.4286 32.7702 50.8265 31.3167 49.7549 30.2451C48.6833 29.1735 47.2298 28.5714 45.7143 28.5714H41.9048C40.8944 28.5714 39.9254 28.9728 39.211 29.6872C38.4966 30.4016 38.0952 31.3706 38.0952 32.381V37.1429H26.6667V32.381C26.6667 31.3706 26.2653 30.4016 25.5509 29.6872C24.8365 28.9728 23.8675 28.5714 22.8571 28.5714H19.0476C17.5321 28.5714 16.0786 29.1735 15.007 30.2451C13.9354 31.3167 13.3333 32.7702 13.3333 34.2857V37.1429H12.381C11.8758 37.1429 11.3913 37.3435 11.0341 37.7007C10.6769 38.058 10.4762 38.5424 10.4762 39.0476C10.4762 39.5528 10.6769 40.0373 11.0341 40.3945C11.3913 40.7517 11.8758 40.9524 12.381 40.9524H13.3333V43.8095C13.3333 45.325 13.9354 46.7785 15.007 47.8501C16.0786 48.9218 17.5321 49.5238 19.0476 49.5238H22.8571C23.8675 49.5238 24.8365 49.1225 25.5509 48.408C26.2653 47.6936 26.6667 46.7246 26.6667 45.7143V40.9524H38.0952V45.7143ZM22.8571 62.8571C22.352 62.8571 21.8675 63.0578 21.5103 63.415C21.1531 63.7722 20.9524 64.2567 20.9524 64.7619C20.9524 65.2671 21.1531 65.7516 21.5103 66.1088C21.8675 66.466 22.352 66.6667 22.8571 66.6667H42.3809C42.8861 66.6667 43.3706 66.466 43.7278 66.1088C44.085 65.7516 44.2857 65.2671 44.2857 64.7619C44.2857 64.2567 44.085 63.7722 43.7278 63.415C43.3706 63.0578 42.8861 62.8571 42.3809 62.8571H22.8571Z" fill="#006A4E"/>
<path d="M69.5244 80V0H74.2863C75.8018 0 77.2553 0.602038 78.3269 1.67367C79.3986 2.74531 80.0006 4.19876 80.0006 5.71429V74.2857C80.0006 75.8012 79.3986 77.2547 78.3269 78.3263C77.2553 79.398 75.8018 80 74.2863 80H69.5244Z" fill="#006A4E"/>
<path d="M69.5244 80V0H74.2863C75.8018 0 77.2553 0.602038 78.3269 1.67367C79.3986 2.74531 80.0006 4.19876 80.0006 5.71429V74.2857C80.0006 75.8012 79.3986 77.2547 78.3269 78.3263C77.2553 79.398 75.8018 80 74.2863 80H69.5244Z" fill="#93FFE2"/>
</svg>
