<svg width="122" height="130" viewBox="0 0 122 130" fill="none" xmlns="http://www.w3.org/2000/svg">
<path d="M40.2715 13.3146C41.4343 13.3146 42.3769 12.372 42.3769 11.2092C42.3769 10.0464 41.4343 9.10376 40.2715 9.10376C39.1087 9.10376 38.166 10.0464 38.166 11.2092C38.166 12.372 39.1087 13.3146 40.2715 13.3146Z" fill="#006A4E"/>
<path d="M17.6367 44.6335H58.6929C60.2719 44.6335 61.3247 43.5808 61.3247 42.0017C61.3247 40.4226 60.2719 39.3699 58.6929 39.3699H17.6367C16.0576 39.3699 15.0049 40.4226 15.0049 42.0017C15.0049 43.5808 16.3208 44.6335 17.6367 44.6335ZM17.6367 59.3716H45.797C47.3761 59.3716 48.4288 58.3189 48.4288 56.7398C48.4288 55.1607 47.3761 54.108 45.797 54.108H17.6367C16.0576 54.108 15.0049 55.1607 15.0049 56.7398C15.0049 58.3189 16.3208 59.3716 17.6367 59.3716ZM17.6367 73.8465H58.6929C60.2719 73.8465 61.3247 72.7938 61.3247 71.2147C61.3247 69.6356 60.2719 68.5829 58.6929 68.5829H17.6367C16.0576 68.5829 15.0049 69.6356 15.0049 71.2147C15.0049 72.7938 16.3208 73.8465 17.6367 73.8465ZM37.1121 85.6896C37.1121 84.1106 36.0593 83.0578 34.4802 83.0578H17.6367C16.0576 83.0578 15.0049 84.1106 15.0049 85.6896C15.0049 87.2687 16.0576 88.3215 17.6367 88.3215H34.4802C36.0593 88.3215 37.1121 87.2687 37.1121 85.6896Z" fill="#006A4E"/>
<path d="M119.487 77.7938H79.4835V24.105C79.4835 18.5782 75.0094 14.1041 69.4826 14.1041H61.0608V10.6827C61.0608 9.10366 60.0081 8.05094 58.429 8.05094H51.06C49.2177 3.84005 45.0068 0.681885 40.2696 0.681885C35.5323 0.681885 31.3214 3.57687 29.4792 8.05094H21.8469C20.2678 8.05094 19.2151 9.10366 19.2151 10.6827V14.1041H10.5302C5.00337 14.1041 0.529297 18.5782 0.529297 24.105V116.745C0.529297 122.271 5.00337 126.745 10.5302 126.745H49.2177C65.7981 135.167 85.7998 125.166 88.4316 107.27C89.2211 101.48 94.2216 97.006 100.538 96.2164L119.487 94.3742C120.803 94.111 121.856 93.0583 121.856 91.7424V80.6888C122.119 79.1097 120.803 77.7938 119.487 77.7938ZM24.4787 13.3146H32.3741C33.4269 13.3146 34.2164 12.525 34.4796 11.7355C35.006 9.10366 36.3219 6.20868 40.5327 6.20868C44.7436 6.20868 45.7964 9.10366 46.5859 11.7355C46.3227 12.525 47.3754 13.3146 48.165 13.3146H55.7972V26.2104H24.4787V13.3146ZM10.5302 121.482C7.89835 121.482 5.79291 119.376 5.79291 116.745V24.105C5.79291 21.4732 7.89835 19.3677 10.5302 19.3677H19.2151V28.8422C19.2151 30.4213 20.2678 31.474 21.8469 31.474H58.429C60.0081 31.474 61.0608 30.4213 61.0608 28.8422V19.3677H69.4826C72.1144 19.3677 74.2199 21.4732 74.2199 24.105V78.057H62.3767C47.9018 78.057 35.7955 88.5842 34.7428 102.006C34.2164 109.375 36.8482 116.481 42.1118 121.482H10.5302ZM116.855 89.3737L100.275 91.216C91.5898 92.0056 84.7471 98.5851 83.4312 106.744C81.0626 121.482 64.4822 129.114 51.06 122.008C43.6909 118.06 39.48 110.428 40.0064 102.533C40.7959 91.7424 50.5336 83.5838 62.3767 83.5838H116.592V89.3737H116.855Z" fill="#006A4E"/>
<path d="M47.1133 102.796C47.1133 104.375 48.166 105.428 49.7451 105.428C51.3242 105.428 52.3769 104.375 52.3769 102.796C52.3769 97.006 57.1141 92.5319 62.6409 92.5319C64.22 92.5319 65.2727 91.4792 65.2727 89.9001C65.2727 88.321 64.22 87.2683 62.6409 87.2683C54.2192 87.2683 47.1133 94.3742 47.1133 102.796Z" fill="#006A4E"/>
</svg>
