<svg width="113" height="80" viewBox="0 0 113 80" fill="none" xmlns="http://www.w3.org/2000/svg">
<path d="M31.4268 39.2852C42.2751 39.2852 51.0694 30.4909 51.0694 19.6426C51.0694 8.7943 42.2751 0 31.4268 0C20.5785 0 11.7842 8.7943 11.7842 19.6426C11.7842 30.4909 20.5785 39.2852 31.4268 39.2852Z" fill="#93FFE2"/>
<path d="M0 74.1068C0 57.1428 13.7498 43.2144 30.8925 43.2144C47.8566 43.2144 61.785 56.9642 61.785 74.1068V79.9996H0V74.1068Z" fill="#93FFE2"/>
<path d="M82.6807 39.2852C93.529 39.2852 102.323 30.4909 102.323 19.6426C102.323 8.7943 93.529 0 82.6807 0C71.8324 0 63.0381 8.7943 63.0381 19.6426C63.0381 30.4909 71.8324 39.2852 82.6807 39.2852Z" fill="#006A4E"/>
<path d="M51.0732 74.1068C51.0732 57.1428 64.8231 43.2144 81.9657 43.2144C99.1084 43.2144 112.858 56.9642 112.858 74.1068V79.9996H51.0732V74.1068Z" fill="#006A4E"/>
<path d="M51.0693 74.1071C51.0693 57.143 64.8192 43.2146 81.9618 43.2146C99.1045 43.2146 112.854 56.9644 112.854 74.1071V79.9999H51.0693V74.1071Z" fill="#006A4E"/>
</svg>
