<svg width="125" height="80" viewBox="0 0 125 80" fill="none" xmlns="http://www.w3.org/2000/svg">
<path d="M0 3C0 1.34314 1.34315 0 3 0H121.255C122.912 0 124.255 1.34315 124.255 3V68.0851H0V3Z" fill="#93FFE2"/>
<path d="M65.9468 58.6464H124.593V3.65019C124.593 1.63431 122.959 0 120.943 0H65.9468V58.6464ZM83.3764 29.3232C83.3764 27.3073 85.0107 25.673 87.0266 25.673H99.8631V16.4867H87.0266C85.0107 16.4867 83.3764 14.8524 83.3764 12.8365C83.3764 10.8206 85.0107 9.18631 87.0266 9.18631H103.513C105.529 9.18631 107.163 10.8206 107.163 12.8365V29.3232C107.163 31.3391 105.529 32.9734 103.513 32.9734H90.6768V42.1597H103.513C105.529 42.1597 107.163 43.794 107.163 45.8099C107.163 47.8258 105.529 49.4601 103.513 49.4601H87.0266C85.0107 49.4601 83.3764 47.8258 83.3764 45.8099V29.3232ZM58.6464 0H3.65019C1.63431 0 0 1.63431 0 3.65019V58.6464H58.6464V0ZM41.2167 45.8099C41.2167 47.8258 39.5824 49.4601 37.5665 49.4601C35.5507 49.4601 33.9164 47.8258 33.9164 45.8099V32.9734H21.0798C19.064 32.9734 17.4297 31.3391 17.4297 29.3232V12.8365C17.4297 10.8206 19.064 9.18631 21.0798 9.18631C23.0957 9.18631 24.73 10.8206 24.73 12.8365V25.673H33.9164V12.8365C33.9164 10.8206 35.5507 9.18631 37.5665 9.18631C39.5824 9.18631 41.2167 10.8206 41.2167 12.8365V45.8099ZM0 65.9468V76.3498C0 78.3657 1.63431 80 3.65019 80H120.943C122.959 80 124.593 78.3657 124.593 76.3498V65.9468H0Z" fill="#006A4E"/>
</svg>
