<svg width="77" height="80" viewBox="0 0 77 80" fill="none" xmlns="http://www.w3.org/2000/svg">
<path d="M18.2052 60.678H58.6572C59.1937 60.678 59.7081 60.8911 60.0874 61.2704C60.4668 61.6498 60.6799 62.1642 60.6799 62.7006V70.7911H16.1826V62.7006C16.1826 62.1642 16.3957 61.6498 16.775 61.2704C17.1543 60.8911 17.6688 60.678 18.2052 60.678ZM38.4312 48.5424C50.9066 48.5424 60.6799 28.1081 60.6799 2.0226C60.6799 1.48617 60.4668 0.971718 60.0874 0.592407C59.7081 0.213095 59.1937 0 58.6572 0H18.2052C17.6688 0 17.1543 0.213095 16.775 0.592407C16.3957 0.971718 16.1826 1.48617 16.1826 2.0226C16.1826 28.1081 25.9558 48.5424 38.4312 48.5424Z" fill="#93FFE2"/>
<path d="M38.4294 51.6839C37.0627 51.683 35.7022 51.4994 34.3842 51.1378V55.7291H42.4746V51.1378C41.1566 51.4994 39.7961 51.683 38.4294 51.6839ZM66.7458 5.16406C66.0197 5.16406 65.3139 5.24901 64.6322 5.39464C64.5754 6.82961 64.4891 8.26327 64.3733 9.69469C65.1015 9.38321 65.9044 9.20927 66.7458 9.20927C70.0912 9.20927 72.8137 11.9317 72.8137 15.2771C72.8137 21.804 66.2058 27.9932 59.3411 32.4894C58.4392 34.7755 57.369 36.9916 56.1393 39.1195C65.5384 34.063 76.8589 25.2303 76.8589 15.2771C76.8589 9.70075 72.3222 5.16406 66.7458 5.16406ZM62.7006 73.9325H14.1582C13.6218 73.9325 13.1073 74.1456 12.728 74.5249C12.3487 74.9042 12.1356 75.4187 12.1356 75.9551V77.9777C12.1356 78.5141 12.3487 79.0286 12.728 79.4079C13.1073 79.7872 13.6218 80.0003 14.1582 80.0003H62.7006C63.2371 80.0003 63.7515 79.7872 64.1308 79.4079C64.5102 79.0286 64.7232 78.5141 64.7232 77.9777V75.9551C64.7232 75.4187 64.5102 74.9042 64.1308 74.5249C63.7515 74.1456 63.2371 73.9325 62.7006 73.9325ZM17.5178 32.4894C10.653 27.9932 4.0452 21.804 4.0452 15.2771C4.0452 11.9317 6.76763 9.20927 10.113 9.20927C10.9544 9.20927 11.7574 9.38321 12.4855 9.69469C12.3696 8.26327 12.2833 6.82962 12.2266 5.39464C11.5322 5.24364 10.8237 5.16635 10.113 5.16406C4.5367 5.16406 0 9.70075 0 15.2771C0 25.2303 11.3205 34.063 20.7195 39.1195C19.4899 36.9916 18.4197 34.7755 17.5178 32.4894Z" fill="#006A4E"/>
</svg>
