<svg width="133" height="130" viewBox="0 0 133 130" fill="none" xmlns="http://www.w3.org/2000/svg">
<path d="M16.7149 80.6277L22.02 75.3226C23.7663 73.5764 25.7999 72.1396 27.9883 71.0344L26.7062 85.2034L22.1526 97.0736C21.0695 99.9251 19.4338 102.489 17.3117 104.678L11.233 110.977C9.37618 112.878 8.38147 115.531 8.44779 118.228C8.5141 120.792 9.55302 123.113 11.3656 124.771C13.1119 126.384 15.3886 127.268 17.7759 127.268C20.3401 127.268 22.8158 126.207 24.562 124.395L35.4596 113.166C36.3438 112.237 37.0511 111.132 37.4711 109.961L38.3774 107.595C39.7479 109.762 40.7647 112.127 41.3394 114.647L43.0857 122.207C43.5568 124.292 44.7241 126.156 46.3955 127.49C48.0669 128.824 50.1428 129.549 52.2812 129.545C53.4307 129.545 54.5801 129.324 55.6632 128.926C60.0399 127.268 62.5156 122.405 61.4104 117.631L60.0178 111.618C58.6694 105.739 56.2379 100.235 52.8338 95.261L45.694 84.8718L46.3572 77.4668C47.1308 78.0857 47.9487 78.6162 48.8771 78.9699L56.9895 82.0424C58.0505 82.4624 59.2 82.6835 60.3936 82.6835C64.2619 82.6835 67.7986 80.252 69.2133 76.6047C71.0701 71.7417 68.6165 66.2598 63.7314 64.403L61.4104 63.5188C58.6916 62.4799 56.2379 60.9546 54.0938 58.9652L47.1751 52.5328C53.2538 51.2286 57.8295 45.813 57.8295 39.3584C57.8295 31.9313 51.7728 25.8746 44.3457 25.8746C36.9185 25.8746 30.8619 31.9313 30.8619 39.3584C30.8619 43.0499 32.365 46.4098 34.7744 48.8413L26.9493 51.2949C19.6003 53.6111 12.9195 57.6682 7.47518 63.1209L3.07637 67.5197C1.19748 69.3986 0.180663 72.007 0.313291 74.6595C0.445919 77.3121 1.68378 79.8099 3.76161 81.5119C7.47518 84.5624 13.134 84.2087 16.6707 80.672L16.7149 80.6277ZM33.3155 108.391C33.0944 109.01 32.7186 109.607 32.2544 110.071L21.3569 121.3C19.5885 123.157 16.2728 123.245 14.3497 121.477C13.4213 120.637 12.8908 119.421 12.8466 118.073C12.8024 116.57 13.355 115.089 14.3939 114.028L20.4727 107.728C23.0147 105.098 24.9599 102.047 26.2641 98.6209L28.4303 92.9842L35.3491 103.064L33.3155 108.347V108.391ZM48.0371 59.2747L51.1318 62.1483C53.6738 64.5135 56.6358 66.3482 59.8852 67.586L62.2062 68.4702C64.7924 69.4649 66.1187 72.3606 65.124 74.9469C64.1293 77.4889 61.101 78.8373 58.6252 77.8426L50.4907 74.77C49.8939 74.549 49.3413 74.1732 48.855 73.7311L46.8656 71.8964L48.015 59.2526L48.0371 59.2747ZM44.3899 30.2514C49.3855 30.2514 53.4528 34.3186 53.4528 39.3142C53.4528 44.3099 49.3855 48.3771 44.3899 48.3771C39.3942 48.3771 35.327 44.3099 35.327 39.3142C35.327 34.3186 39.3942 30.2514 44.3899 30.2514ZM6.25943 70.6144L10.6582 66.2155C15.5876 61.2862 21.7105 57.5726 28.3419 55.4727L37.1838 52.6875H37.2059C37.4269 52.6212 37.648 52.577 37.8469 52.5328C37.9132 52.5328 37.9795 52.5328 38.0458 52.5107C38.3332 52.4444 38.6206 52.4444 38.9079 52.4665C39.0185 52.4665 39.129 52.4886 39.2395 52.5107C39.4826 52.5328 39.7037 52.577 39.9247 52.6433C39.9689 52.6433 40.0132 52.6654 40.0353 52.6654L40.3005 52.7317H40.3889C40.6763 52.8644 40.9416 52.997 41.2068 53.1296L41.6047 53.3949C41.7152 53.4612 41.8036 53.5275 41.8921 53.6159C42.2899 53.9475 42.6436 54.3233 42.9531 54.7875C43.5499 55.6937 43.8152 56.9095 43.6825 58.1916L41.2289 85.2255C41.1847 85.7339 41.3173 86.2423 41.6047 86.6844L49.1866 97.7367C52.2812 102.246 54.4917 107.264 55.7074 112.591L57.1 118.603C57.6968 121.234 56.4148 123.886 54.0938 124.771C51.2423 125.854 48.0592 124.107 47.374 121.212L45.6277 113.652C44.8541 110.336 43.5057 107.242 41.5826 104.434L31.8345 90.2211C31.1713 89.2485 30.8619 88.077 30.9724 86.9276L32.6965 67.8955C32.7628 67.166 32.4534 66.4366 31.8787 65.9724C31.5966 65.7394 31.2596 65.5826 30.8997 65.5168C30.5399 65.451 30.1692 65.4785 29.8229 65.5966C25.7115 66.9008 21.9095 69.1997 18.8591 72.2501L13.5539 77.5552C11.6087 79.5004 8.55831 79.7436 6.591 78.1078C5.46366 77.1794 4.82263 75.8974 4.75632 74.4606C4.69 73.0459 5.22051 71.6533 6.21522 70.6586L6.25943 70.6144ZM110.704 11.2856V6.31207C110.704 3.04058 107.476 0.454346 103.365 0.454346H94.5894C90.478 0.454346 87.2728 3.01848 87.2728 6.31207V11.1972C80.6721 13.5726 74.966 17.9284 70.9343 23.6692C66.9027 29.4101 64.7422 36.2559 64.7482 43.271C64.7482 52.6875 68.506 61.463 75.3142 67.9618C81.7246 74.0848 90.0138 77.3784 98.8335 77.3784C99.3861 77.3784 99.9609 77.3784 100.513 77.3342C118.153 76.4942 132.41 61.9936 132.963 44.332C133.427 29.5219 124.497 16.3697 110.682 11.2856H110.704ZM91.6937 6.31207C91.6937 5.80366 92.799 4.87527 94.5894 4.87527H103.365C105.178 4.87527 106.283 5.80366 106.283 6.31207V10.0698C104.537 9.73828 102.68 9.56144 100.757 9.56144H97.2641C95.3189 9.53934 93.4621 9.71617 91.6937 10.0256V6.33417V6.31207ZM100.315 72.9353C92.0916 73.3332 84.3108 70.4154 78.3647 64.7566C72.4185 59.0979 69.1691 51.4718 69.1691 43.271C69.1691 30.4945 77.3036 19.1769 89.417 15.1097C91.7158 14.336 94.3021 13.9603 97.1315 13.9603H100.735C103.564 13.9824 106.172 14.3802 108.449 15.1539C120.872 19.3759 128.962 31.0692 128.542 44.1994C128.078 59.5842 115.677 72.2059 100.315 72.9353ZM98.8556 19.1327C85.7918 19.1327 75.1595 29.7651 75.1595 42.8289C75.1595 55.8927 85.7918 66.525 98.8556 66.525C111.919 66.525 122.552 55.8927 122.552 42.8289C122.552 29.7651 111.919 19.1327 98.8556 19.1327ZM114.97 44.9951H117.998C117.504 49.2992 115.577 53.3118 112.525 56.3872C109.474 59.4626 105.477 61.4218 101.177 61.9494V58.8989C101.177 57.6832 100.182 56.6885 98.9661 56.6885C97.7504 56.6885 96.7557 57.6832 96.7557 58.8989V61.9936C92.4304 61.5092 88.3956 59.5776 85.306 56.5121C82.2164 53.4466 80.2533 49.427 79.7351 45.1056H82.8519C84.0676 45.1056 85.0623 44.1109 85.0623 42.8952C85.0623 41.6794 84.0676 40.6847 82.8519 40.6847H79.713C80.7077 31.7987 87.7812 24.7252 96.6452 23.7084V26.7809C96.6452 27.9967 97.6399 28.9914 98.8556 28.9914C100.071 28.9914 101.066 27.9967 101.066 26.7809V23.7084C109.908 24.7252 116.937 31.7545 117.976 40.5742H114.97C113.754 40.5742 112.759 41.5689 112.759 42.7847C112.759 44.0004 113.754 44.9951 114.97 44.9951ZM107.83 33.4344C108.692 34.2965 108.67 35.7112 107.83 36.5512L100.536 43.7573C100.204 44.0851 99.7784 44.3001 99.3179 44.3715C98.8575 44.443 98.3863 44.3672 97.9714 44.1551L91.4948 40.751C90.4117 40.1763 89.9917 38.85 90.5664 37.7669C91.1411 36.6838 92.4674 36.2638 93.5505 36.8385L98.5904 39.4911L104.735 33.4123C105.598 32.5502 107.012 32.5723 107.852 33.4123L107.83 33.4344Z" fill="#006A4E"/>
</svg>
