<svg width="79" height="80" viewBox="0 0 79 80" fill="none" xmlns="http://www.w3.org/2000/svg">
<path d="M72.3516 61.5603L55.9428 56.0914C51.665 60.6204 45.6431 63.5048 39.2815 63.5048C32.9199 63.5048 26.8981 60.6216 22.6202 56.0923L6.21139 61.5612C2.79785 62.7023 0 66.5804 0 70.1796V80H78.563V70.1796C78.563 66.5804 75.7692 62.7023 72.3516 61.5603ZM26.188 30.8981H19.6408V24.3508H26.188V30.8981Z" fill="#93FFE2"/>
<path d="M59.2399 17.2454H19.9584C16.3592 17.2454 13.4111 20.1924 13.4111 23.7926V33.613C13.4111 37.2122 16.3592 40.1593 19.9584 40.1593H59.2399C62.8391 40.1593 65.7871 37.2122 65.7871 33.612V23.7916C65.7871 20.1924 62.8391 17.2454 59.2399 17.2454ZM26.5056 30.3389H19.9584V23.7916H26.5056V30.3389Z" fill="#006A4E"/>
<path d="M23.7586 44.1917C25.9741 50.6045 32.4673 55.5204 39.2826 55.5204C46.098 55.5204 52.5912 50.6043 54.8067 44.1917H23.7586ZM39.2826 0C30.7477 0 24.0463 4.62843 21.1738 11.4574H57.3915C54.5219 4.62843 47.8147 0 39.2826 0Z" fill="#93FFE2"/>
</svg>
